<svg xmlns="http://www.w3.org/2000/svg" width="38.925" height="23.001" viewBox="0 0 38.925 23.001">
  <g id="dinheiro" transform="translate(0 -23.272)">
    <path id="Caminho_402" data-name="Caminho 402" d="M37.156,46.273H1.769A1.775,1.775,0,0,1,0,44.5V25.041a1.775,1.775,0,0,1,1.769-1.769H37.156a1.775,1.775,0,0,1,1.769,1.769V44.5A1.775,1.775,0,0,1,37.156,46.273Z" fill="#0e9347"/>
    <path id="Caminho_406" data-name="Caminho 406" d="M214.752,110.026h-2.119a1.059,1.059,0,1,1,0-2.119h3.178a1.059,1.059,0,1,0,0-2.119h-1.059a1.059,1.059,0,1,0-2.119,0,3.178,3.178,0,1,0,0,6.356h2.119a1.059,1.059,0,1,1,0,2.119h-3.178a1.059,1.059,0,1,0,0,2.119h1.059a1.059,1.059,0,1,0,2.119,0,3.178,3.178,0,1,0,0-6.356Z" transform="translate(-194.455 -76.458)" fill="#89c763"/>
  </g>
</svg>
