<svg width="39" height="25" viewBox="0 0 39 25" fill="none" xmlns="http://www.w3.org/2000/svg">
<g clip-path="url(#clip0_765_1456)">
<path d="M36.215 0H2.78504C1.27004 0 0.0400391 1.23 0.0400391 2.745V22.255C0.0400391 23.77 1.27004 25 2.78504 25H36.22C37.735 25 38.965 23.77 38.965 22.255V2.745C38.96 1.23 37.73 0 36.215 0Z" fill="#F37421"/>
<path d="M5 6.99414V15.7441H6.985V12.0841H10.245V15.7441H12.22V6.99414H10.245V10.3591H6.985V6.99414H5Z" fill="white"/>
<path d="M29.3098 13.2C29.3348 13.055 29.3748 12.76 29.3748 12.42C29.3748 10.85 28.5948 9.25 26.5448 9.25C24.3398 9.25 23.3398 11.03 23.3398 12.64C23.3398 14.625 24.5748 15.875 26.7298 15.875C27.5848 15.875 28.3798 15.745 29.0298 15.485L28.7698 14.15C28.2398 14.32 27.6898 14.41 27.0148 14.41C26.0948 14.41 25.2898 14.02 25.2248 13.205H29.3098V13.2ZM25.2048 11.85C25.2548 11.32 25.5948 10.565 26.4248 10.565C27.3348 10.565 27.5398 11.37 27.5398 11.85H25.2048Z" fill="white"/>
<path d="M30.0051 15.7439H31.9801V12.5239C31.9801 12.3689 31.9951 12.2139 32.0201 12.0839C32.1501 11.4739 32.6451 11.0839 33.3701 11.0839C33.5901 11.0839 33.7601 11.1089 33.9001 11.1339V9.27891C33.7551 9.25391 33.6651 9.25391 33.4851 9.25391C32.8751 9.25391 32.0951 9.64391 31.7701 10.5639H31.7201L31.6551 9.39391H29.9551C29.9801 9.93891 30.0051 10.5489 30.0051 11.4839V15.7439Z" fill="white"/>
<path fill-rule="evenodd" clip-rule="evenodd" d="M14.225 6.64453C14.785 6.64453 15.24 7.09953 15.24 7.65953C15.24 8.21953 14.785 8.67453 14.225 8.67453C13.665 8.67453 13.21 8.21953 13.21 7.65953C13.21 7.09953 13.665 6.64453 14.225 6.64453Z" fill="#FFE700"/>
<path fill-rule="evenodd" clip-rule="evenodd" d="M18.395 14.265H19.385C20.38 14.265 20.83 13.63 20.83 12.965C20.83 12.3 20.78 10.8 19.555 10.8C18.145 10.8 18.37 12.665 18.38 13.64C18.375 13.85 18.39 14.06 18.395 14.265ZM13.21 9.38995H15.24V12.97C15.24 13.635 15.61 14.27 16.425 14.27C16.43 12.66 16.425 11 16.37 9.38995H18.065C18.1 9.69995 18.135 10.01 18.165 10.32C18.965 8.71995 21.49 9.06995 22.34 10.425C23.215 11.82 23.515 15.82 19.385 15.82H18.425C18.435 16.63 18.435 17.445 18.435 18.26H16.405C16.405 17.48 16.41 16.66 16.415 15.82C14.22 15.81 13.21 14.42 13.21 12.97V9.38995Z" fill="white"/>
</g>
<defs>
<clipPath id="clip0_765_1456">
<rect width="39" height="25" fill="white"/>
</clipPath>
</defs>
</svg>
