<svg width="39" height="31" viewBox="0 0 39 31" fill="none" xmlns="http://www.w3.org/2000/svg">
<g clip-path="url(#clip0_770_408)">
<path d="M24.7732 21.5279H14.2275V2.57617H24.7732V21.5279Z" fill="#6C6BBD"/>
<path d="M14.8966 12.0526C14.8966 8.20811 16.6966 4.78358 19.4997 2.57668C17.4499 0.962887 14.8629 -0.000335693 12.0514 -0.000335693C5.39542 -0.000335693 0 5.39585 0 12.0526C0 18.7093 5.39542 24.1055 12.0514 24.1055C14.8629 24.1055 17.4499 23.1422 19.4997 21.5285C16.6966 19.3215 14.8966 15.897 14.8966 12.0526Z" fill="#D32011"/>
<path d="M39.0004 12.0526C39.0004 18.7093 33.605 24.1055 26.9491 24.1055C24.1376 24.1055 21.5506 23.1422 19.5 21.5285C22.3038 19.3215 24.1038 15.897 24.1038 12.0526C24.1038 8.20811 22.3038 4.78358 19.5 2.57668C21.5506 0.962887 24.1376 -0.000335693 26.9491 -0.000335693C33.605 -0.000335693 39.0004 5.39585 39.0004 12.0526Z" fill="#0099DF"/>
<path d="M28.3407 26.8832C28.4809 26.8832 28.6825 26.9101 28.8365 26.9706L28.6219 27.6265C28.4748 27.566 28.3277 27.5461 28.1867 27.5461C27.7315 27.5461 27.5039 27.8403 27.5039 28.3691V30.1637H26.8074V26.9637H27.497V27.3522C27.6779 27.071 27.9392 26.8832 28.3407 26.8832ZM25.7675 27.5997H24.6296V29.0457C24.6296 29.3668 24.743 29.5813 25.0917 29.5813C25.2725 29.5813 25.5001 29.5208 25.707 29.4005L25.9078 29.9959C25.6871 30.1499 25.3392 30.2442 25.038 30.2442C24.2143 30.2442 23.9269 29.802 23.9269 29.0587V27.5997H23.2771V26.9637H23.9269V25.9928H24.6296V26.9637H25.7675V27.5997ZM16.8564 28.2825C16.9307 27.8204 17.2112 27.5055 17.707 27.5055C18.1553 27.5055 18.4434 27.7867 18.5169 28.2825H16.8564ZM19.2403 28.5637C19.2334 27.566 18.6173 26.8832 17.72 26.8832C16.7828 26.8832 16.1269 27.566 16.1269 28.5637C16.1269 29.5806 16.8097 30.2434 17.7675 30.2434C18.2495 30.2434 18.6909 30.1231 19.0794 29.7951L18.7376 29.2794C18.4702 29.494 18.1284 29.6143 17.8074 29.6143C17.3591 29.6143 16.9507 29.4066 16.8503 28.8311H19.2265C19.2334 28.7438 19.2403 28.6572 19.2403 28.5637ZM22.2993 27.7806C22.1055 27.6595 21.7108 27.5055 21.3024 27.5055C20.9208 27.5055 20.6932 27.6465 20.6932 27.8809C20.6932 28.0947 20.9338 28.1553 21.235 28.1951L21.5629 28.2419C22.2595 28.343 22.6809 28.6373 22.6809 29.1997C22.6809 29.8089 22.1453 30.2442 21.2219 30.2442C20.6993 30.2442 20.2173 30.1101 19.8357 29.8288L20.1637 29.2863C20.3982 29.4672 20.7468 29.6212 21.2288 29.6212C21.7039 29.6212 21.9583 29.4809 21.9583 29.2327C21.9583 29.0526 21.7775 28.9514 21.3959 28.8986L21.0679 28.8518C20.3514 28.7507 19.9629 28.4296 19.9629 27.9078C19.9629 27.2717 20.4855 26.8832 21.2955 26.8832C21.8043 26.8832 22.2664 26.9974 22.6005 27.2181L22.2993 27.7806ZM30.8856 27.5445C30.7423 27.5445 30.6097 27.5698 30.4863 27.6196C30.3637 27.6702 30.2572 27.7407 30.1675 27.8311C30.0779 27.9216 30.0074 28.0304 29.956 28.1568C29.9047 28.2832 29.8794 28.4227 29.8794 28.5744C29.8794 28.7269 29.9047 28.8656 29.956 28.9921C30.0074 29.1185 30.0779 29.2273 30.1675 29.3177C30.2572 29.4082 30.3637 29.4787 30.4863 29.5292C30.6097 29.5798 30.7423 29.6043 30.8856 29.6043C31.0288 29.6043 31.1622 29.5798 31.2848 29.5292C31.4082 29.4787 31.5154 29.4082 31.6051 29.3177C31.6963 29.2273 31.7668 29.1185 31.8189 28.9921C31.8702 28.8656 31.8955 28.7269 31.8955 28.5744C31.8955 28.4227 31.8702 28.2832 31.8189 28.1568C31.7668 28.0304 31.6963 27.9216 31.6051 27.8311C31.5154 27.7407 31.4082 27.6702 31.2848 27.6196C31.1622 27.5698 31.0288 27.5445 30.8856 27.5445ZM30.8856 26.8832C31.1338 26.8832 31.3637 26.9262 31.5752 27.0127C31.7867 27.0986 31.9698 27.2173 32.1239 27.3683C32.2787 27.5193 32.399 27.6978 32.4863 27.9032C32.5737 28.1093 32.6174 28.3331 32.6174 28.5744C32.6174 28.8158 32.5737 29.0396 32.4863 29.2457C32.399 29.4511 32.2787 29.6304 32.1239 29.7813C31.9698 29.9323 31.7867 30.0503 31.5752 30.1369C31.3637 30.2227 31.1338 30.2656 30.8856 30.2656C30.6373 30.2656 30.4074 30.2227 30.1959 30.1369C29.9844 30.0503 29.8028 29.9323 29.6495 29.7813C29.4963 29.6304 29.376 29.4511 29.2886 29.2457C29.2013 29.0396 29.1576 28.8158 29.1576 28.5744C29.1576 28.3331 29.2013 28.1093 29.2886 27.9032C29.376 27.6978 29.4963 27.5193 29.6495 27.3683C29.8028 27.2173 29.9844 27.0986 30.1959 27.0127C30.4074 26.9262 30.6373 26.8832 30.8856 26.8832ZM12.789 28.5637C12.789 28.0013 13.1575 27.5392 13.7598 27.5392C14.3353 27.5392 14.7238 27.9813 14.7238 28.5637C14.7238 29.1461 14.3353 29.5875 13.7598 29.5875C13.1575 29.5875 12.789 29.1262 12.789 28.5637ZM15.3798 28.5637V26.9637H14.684V27.3522C14.4625 27.0641 14.1284 26.8832 13.6733 26.8832C12.7759 26.8832 12.0732 27.5859 12.0732 28.5637C12.0732 29.5407 12.7759 30.2442 13.6733 30.2442C14.1284 30.2442 14.4625 30.0633 14.684 29.7752V30.1637H15.3798V28.5637ZM11.4572 30.1637V28.1553C11.4572 27.399 10.9752 26.8901 10.1989 26.8832C9.79048 26.8763 9.36826 27.0035 9.07401 27.4526C8.85332 27.0978 8.50466 26.8832 8.01577 26.8832C7.67477 26.8832 7.3399 26.9836 7.0786 27.3583V26.9637H6.38281V30.1637H7.0855V28.3898C7.0855 27.8342 7.39354 27.5392 7.86864 27.5392C8.33071 27.5392 8.56519 27.8403 8.56519 28.3829V30.1637H9.26788V28.3898C9.26788 27.8342 9.58972 27.5392 10.051 27.5392C10.5269 27.5392 10.7545 27.8403 10.7545 28.3829V30.1637H11.4572Z" fill="#110F0D"/>
</g>
<defs>
<clipPath id="clip0_770_408">
<rect width="39" height="30.3164" fill="white"/>
</clipPath>
</defs>
</svg>
