<svg width="40" height="31" viewBox="0 0 40 31" fill="none" xmlns="http://www.w3.org/2000/svg">
<path d="M38.2316 30.2588V30.3368H38.3044C38.318 30.337 38.3315 30.3336 38.3434 30.3269C38.3481 30.3235 38.3519 30.319 38.3545 30.3138C38.357 30.3086 38.3582 30.3028 38.358 30.297C38.3582 30.2913 38.357 30.2857 38.3545 30.2806C38.3519 30.2755 38.3481 30.2712 38.3434 30.268C38.3316 30.2609 38.318 30.2575 38.3044 30.258H38.2316V30.2588ZM38.3051 30.2036C38.3363 30.2017 38.3672 30.2107 38.3925 30.229C38.4026 30.2373 38.4107 30.2479 38.416 30.2599C38.4213 30.2718 38.4238 30.2849 38.4231 30.298C38.4236 30.3093 38.4216 30.3205 38.4174 30.331C38.4131 30.3415 38.4067 30.3509 38.3985 30.3587C38.379 30.3756 38.3545 30.3858 38.3287 30.3877L38.4262 30.4989H38.3512L38.2615 30.3885H38.2324V30.4989H38.1696V30.2038H38.3061L38.3051 30.2036ZM38.2856 30.6007C38.3186 30.601 38.3512 30.5943 38.3814 30.5812C38.4105 30.5686 38.4369 30.5507 38.4594 30.5283C38.4818 30.506 38.4998 30.4795 38.5122 30.4503C38.5378 30.3885 38.5378 30.3191 38.5122 30.2573C38.4996 30.2282 38.4817 30.2017 38.4594 30.1793C38.4369 30.1569 38.4105 30.139 38.3814 30.1264C38.351 30.114 38.3185 30.1077 38.2856 30.1081C38.2522 30.1078 38.2191 30.114 38.1881 30.1264C38.1584 30.1387 38.1313 30.1567 38.1084 30.1793C38.0739 30.2146 38.0506 30.2594 38.0413 30.3079C38.032 30.3565 38.0373 30.4067 38.0563 30.4523C38.0682 30.4815 38.0859 30.5081 38.1084 30.5303C38.1313 30.5528 38.1584 30.5708 38.1881 30.5831C38.2189 30.5963 38.2521 30.6029 38.2856 30.6026M38.2856 30.0371C38.3713 30.037 38.4536 30.0706 38.5148 30.1307C38.5442 30.1595 38.5677 30.1939 38.5838 30.2319C38.6005 30.2709 38.609 30.3128 38.609 30.3552C38.609 30.3976 38.6005 30.4396 38.5838 30.4786C38.5673 30.5163 38.5439 30.5507 38.5148 30.5798C38.4848 30.6085 38.45 30.6316 38.412 30.648C38.372 30.665 38.329 30.6736 38.2856 30.6734C38.2417 30.6737 38.1982 30.6651 38.1577 30.648C38.1192 30.632 38.0841 30.6088 38.0542 30.5798C38.025 30.5496 38.0019 30.5141 37.9861 30.4753C37.9694 30.4363 37.9609 30.3943 37.9609 30.3519C37.9609 30.3095 37.9694 30.2676 37.9861 30.2286C38.0022 30.1906 38.0257 30.1562 38.0551 30.1274C38.0847 30.0979 38.1199 30.0746 38.1587 30.0591C38.1992 30.0421 38.2427 30.0335 38.2866 30.0338M8.42723 28.8977C8.42723 28.3351 8.79578 27.873 9.39814 27.873C9.97378 27.873 10.3622 28.3153 10.3622 28.8977C10.3622 29.4802 9.97378 29.9224 9.39814 29.9224C8.79578 29.9224 8.42723 29.4603 8.42723 28.8977ZM11.0184 28.8977V27.2968H10.3224V27.6868C10.1017 27.3986 9.76688 27.2178 9.31156 27.2178C8.41456 27.2178 7.71061 27.9214 7.71061 28.8985C7.71061 29.8756 8.41417 30.5792 9.31156 30.5792C9.76669 30.5792 10.1017 30.3982 10.3224 30.1102V30.4989H11.0176V28.8977H11.0184ZM34.5338 28.8977C34.5338 28.3351 34.9024 27.873 35.5049 27.873C36.0812 27.873 36.469 28.3153 36.469 28.8977C36.469 29.4802 36.0812 29.9224 35.5049 29.9224C34.9026 29.9224 34.5338 29.4603 34.5338 28.8977ZM37.1258 28.8977V26.0117H36.4292V27.6868C36.2085 27.3986 35.8737 27.2178 35.4184 27.2178C34.5214 27.2178 33.8174 27.9214 33.8174 28.8985C33.8174 29.8756 34.521 30.5792 35.4184 30.5792C35.8737 30.5792 36.2085 30.3982 36.4292 30.1102V30.4989H37.1258V28.8977ZM19.6561 27.84C20.1046 27.84 20.3926 28.1212 20.4661 28.6163H18.8055C18.8798 28.1542 19.1604 27.84 19.6563 27.84M19.6702 27.216C18.7322 27.216 18.076 27.8985 18.076 28.8967C18.076 29.9144 18.7585 30.5774 19.7168 30.5774C20.1988 30.5774 20.6403 30.4571 21.0287 30.1289L20.6877 29.6132C20.4193 29.8277 20.0777 29.948 19.7565 29.948C19.308 29.948 18.8997 29.7403 18.7993 29.1641H21.1757C21.1826 29.0775 21.1896 28.9901 21.1896 28.8965C21.1826 27.8987 20.5656 27.2158 19.6698 27.2158M28.0723 28.8965C28.0723 28.334 28.4409 27.8718 29.0432 27.8718C29.6189 27.8718 30.0073 28.3141 30.0073 28.8965C30.0073 29.479 29.6189 29.9213 29.0432 29.9213C28.4409 29.9213 28.0721 29.4591 28.0721 28.8965M30.6633 28.8965V27.2968H29.9677V27.6868C29.7462 27.3986 29.4122 27.2178 28.9568 27.2178C28.0598 27.2178 27.3559 27.9214 27.3559 28.8985C27.3559 29.8756 28.0594 30.5792 28.9568 30.5792C29.4122 30.5792 29.7462 30.3982 29.9677 30.1102V30.4989H30.6635V28.8977L30.6633 28.8965ZM24.1421 28.8965C24.1421 29.8675 24.818 30.5773 25.8495 30.5773C26.3315 30.5773 26.6527 30.47 27 30.1956L26.6658 29.6331C26.4045 29.8209 26.1301 29.9213 25.8273 29.9213C25.2717 29.9144 24.8632 29.5127 24.8632 28.8965C24.8632 28.2803 25.2717 27.8788 25.8273 27.8718C26.1293 27.8718 26.4037 27.9722 26.6658 28.16L27 27.5975C26.6521 27.3231 26.331 27.2158 25.8495 27.2158C24.818 27.2158 24.1421 27.9254 24.1421 28.8965ZM33.114 27.2158C32.7125 27.2158 32.451 27.4036 32.2703 27.6848V27.2968H31.5806V30.4971H32.2773V28.7031C32.2773 28.1735 32.5049 27.8792 32.9598 27.8792C33.1088 27.8771 33.2567 27.9045 33.395 27.9598L33.6095 27.3038C33.4555 27.2431 33.2546 27.2164 33.1136 27.2164M14.4592 27.5512C14.1244 27.3305 13.663 27.2164 13.154 27.2164C12.3432 27.2164 11.8212 27.6051 11.8212 28.241C11.8212 28.7628 12.2098 29.0847 12.9255 29.1851L13.2543 29.2319C13.6359 29.2856 13.8161 29.386 13.8161 29.5668C13.8161 29.8142 13.5626 29.9554 13.0866 29.9554C12.6045 29.9554 12.2566 29.8013 12.0221 29.6206L11.695 30.1633C12.0767 30.4445 12.5587 30.5786 13.0807 30.5786C14.005 30.5786 14.5407 30.1434 14.5407 29.534C14.5407 28.9714 14.1191 28.6772 13.4225 28.5767L13.0946 28.5292C12.7933 28.4902 12.5519 28.4295 12.5519 28.215C12.5519 27.981 12.7794 27.8402 13.1612 27.8402C13.5698 27.8402 13.9652 27.9943 14.1591 28.1146L14.4603 27.552L14.4592 27.5512ZM23.4391 27.217C23.0376 27.217 22.7761 27.4048 22.5961 27.686V27.2968H21.9064V30.4971H22.6024V28.7031C22.6024 28.1735 22.8299 27.8792 23.2849 27.8792C23.4338 27.8771 23.5818 27.9045 23.7201 27.9598L23.9346 27.3038C23.7806 27.2431 23.5797 27.2164 23.4387 27.2164M17.5002 27.2968H16.3622V26.3259H15.6586V27.2968H15.0095V27.9329H15.6586V29.3928C15.6586 30.1354 15.9468 30.5776 16.7701 30.5776C17.0722 30.5776 17.42 30.484 17.6408 30.3302L17.4397 29.7343C17.2321 29.8546 17.0045 29.9152 16.8235 29.9152C16.4757 29.9152 16.3622 29.7007 16.3622 29.3796V27.9334H17.5002V27.2968ZM7.09519 30.4979V28.4894C7.09519 27.733 6.61315 27.224 5.83607 27.2172C5.42755 27.2104 5.00615 27.3375 4.71112 27.7866C4.49038 27.4317 4.1425 27.2172 3.65344 27.2172C3.3116 27.2172 2.97757 27.3176 2.71607 27.6924V27.2968H2.01953V30.4971H2.72153V28.7226C2.72153 28.1671 3.02963 27.8718 3.50543 27.8718C3.96758 27.8718 4.20139 28.1731 4.20139 28.7156V30.4967H4.90495V28.7222C4.90495 28.1667 5.22611 27.8714 5.68807 27.8714C6.16328 27.8714 6.39007 28.1727 6.39007 28.7152V30.4963L7.09519 30.4979Z" fill="#231F20"/>
<path d="M38.6281 19.8528V19.3848H38.5062L38.3652 19.7059L38.225 19.3848H38.1027V19.8528H38.1893V19.5002L38.3211 19.8044H38.4108L38.5427 19.4994V19.8528H38.6284H38.6281ZM37.8549 19.8528V19.4649H38.0109V19.3859H37.6123V19.4649H37.7683V19.8528H37.8541H37.8549Z" fill="#F79410"/>
<path d="M24.7763 21.8603H14.2295V2.90625H24.7765L24.7763 21.8603Z" fill="#FF5F00"/>
<path d="M14.898 12.3825C14.898 8.53764 16.6982 5.11266 19.5016 2.90545C17.3796 1.23225 14.755 0.324145 12.0528 0.328138C5.39604 0.328138 0 5.72496 0 12.3825C0 19.0399 5.39604 24.4368 12.0528 24.4368C14.7551 24.4408 17.3797 23.5327 19.5018 21.8595C16.6986 19.6526 14.898 16.2275 14.898 12.3825Z" fill="#EB001B"/>
<path d="M39.0047 12.3825C39.0047 19.0399 33.6086 24.4368 26.9519 24.4368C24.2493 24.4407 21.6244 23.5326 19.502 21.8595C22.3061 19.6522 24.1063 16.2275 24.1063 12.3825C24.1063 8.53744 22.3061 5.11266 19.502 2.90545C21.6243 1.2323 24.2492 0.324215 26.9517 0.328138C33.6084 0.328138 39.0045 5.72496 39.0045 12.3825" fill="#F79E1B"/>
</svg>
