<svg width="39" height="25" viewBox="0 0 39 25" fill="none" xmlns="http://www.w3.org/2000/svg">
<path d="M2 0H37C38.1046 0 39 0.89545 39 2V23C39 24.1046 38.1046 25 37 25H2C0.89545 25 0 24.1046 0 23V2C0 0.89545 0.89545 0 2 0Z" fill="#0E4595"/>
<path d="M14.6607 17.4354L16.3287 7.64737H18.9967L17.3275 17.4354H14.6607ZM26.9662 7.85837C26.4377 7.66007 25.6093 7.44727 24.5751 7.44727C21.9388 7.44727 20.0818 8.77477 20.0661 10.6774C20.0511 12.0839 21.3918 12.8685 22.4037 13.3367C23.4422 13.8165 23.7913 14.1224 23.7864 14.5509C23.7798 15.2069 22.9571 15.5067 22.1903 15.5067C21.1224 15.5067 20.5551 15.3583 19.6789 14.9929L19.3351 14.8374L18.9607 17.0285C19.5838 17.3017 20.7362 17.5384 21.9326 17.5507C24.7371 17.5507 26.5576 16.2384 26.5784 14.2066C26.5883 13.0931 25.8776 12.2458 24.3383 11.5472C23.4058 11.0944 22.8347 10.7922 22.8408 10.3338C22.8408 9.92692 23.3242 9.49182 24.3686 9.49182C25.2411 9.47832 25.8731 9.66857 26.3655 9.86682L26.6046 9.97982L26.9662 7.85837ZM33.8317 7.64722H31.7701C31.1314 7.64722 30.6535 7.82157 30.373 8.45892L26.4108 17.4289H29.2124C29.2124 17.4289 29.6704 16.2228 29.774 15.958C30.0802 15.958 32.8017 15.9622 33.1909 15.9622C33.2707 16.3049 33.5154 17.4289 33.5154 17.4289H35.9911L33.8317 7.64692V7.64722ZM30.5608 13.9677C30.7814 13.4038 31.6238 11.2316 31.6238 11.2316C31.608 11.2577 31.8427 10.6649 31.9775 10.2974L32.1577 11.1413C32.1577 11.1413 32.6687 13.4778 32.7754 13.9677H30.5608ZM12.3958 7.64722L9.7838 14.3222L9.50545 12.9657C9.0192 11.4021 7.5042 9.70797 5.81055 8.85982L8.19885 17.4198L11.0216 17.4166L15.2218 7.64712H12.3958" fill="white"/>
<path d="M7.34587 7.64669H3.04382L3.00977 7.85033C6.35667 8.66053 8.57127 10.6185 9.49077 12.9708L8.55527 8.47283C8.39377 7.85308 7.92542 7.66813 7.34597 7.64648" fill="#F2AE14"/>
</svg>
