<svg width="378" height="200" viewBox="0 0 378 200" fill="none" xmlns="http://www.w3.org/2000/svg">
<mask id="mask0_34_856" style="mask-type:luminance" maskUnits="userSpaceOnUse" x="0" y="0" width="378" height="200">
<path d="M362 0H16C7.16344 0 0 7.16344 0 16V184C0 192.837 7.16344 200 16 200H362C370.837 200 378 192.837 378 184V16C378 7.16344 370.837 0 362 0Z" fill="white"/>
</mask>
<g mask="url(#mask0_34_856)">
<path d="M362 0H16C7.16344 0 0 7.16344 0 16V184C0 192.837 7.16344 200 16 200H362C370.837 200 378 192.837 378 184V16C378 7.16344 370.837 0 362 0Z" fill="white"/>
<path d="M362 0H16C7.16344 0 0 7.16344 0 16V184C0 192.837 7.16344 200 16 200H362C370.837 200 378 192.837 378 184V16C378 7.16344 370.837 0 362 0Z" fill="#6366F1"/>
<path d="M121.299 153.734C135.4 181.261 124.704 214.911 97.4092 228.893C70.1139 242.876 36.5554 231.897 22.454 204.37C8.35266 176.844 24.5066 184.813 51.8018 170.83C79.097 156.847 107.198 126.208 121.299 153.734Z" fill="#312E81"/>
<path d="M21.7216 167.273L24.1506 174.381H24.2486L26.6776 167.273H28.1009L24.9602 176H23.4389L20.2983 167.273H21.7216ZM31.4237 176.132C30.7788 176.132 30.2234 175.994 29.7575 175.719C29.2944 175.44 28.9364 175.05 28.6836 174.547C28.4336 174.041 28.3086 173.449 28.3086 172.77C28.3086 172.099 28.4336 171.509 28.6836 170.997C28.9364 170.486 29.2887 170.087 29.7404 169.8C30.195 169.513 30.7262 169.369 31.3342 169.369C31.7035 169.369 32.0614 169.43 32.408 169.553C32.7546 169.675 33.0657 169.866 33.3413 170.128C33.6168 170.389 33.8342 170.729 33.9933 171.146C34.1523 171.561 34.2319 172.065 34.2319 172.659V173.111H29.0288V172.156H32.9833C32.9833 171.821 32.9151 171.524 32.7788 171.266C32.6424 171.004 32.4506 170.798 32.2035 170.648C31.9592 170.497 31.6722 170.422 31.3427 170.422C30.9847 170.422 30.6722 170.51 30.4052 170.686C30.141 170.859 29.9364 171.087 29.7915 171.368C29.6495 171.646 29.5785 171.949 29.5785 172.276V173.021C29.5785 173.459 29.6552 173.831 29.8086 174.138C29.9648 174.445 30.1822 174.679 30.4606 174.841C30.739 175 31.0643 175.08 31.4364 175.08C31.6779 175.08 31.8981 175.045 32.0969 174.977C32.2958 174.906 32.4677 174.801 32.6126 174.662C32.7575 174.523 32.8683 174.351 32.945 174.146L34.1509 174.364C34.0543 174.719 33.881 175.03 33.631 175.297C33.3839 175.561 33.0728 175.767 32.6978 175.915C32.3256 176.06 31.9009 176.132 31.4237 176.132ZM35.6456 176V169.455H36.8771V170.494H36.9453C37.0646 170.142 37.2749 169.865 37.576 169.663C37.88 169.459 38.2237 169.357 38.6072 169.357C38.6868 169.357 38.7805 169.359 38.8885 169.365C38.9993 169.371 39.0859 169.378 39.1484 169.386V170.605C39.0973 170.591 39.0064 170.575 38.8757 170.558C38.745 170.538 38.6143 170.528 38.4837 170.528C38.1825 170.528 37.9141 170.592 37.6783 170.72C37.4453 170.845 37.2607 171.02 37.1243 171.244C36.9879 171.466 36.9197 171.719 36.9197 172.003V176H35.6456ZM46.1839 176.132C45.5504 176.132 45.005 175.989 44.5476 175.702C44.093 175.412 43.7436 175.013 43.4993 174.504C43.255 173.996 43.1328 173.413 43.1328 172.757C43.1328 172.092 43.2578 171.506 43.5078 170.997C43.7578 170.486 44.1101 170.087 44.5646 169.8C45.0192 169.513 45.5547 169.369 46.1712 169.369C46.6683 169.369 47.1115 169.462 47.5007 169.646C47.8899 169.828 48.2038 170.084 48.4425 170.413C48.6839 170.743 48.8274 171.128 48.8729 171.568H47.6328C47.5646 171.261 47.4084 170.997 47.1641 170.776C46.9226 170.554 46.5987 170.443 46.1925 170.443C45.8374 170.443 45.5263 170.537 45.2592 170.724C44.995 170.909 44.7891 171.173 44.6413 171.517C44.4936 171.858 44.4197 172.261 44.4197 172.727C44.4197 173.205 44.4922 173.616 44.6371 173.963C44.782 174.31 44.9865 174.578 45.2507 174.768C45.5178 174.959 45.8317 175.054 46.1925 175.054C46.4339 175.054 46.6527 175.01 46.8487 174.922C47.0476 174.831 47.2138 174.702 47.3473 174.534C47.4837 174.366 47.5788 174.165 47.6328 173.929H48.8729C48.8274 174.352 48.6896 174.73 48.4595 175.062C48.2294 175.395 47.9212 175.656 47.5348 175.847C47.1513 176.037 46.701 176.132 46.1839 176.132ZM52.9925 176.132C52.3789 176.132 51.8434 175.991 51.386 175.71C50.9286 175.429 50.5735 175.036 50.3207 174.53C50.0678 174.024 49.9414 173.433 49.9414 172.757C49.9414 172.078 50.0678 171.484 50.3207 170.976C50.5735 170.467 50.9286 170.072 51.386 169.791C51.8434 169.51 52.3789 169.369 52.9925 169.369C53.6062 169.369 54.1417 169.51 54.5991 169.791C55.0565 170.072 55.4116 170.467 55.6644 170.976C55.9173 171.484 56.0437 172.078 56.0437 172.757C56.0437 173.433 55.9173 174.024 55.6644 174.53C55.4116 175.036 55.0565 175.429 54.5991 175.71C54.1417 175.991 53.6062 176.132 52.9925 176.132ZM52.9968 175.062C53.3945 175.062 53.7241 174.957 53.9854 174.747C54.2468 174.537 54.44 174.257 54.565 173.908C54.6928 173.558 54.7567 173.173 54.7567 172.753C54.7567 172.335 54.6928 171.952 54.565 171.602C54.44 171.25 54.2468 170.967 53.9854 170.754C53.7241 170.541 53.3945 170.435 52.9968 170.435C52.5962 170.435 52.2638 170.541 51.9996 170.754C51.7383 170.967 51.5437 171.25 51.4158 171.602C51.2908 171.952 51.2283 172.335 51.2283 172.753C51.2283 173.173 51.2908 173.558 51.4158 173.908C51.5437 174.257 51.7383 174.537 51.9996 174.747C52.2638 174.957 52.5962 175.062 52.9968 175.062ZM58.7401 172.114V176H57.4659V169.455H58.6889V170.52H58.7699C58.9205 170.173 59.1563 169.895 59.4773 169.685C59.8011 169.474 60.2088 169.369 60.7003 169.369C61.1463 169.369 61.5369 169.463 61.8722 169.651C62.2074 169.835 62.4673 170.111 62.652 170.477C62.8366 170.844 62.929 171.297 62.929 171.837V176H61.6548V171.99C61.6548 171.516 61.5313 171.145 61.2841 170.878C61.0369 170.608 60.6974 170.473 60.2656 170.473C59.9702 170.473 59.7074 170.537 59.4773 170.665C59.25 170.793 59.0696 170.98 58.9361 171.227C58.8054 171.472 58.7401 171.767 58.7401 172.114ZM67.0881 176.128C66.5597 176.128 66.0881 175.993 65.6733 175.723C65.2614 175.45 64.9375 175.062 64.7017 174.56C64.4688 174.054 64.3523 173.447 64.3523 172.74C64.3523 172.033 64.4702 171.428 64.706 170.925C64.9446 170.422 65.2713 170.037 65.6861 169.77C66.1009 169.503 66.571 169.369 67.0966 169.369C67.5028 169.369 67.8295 169.438 68.0767 169.574C68.3267 169.707 68.5199 169.864 68.6562 170.043C68.7955 170.222 68.9034 170.379 68.9801 170.516H69.0568V167.273H70.331V176H69.0866V174.982H68.9801C68.9034 175.121 68.7926 175.28 68.6477 175.459C68.5057 175.638 68.3097 175.794 68.0597 175.928C67.8097 176.061 67.4858 176.128 67.0881 176.128ZM67.3693 175.041C67.7358 175.041 68.0455 174.945 68.2983 174.751C68.554 174.555 68.7472 174.284 68.8778 173.938C69.0114 173.591 69.0781 173.187 69.0781 172.727C69.0781 172.273 69.0128 171.875 68.8821 171.534C68.7514 171.193 68.5597 170.928 68.3068 170.737C68.054 170.547 67.7415 170.452 67.3693 170.452C66.9858 170.452 66.6662 170.551 66.4105 170.75C66.1548 170.949 65.9616 171.22 65.831 171.564C65.7031 171.908 65.6392 172.295 65.6392 172.727C65.6392 173.165 65.7045 173.558 65.8352 173.908C65.9659 174.257 66.1591 174.534 66.4148 174.739C66.6733 174.94 66.9915 175.041 67.3693 175.041ZM72.1495 176V169.455H73.4237V176H72.1495ZM72.793 168.445C72.5714 168.445 72.381 168.371 72.2219 168.223C72.0657 168.072 71.9876 167.893 71.9876 167.686C71.9876 167.476 72.0657 167.297 72.2219 167.149C72.381 166.999 72.5714 166.923 72.793 166.923C73.0146 166.923 73.2035 166.999 73.3597 167.149C73.5188 167.297 73.5984 167.476 73.5984 167.686C73.5984 167.893 73.5188 168.072 73.3597 168.223C73.2035 168.371 73.0146 168.445 72.793 168.445ZM77.8949 176.132C77.2614 176.132 76.7159 175.989 76.2585 175.702C75.804 175.412 75.4545 175.013 75.2102 174.504C74.9659 173.996 74.8438 173.413 74.8438 172.757C74.8438 172.092 74.9688 171.506 75.2188 170.997C75.4688 170.486 75.821 170.087 76.2756 169.8C76.7301 169.513 77.2656 169.369 77.8821 169.369C78.3793 169.369 78.8224 169.462 79.2116 169.646C79.6009 169.828 79.9148 170.084 80.1534 170.413C80.3949 170.743 80.5384 171.128 80.5838 171.568H79.3438C79.2756 171.261 79.1193 170.997 78.875 170.776C78.6335 170.554 78.3097 170.443 77.9034 170.443C77.5483 170.443 77.2372 170.537 76.9702 170.724C76.706 170.909 76.5 171.173 76.3523 171.517C76.2045 171.858 76.1307 172.261 76.1307 172.727C76.1307 173.205 76.2031 173.616 76.348 173.963C76.4929 174.31 76.6974 174.578 76.9616 174.768C77.2287 174.959 77.5426 175.054 77.9034 175.054C78.1449 175.054 78.3636 175.01 78.5597 174.922C78.7585 174.831 78.9247 174.702 79.0582 174.534C79.1946 174.366 79.2898 174.165 79.3438 173.929H80.5838C80.5384 174.352 80.4006 174.73 80.1705 175.062C79.9403 175.395 79.6321 175.656 79.2457 175.847C78.8622 176.037 78.4119 176.132 77.8949 176.132ZM77.4347 175.966H78.2699L78.2017 176.315C78.4489 176.355 78.6648 176.455 78.8494 176.614C79.0341 176.773 79.1264 177.013 79.1264 177.334C79.1293 177.717 78.9631 178.028 78.6278 178.267C78.2955 178.506 77.8139 178.625 77.1832 178.625L77.1577 177.913C77.4531 177.913 77.6918 177.871 77.8736 177.786C78.0582 177.7 78.152 177.562 78.1548 177.372C78.1577 177.182 78.0866 177.048 77.9418 176.972C77.7997 176.895 77.5724 176.841 77.2599 176.81L77.4347 175.966ZM84.7035 176.132C84.0898 176.132 83.5543 175.991 83.0969 175.71C82.6396 175.429 82.2844 175.036 82.0316 174.53C81.7788 174.024 81.6523 173.433 81.6523 172.757C81.6523 172.078 81.7788 171.484 82.0316 170.976C82.2844 170.467 82.6396 170.072 83.0969 169.791C83.5543 169.51 84.0898 169.369 84.7035 169.369C85.3171 169.369 85.8526 169.51 86.31 169.791C86.7674 170.072 87.1225 170.467 87.3754 170.976C87.6282 171.484 87.7546 172.078 87.7546 172.757C87.7546 173.433 87.6282 174.024 87.3754 174.53C87.1225 175.036 86.7674 175.429 86.31 175.71C85.8526 175.991 85.3171 176.132 84.7035 176.132ZM84.7077 175.062C85.1055 175.062 85.435 174.957 85.6964 174.747C85.9577 174.537 86.1509 174.257 86.2759 173.908C86.4038 173.558 86.4677 173.173 86.4677 172.753C86.4677 172.335 86.4038 171.952 86.2759 171.602C86.1509 171.25 85.9577 170.967 85.6964 170.754C85.435 170.541 85.1055 170.435 84.7077 170.435C84.3072 170.435 83.9748 170.541 83.7106 170.754C83.4492 170.967 83.2546 171.25 83.1268 171.602C83.0018 171.952 82.9393 172.335 82.9393 172.753C82.9393 173.173 83.0018 173.558 83.1268 173.908C83.2546 174.257 83.4492 174.537 83.7106 174.747C83.9748 174.957 84.3072 175.062 84.7077 175.062ZM83.4208 168.662L82.5643 168.636C82.5643 168.165 82.6907 167.788 82.9435 167.507C83.1992 167.226 83.5146 167.085 83.8896 167.085C84.0629 167.085 84.2148 167.115 84.3455 167.175C84.4762 167.232 84.5984 167.298 84.712 167.375C84.8285 167.449 84.9435 167.516 85.0572 167.575C85.1737 167.632 85.3029 167.661 85.445 167.661C85.6097 167.661 85.7433 167.598 85.8455 167.473C85.9506 167.348 86.0032 167.193 86.0032 167.009L86.8427 167.064C86.8427 167.538 86.7148 167.912 86.4592 168.185C86.2035 168.455 85.8896 168.591 85.5174 168.594C85.3157 168.594 85.1481 168.565 85.0146 168.509C84.8839 168.449 84.7674 168.382 84.6651 168.308C84.5629 168.232 84.4577 168.163 84.3498 168.104C84.2418 168.044 84.1126 168.014 83.962 168.014C83.8029 168.014 83.6722 168.077 83.57 168.202C83.4705 168.324 83.4208 168.477 83.4208 168.662ZM91.9979 176.132C91.353 176.132 90.7976 175.994 90.3317 175.719C89.8686 175.44 89.5107 175.05 89.2578 174.547C89.0078 174.041 88.8828 173.449 88.8828 172.77C88.8828 172.099 89.0078 171.509 89.2578 170.997C89.5107 170.486 89.8629 170.087 90.3146 169.8C90.7692 169.513 91.3004 169.369 91.9084 169.369C92.2777 169.369 92.6357 169.43 92.9822 169.553C93.3288 169.675 93.6399 169.866 93.9155 170.128C94.1911 170.389 94.4084 170.729 94.5675 171.146C94.7266 171.561 94.8061 172.065 94.8061 172.659V173.111H89.603V172.156H93.5575C93.5575 171.821 93.4893 171.524 93.353 171.266C93.2166 171.004 93.0249 170.798 92.7777 170.648C92.5334 170.497 92.2464 170.422 91.9169 170.422C91.5589 170.422 91.2464 170.51 90.9794 170.686C90.7152 170.859 90.5107 171.087 90.3658 171.368C90.2237 171.646 90.1527 171.949 90.1527 172.276V173.021C90.1527 173.459 90.2294 173.831 90.3828 174.138C90.5391 174.445 90.7564 174.679 91.0348 174.841C91.3132 175 91.6385 175.08 92.0107 175.08C92.2521 175.08 92.4723 175.045 92.6712 174.977C92.87 174.906 93.0419 174.801 93.1868 174.662C93.3317 174.523 93.4425 174.351 93.5192 174.146L94.7251 174.364C94.6286 174.719 94.4553 175.03 94.2053 175.297C93.9581 175.561 93.647 175.767 93.272 175.915C92.8999 176.06 92.4751 176.132 91.9979 176.132ZM101.125 171.053L99.9698 171.257C99.9215 171.109 99.8448 170.969 99.7397 170.835C99.6374 170.702 99.4982 170.592 99.3221 170.507C99.146 170.422 98.9258 170.379 98.6616 170.379C98.3008 170.379 97.9996 170.46 97.7582 170.622C97.5167 170.781 97.396 170.987 97.396 171.24C97.396 171.459 97.4769 171.635 97.6388 171.768C97.8008 171.902 98.0621 172.011 98.4229 172.097L99.4627 172.335C100.065 172.474 100.514 172.689 100.809 172.979C101.105 173.268 101.252 173.645 101.252 174.108C101.252 174.5 101.139 174.849 100.912 175.156C100.687 175.46 100.373 175.699 99.9698 175.872C99.5692 176.045 99.1048 176.132 98.5763 176.132C97.8434 176.132 97.2454 175.976 96.7823 175.663C96.3192 175.348 96.0352 174.901 95.93 174.321L97.1616 174.134C97.2383 174.455 97.396 174.697 97.6346 174.862C97.8732 175.024 98.1843 175.105 98.5678 175.105C98.9854 175.105 99.3192 175.018 99.5692 174.845C99.8192 174.669 99.9442 174.455 99.9442 174.202C99.9442 173.997 99.8675 173.825 99.7141 173.686C99.5636 173.547 99.332 173.442 99.0195 173.371L97.9116 173.128C97.3008 172.989 96.8491 172.767 96.5565 172.463C96.2667 172.159 96.1218 171.774 96.1218 171.308C96.1218 170.922 96.2298 170.584 96.4457 170.294C96.6616 170.004 96.9599 169.778 97.3406 169.616C97.7212 169.452 98.1573 169.369 98.6488 169.369C99.3562 169.369 99.913 169.523 100.319 169.83C100.725 170.134 100.994 170.541 101.125 171.053Z" fill="white"/>
<path d="M21.0387 82V72.5455H24.4087C25.1443 72.5455 25.7537 72.6793 26.2369 72.9471C26.7201 73.2148 27.0817 73.5811 27.3217 74.0458C27.5618 74.5075 27.6818 75.0276 27.6818 75.6062C27.6818 76.1879 27.5603 76.7111 27.3171 77.1758C27.0771 77.6374 26.7139 78.0037 26.2276 78.2745C25.7444 78.5423 25.1366 78.6761 24.4041 78.6761H22.0866V77.4666H24.2749C24.7396 77.4666 25.1166 77.3866 25.4059 77.2266C25.6952 77.0634 25.9076 76.8419 26.043 76.5618C26.1784 76.2817 26.2461 75.9632 26.2461 75.6062C26.2461 75.2492 26.1784 74.9322 26.043 74.6552C25.9076 74.3782 25.6937 74.1612 25.4013 74.0043C25.112 73.8473 24.7304 73.7688 24.2564 73.7688H22.4652V82H21.0387ZM31.2434 82.157C30.7941 82.157 30.3878 82.0739 30.0247 81.9077C29.6615 81.7384 29.3738 81.4937 29.1614 81.1737C28.9521 80.8536 28.8475 80.4612 28.8475 79.9964C28.8475 79.5964 28.9244 79.267 29.0783 79.0085C29.2322 78.75 29.4399 78.5453 29.7015 78.3945C29.9631 78.2437 30.2555 78.1299 30.5787 78.0529C30.9018 77.976 31.2311 77.9175 31.5666 77.8775C31.9913 77.8282 32.336 77.7882 32.6007 77.7575C32.8654 77.7236 33.0577 77.6697 33.1777 77.5959C33.2978 77.522 33.3578 77.402 33.3578 77.2358V77.2035C33.3578 76.8003 33.2439 76.4879 33.0162 76.2663C32.7915 76.0447 32.456 75.9339 32.0098 75.9339C31.545 75.9339 31.1788 76.037 30.911 76.2433C30.6464 76.4464 30.4632 76.6726 30.3617 76.9219L29.0645 76.6264C29.2183 76.1955 29.443 75.8478 29.7385 75.5831C30.037 75.3153 30.3801 75.1214 30.7679 75.0014C31.1557 74.8783 31.5635 74.8168 31.9913 74.8168C32.2744 74.8168 32.5745 74.8506 32.8915 74.9183C33.2116 74.983 33.5101 75.103 33.7871 75.2784C34.0672 75.4538 34.2965 75.7047 34.475 76.0309C34.6535 76.354 34.7427 76.7741 34.7427 77.2912V82H33.3947V81.0305H33.3393C33.2501 81.209 33.1162 81.3845 32.9377 81.5568C32.7592 81.7292 32.5299 81.8723 32.2498 81.9862C31.9698 82.1 31.6343 82.157 31.2434 82.157ZM31.5435 81.049C31.9251 81.049 32.2514 80.9736 32.5222 80.8228C32.7961 80.672 33.0038 80.475 33.1454 80.2319C33.2901 79.9857 33.3624 79.7225 33.3624 79.4425V78.5284C33.3132 78.5777 33.2177 78.6238 33.0762 78.6669C32.9377 78.7069 32.7792 78.7423 32.6007 78.7731C32.4222 78.8008 32.2483 78.8269 32.079 78.8516C31.9097 78.8731 31.7682 78.8916 31.6543 78.907C31.3865 78.9408 31.1419 78.9978 30.9203 79.0778C30.7018 79.1578 30.5263 79.2732 30.394 79.424C30.2647 79.5717 30.2001 79.7687 30.2001 80.0149C30.2001 80.3565 30.3263 80.6151 30.5787 80.7905C30.831 80.9628 31.1526 81.049 31.5435 81.049ZM36.5812 82V74.9091H37.9154V76.0355H37.9893C38.1185 75.6539 38.3463 75.3538 38.6725 75.1353C39.0018 74.9137 39.3742 74.8029 39.7897 74.8029C39.8759 74.8029 39.9774 74.806 40.0944 74.8121C40.2144 74.8183 40.3083 74.826 40.376 74.8352V76.1555C40.3206 76.1402 40.2221 76.1232 40.0805 76.1048C39.939 76.0832 39.7974 76.0724 39.6558 76.0724C39.3296 76.0724 39.0387 76.1417 38.7833 76.2802C38.5309 76.4156 38.3309 76.6049 38.1831 76.848C38.0354 77.0881 37.9616 77.362 37.9616 77.6697V82H36.5812ZM43.5706 82.157C43.1212 82.157 42.715 82.0739 42.3518 81.9077C41.9887 81.7384 41.7009 81.4937 41.4885 81.1737C41.2793 80.8536 41.1746 80.4612 41.1746 79.9964C41.1746 79.5964 41.2516 79.267 41.4055 79.0085C41.5593 78.75 41.7671 78.5453 42.0287 78.3945C42.2903 78.2437 42.5827 78.1299 42.9058 78.0529C43.229 77.976 43.5583 77.9175 43.8937 77.8775C44.3184 77.8282 44.6631 77.7882 44.9278 77.7575C45.1925 77.7236 45.3849 77.6697 45.5049 77.5959C45.6249 77.522 45.6849 77.402 45.6849 77.2358V77.2035C45.6849 76.8003 45.5711 76.4879 45.3433 76.2663C45.1186 76.0447 44.7832 75.9339 44.3369 75.9339C43.8722 75.9339 43.5059 76.037 43.2382 76.2433C42.9735 76.4464 42.7904 76.6726 42.6888 76.9219L41.3916 76.6264C41.5455 76.1955 41.7702 75.8478 42.0656 75.5831C42.3641 75.3153 42.7073 75.1214 43.0951 75.0014C43.4829 74.8783 43.8907 74.8168 44.3184 74.8168C44.6016 74.8168 44.9017 74.8506 45.2187 74.9183C45.5387 74.983 45.8373 75.103 46.1143 75.2784C46.3943 75.4538 46.6236 75.7047 46.8021 76.0309C46.9806 76.354 47.0699 76.7741 47.0699 77.2912V82H45.7219V81.0305H45.6665C45.5772 81.209 45.4433 81.3845 45.2648 81.5568C45.0863 81.7292 44.857 81.8723 44.577 81.9862C44.2969 82.1 43.9614 82.157 43.5706 82.157ZM43.8706 81.049C44.2523 81.049 44.5785 80.9736 44.8493 80.8228C45.1233 80.672 45.331 80.475 45.4726 80.2319C45.6172 79.9857 45.6895 79.7225 45.6895 79.4425V78.5284C45.6403 78.5777 45.5449 78.6238 45.4033 78.6669C45.2648 78.7069 45.1063 78.7423 44.9278 78.7731C44.7493 78.8008 44.5754 78.8269 44.4062 78.8516C44.2369 78.8731 44.0953 78.8916 43.9814 78.907C43.7137 78.9408 43.469 78.9978 43.2474 79.0778C43.0289 79.1578 42.8535 79.2732 42.7211 79.424C42.5919 79.5717 42.5273 79.7687 42.5273 80.0149C42.5273 80.3565 42.6534 80.6151 42.9058 80.7905C43.1582 80.9628 43.4798 81.049 43.8706 81.049ZM57.6624 76.6403L56.4113 76.8619C56.359 76.7018 56.2759 76.5495 56.162 76.4048C56.0512 76.2602 55.9004 76.1417 55.7096 76.0494C55.5188 75.957 55.2803 75.9109 54.9941 75.9109C54.6032 75.9109 54.277 75.9986 54.0154 76.174C53.7538 76.3464 53.623 76.5695 53.623 76.8434C53.623 77.0804 53.7107 77.2712 53.8861 77.4158C54.0615 77.5605 54.3447 77.679 54.7355 77.7713L55.8619 78.0298C56.5144 78.1806 57.0007 78.413 57.3208 78.7269C57.6408 79.0408 57.8009 79.4486 57.8009 79.9503C57.8009 80.375 57.6778 80.7536 57.4316 81.0859C57.1884 81.4152 56.8483 81.6738 56.4113 81.8615C55.9774 82.0492 55.4742 82.1431 54.9017 82.1431C54.1077 82.1431 53.4598 81.9738 52.9582 81.6353C52.4565 81.2937 52.1488 80.8089 52.0349 80.1811L53.3691 79.978C53.4521 80.3258 53.623 80.5889 53.8815 80.7674C54.14 80.9428 54.477 81.0305 54.8925 81.0305C55.3449 81.0305 55.7065 80.9367 55.9774 80.7489C56.2482 80.5581 56.3836 80.3258 56.3836 80.0518C56.3836 79.8303 56.3005 79.6441 56.1343 79.4933C55.9712 79.3424 55.7204 79.2286 55.3818 79.1516L54.1816 78.8885C53.5199 78.7377 53.0305 78.4976 52.7135 78.1683C52.3996 77.839 52.2426 77.422 52.2426 76.9173C52.2426 76.4987 52.3596 76.1325 52.5935 75.8185C52.8274 75.5046 53.1505 75.2599 53.5629 75.0845C53.9753 74.906 54.4478 74.8168 54.9802 74.8168C55.7465 74.8168 56.3498 74.983 56.7899 75.3153C57.23 75.6446 57.5208 76.0863 57.6624 76.6403ZM63.8104 79.0593V74.9091H65.1953V82H63.8381V80.772H63.7642C63.6011 81.1506 63.3395 81.466 62.9794 81.7184C62.6224 81.9677 62.1777 82.0923 61.6452 82.0923C61.1897 82.0923 60.7866 81.9923 60.4357 81.7923C60.0879 81.5891 59.814 81.2891 59.614 80.892C59.417 80.495 59.3185 80.0041 59.3185 79.4194V74.9091H60.6989V79.2532C60.6989 79.7364 60.8327 80.1211 61.1005 80.4073C61.3683 80.6935 61.716 80.8366 62.1438 80.8366C62.4023 80.8366 62.6593 80.772 62.9148 80.6428C63.1733 80.5135 63.3872 80.3181 63.5565 80.0565C63.7288 79.7949 63.8134 79.4625 63.8104 79.0593ZM69.1135 82.157C68.6642 82.157 68.258 82.0739 67.8948 81.9077C67.5316 81.7384 67.2439 81.4937 67.0315 81.1737C66.8222 80.8536 66.7176 80.4612 66.7176 79.9964C66.7176 79.5964 66.7945 79.267 66.9484 79.0085C67.1023 78.75 67.31 78.5453 67.5716 78.3945C67.8332 78.2437 68.1256 78.1299 68.4488 78.0529C68.7719 77.976 69.1012 77.9175 69.4367 77.8775C69.8614 77.8282 70.2061 77.7882 70.4708 77.7575C70.7355 77.7236 70.9278 77.6697 71.0479 77.5959C71.1679 77.522 71.2279 77.402 71.2279 77.2358V77.2035C71.2279 76.8003 71.114 76.4879 70.8863 76.2663C70.6616 76.0447 70.3261 75.9339 69.8799 75.9339C69.4152 75.9339 69.0489 76.037 68.7812 76.2433C68.5165 76.4464 68.3334 76.6726 68.2318 76.9219L66.9346 76.6264C67.0885 76.1955 67.3131 75.8478 67.6086 75.5831C67.9071 75.3153 68.2503 75.1214 68.6381 75.0014C69.0258 74.8783 69.4336 74.8168 69.8614 74.8168C70.1446 74.8168 70.4446 74.8506 70.7616 74.9183C71.0817 74.983 71.3802 75.103 71.6572 75.2784C71.9373 75.4538 72.1666 75.7047 72.3451 76.0309C72.5236 76.354 72.6128 76.7741 72.6128 77.2912V82H71.2648V81.0305H71.2094C71.1202 81.209 70.9863 81.3845 70.8078 81.5568C70.6293 81.7292 70.4 81.8723 70.1199 81.9862C69.8399 82.1 69.5044 82.157 69.1135 82.157ZM69.4136 81.049C69.7952 81.049 70.1215 80.9736 70.3923 80.8228C70.6662 80.672 70.874 80.475 71.0155 80.2319C71.1602 79.9857 71.2325 79.7225 71.2325 79.4425V78.5284C71.1833 78.5777 71.0879 78.6238 70.9463 78.6669C70.8078 78.7069 70.6493 78.7423 70.4708 78.7731C70.2923 78.8008 70.1184 78.8269 69.9491 78.8516C69.7799 78.8731 69.6383 78.8916 69.5244 78.907C69.2567 78.9408 69.012 78.9978 68.7904 79.0778C68.5719 79.1578 68.3965 79.2732 68.2641 79.424C68.1349 79.5717 68.0702 79.7687 68.0702 80.0149C68.0702 80.3565 68.1964 80.6151 68.4488 80.7905C68.7011 80.9628 69.0228 81.049 69.4136 81.049ZM79.7649 76.6403L78.5138 76.8619C78.4615 76.7018 78.3784 76.5495 78.2646 76.4048C78.1538 76.2602 78.003 76.1417 77.8121 76.0494C77.6213 75.957 77.3828 75.9109 77.0966 75.9109C76.7057 75.9109 76.3795 75.9986 76.1179 76.174C75.8563 76.3464 75.7255 76.5695 75.7255 76.8434C75.7255 77.0804 75.8132 77.2712 75.9886 77.4158C76.1641 77.5605 76.4472 77.679 76.8381 77.7713L77.9645 78.0298C78.617 78.1806 79.1032 78.413 79.4233 78.7269C79.7434 79.0408 79.9034 79.4486 79.9034 79.9503C79.9034 80.375 79.7803 80.7536 79.5341 81.0859C79.291 81.4152 78.9509 81.6738 78.5138 81.8615C78.0799 82.0492 77.5767 82.1431 77.0043 82.1431C76.2102 82.1431 75.5624 81.9738 75.0607 81.6353C74.5591 81.2937 74.2513 80.8089 74.1374 80.1811L75.4716 79.978C75.5547 80.3258 75.7255 80.5889 75.984 80.7674C76.2425 80.9428 76.5795 81.0305 76.995 81.0305C77.4474 81.0305 77.8091 80.9367 78.0799 80.7489C78.3507 80.5581 78.4862 80.3258 78.4862 80.0518C78.4862 79.8303 78.4031 79.6441 78.2369 79.4933C78.0737 79.3424 77.8229 79.2286 77.4844 79.1516L76.2841 78.8885C75.6224 78.7377 75.133 78.4976 74.8161 78.1683C74.5021 77.839 74.3452 77.422 74.3452 76.9173C74.3452 76.4987 74.4621 76.1325 74.696 75.8185C74.9299 75.5046 75.2531 75.2599 75.6655 75.0845C76.0779 74.906 76.5503 74.8168 77.0827 74.8168C77.8491 74.8168 78.4523 74.983 78.8924 75.3153C79.3325 75.6446 79.6233 76.0863 79.7649 76.6403ZM87.8484 82.1431C87.1621 82.1431 86.5711 81.9877 86.0756 81.6768C85.5832 81.3629 85.2047 80.9305 84.94 80.3796C84.6753 79.8287 84.543 79.1978 84.543 78.4869C84.543 77.7667 84.6784 77.1312 84.9492 76.5803C85.2201 76.0263 85.6017 75.5939 86.0941 75.283C86.5865 74.9722 87.1667 74.8168 87.8345 74.8168C88.3731 74.8168 88.8532 74.9168 89.2749 75.1168C89.6965 75.3138 90.0366 75.5908 90.2951 75.9478C90.5567 76.3048 90.7121 76.7218 90.7614 77.1989H89.418C89.3441 76.8665 89.1748 76.5803 88.9102 76.3402C88.6486 76.1001 88.2977 75.9801 87.8576 75.9801C87.4729 75.9801 87.1359 76.0817 86.8466 76.2848C86.5604 76.4848 86.3372 76.7711 86.1772 77.1435C86.0172 77.5128 85.9371 77.9498 85.9371 78.4545C85.9371 78.9716 86.0156 79.4179 86.1726 79.7933C86.3295 80.1688 86.5511 80.4596 86.8374 80.6658C87.1267 80.872 87.4667 80.9751 87.8576 80.9751C88.1192 80.9751 88.3562 80.9274 88.5685 80.832C88.784 80.7335 88.964 80.5935 89.1087 80.4119C89.2564 80.2304 89.3595 80.0118 89.418 79.7564H90.7614C90.7121 80.215 90.5629 80.6243 90.3136 80.9844C90.0643 81.3445 89.7304 81.6276 89.3118 81.8338C88.8963 82.04 88.4085 82.1431 87.8484 82.1431ZM95.2243 82.1431C94.5596 82.1431 93.9794 81.9908 93.4839 81.6861C92.9884 81.3814 92.6037 80.9551 92.3298 80.4073C92.0559 79.8595 91.9189 79.2193 91.9189 78.4869C91.9189 77.7513 92.0559 77.1081 92.3298 76.5572C92.6037 76.0063 92.9884 75.5785 93.4839 75.2738C93.9794 74.9691 94.5596 74.8168 95.2243 74.8168C95.8891 74.8168 96.4693 74.9691 96.9648 75.2738C97.4603 75.5785 97.845 76.0063 98.1189 76.5572C98.3928 77.1081 98.5297 77.7513 98.5297 78.4869C98.5297 79.2193 98.3928 79.8595 98.1189 80.4073C97.845 80.9551 97.4603 81.3814 96.9648 81.6861C96.4693 81.9908 95.8891 82.1431 95.2243 82.1431ZM95.229 80.9844C95.6598 80.9844 96.0168 80.8705 96.3 80.6428C96.5831 80.415 96.7924 80.1119 96.9278 79.7333C97.0663 79.3548 97.1356 78.9377 97.1356 78.4822C97.1356 78.0298 97.0663 77.6143 96.9278 77.2358C96.7924 76.8542 96.5831 76.5479 96.3 76.3171C96.0168 76.0863 95.6598 75.9709 95.229 75.9709C94.795 75.9709 94.4349 76.0863 94.1487 76.3171C93.8656 76.5479 93.6547 76.8542 93.5162 77.2358C93.3808 77.6143 93.3131 78.0298 93.3131 78.4822C93.3131 78.9377 93.3808 79.3548 93.5162 79.7333C93.6547 80.1119 93.8656 80.415 94.1487 80.6428C94.4349 80.8705 94.795 80.9844 95.229 80.9844ZM100.07 82V74.9091H101.395V76.0632H101.483C101.631 75.6723 101.872 75.3677 102.208 75.1491C102.543 74.9276 102.945 74.8168 103.413 74.8168C103.887 74.8168 104.284 74.9276 104.604 75.1491C104.927 75.3707 105.166 75.6754 105.319 76.0632H105.393C105.563 75.6847 105.832 75.383 106.201 75.1584C106.57 74.9306 107.011 74.8168 107.521 74.8168C108.165 74.8168 108.689 75.0183 109.096 75.4215C109.505 75.8247 109.71 76.4325 109.71 77.245V82H108.329V77.3743C108.329 76.8942 108.199 76.5464 107.937 76.331C107.675 76.1155 107.363 76.0078 107 76.0078C106.55 76.0078 106.201 76.1463 105.952 76.4233C105.703 76.6972 105.578 77.0496 105.578 77.4805V82H104.202V77.2866C104.202 76.9019 104.082 76.5926 103.842 76.3587C103.602 76.1248 103.29 76.0078 102.905 76.0078C102.643 76.0078 102.402 76.0771 102.18 76.2156C101.962 76.351 101.785 76.5402 101.649 76.7834C101.517 77.0265 101.451 77.3081 101.451 77.6282V82H100.07ZM111.56 84.6591V74.9091H112.908V76.0586H113.023C113.103 75.9109 113.219 75.7401 113.369 75.5462C113.52 75.3523 113.729 75.183 113.997 75.0384C114.265 74.8906 114.619 74.8168 115.059 74.8168C115.631 74.8168 116.142 74.9614 116.592 75.2507C117.041 75.54 117.393 75.957 117.649 76.5018C117.907 77.0465 118.037 77.7021 118.037 78.4684C118.037 79.2347 117.909 79.8918 117.653 80.4396C117.398 80.9844 117.047 81.4045 116.601 81.6999C116.155 81.9923 115.645 82.1385 115.073 82.1385C114.642 82.1385 114.29 82.0662 114.016 81.9215C113.745 81.7769 113.533 81.6076 113.379 81.4137C113.225 81.2198 113.106 81.0475 113.023 80.8967H112.94V84.6591H111.56ZM112.912 78.4545C112.912 78.9531 112.985 79.3902 113.129 79.7656C113.274 80.1411 113.483 80.435 113.757 80.6474C114.031 80.8567 114.367 80.9613 114.764 80.9613C115.176 80.9613 115.521 80.852 115.798 80.6335C116.075 80.4119 116.284 80.1119 116.426 79.7333C116.57 79.3548 116.642 78.9285 116.642 78.4545C116.642 77.9867 116.572 77.5666 116.43 77.1942C116.292 76.8219 116.082 76.5279 115.802 76.3125C115.525 76.0971 115.179 75.9893 114.764 75.9893C114.363 75.9893 114.025 76.0924 113.748 76.2987C113.474 76.5049 113.266 76.7926 113.125 77.1619C112.983 77.5312 112.912 77.9621 112.912 78.4545ZM119.583 82V74.9091H120.917V76.0355H120.991C121.12 75.6539 121.348 75.3538 121.674 75.1353C122.004 74.9137 122.376 74.8029 122.792 74.8029C122.878 74.8029 122.979 74.806 123.096 74.8121C123.216 74.8183 123.31 74.826 123.378 74.8352V76.1555C123.323 76.1402 123.224 76.1232 123.082 76.1048C122.941 76.0832 122.799 76.0724 122.658 76.0724C122.332 76.0724 122.041 76.1417 121.785 76.2802C121.533 76.4156 121.333 76.6049 121.185 76.848C121.037 77.0881 120.964 77.362 120.964 77.6697V82H119.583ZM126.573 82.157C126.123 82.157 125.717 82.0739 125.354 81.9077C124.991 81.7384 124.703 81.4937 124.491 81.1737C124.281 80.8536 124.177 80.4612 124.177 79.9964C124.177 79.5964 124.254 79.267 124.407 79.0085C124.561 78.75 124.769 78.5453 125.031 78.3945C125.292 78.2437 125.585 78.1299 125.908 78.0529C126.231 77.976 126.56 77.9175 126.896 77.8775C127.32 77.8282 127.665 77.7882 127.93 77.7575C128.194 77.7236 128.387 77.6697 128.507 77.5959C128.627 77.522 128.687 77.402 128.687 77.2358V77.2035C128.687 76.8003 128.573 76.4879 128.345 76.2663C128.121 76.0447 127.785 75.9339 127.339 75.9339C126.874 75.9339 126.508 76.037 126.24 76.2433C125.975 76.4464 125.792 76.6726 125.691 76.9219L124.394 76.6264C124.547 76.1955 124.772 75.8478 125.068 75.5831C125.366 75.3153 125.709 75.1214 126.097 75.0014C126.485 74.8783 126.893 74.8168 127.32 74.8168C127.604 74.8168 127.904 74.8506 128.221 74.9183C128.541 74.983 128.839 75.103 129.116 75.2784C129.396 75.4538 129.626 75.7047 129.804 76.0309C129.983 76.354 130.072 76.7741 130.072 77.2912V82H128.724V81.0305H128.668C128.579 81.209 128.445 81.3845 128.267 81.5568C128.088 81.7292 127.859 81.8723 127.579 81.9862C127.299 82.1 126.963 82.157 126.573 82.157ZM126.873 81.049C127.254 81.049 127.58 80.9736 127.851 80.8228C128.125 80.672 128.333 80.475 128.475 80.2319C128.619 79.9857 128.691 79.7225 128.691 79.4425V78.5284C128.642 78.5777 128.547 78.6238 128.405 78.6669C128.267 78.7069 128.108 78.7423 127.93 78.7731C127.751 78.8008 127.577 78.8269 127.408 78.8516C127.239 78.8731 127.097 78.8916 126.983 78.907C126.716 78.9408 126.471 78.9978 126.249 79.0778C126.031 79.1578 125.855 79.2732 125.723 79.424C125.594 79.5717 125.529 79.7687 125.529 80.0149C125.529 80.3565 125.655 80.6151 125.908 80.7905C126.16 80.9628 126.482 81.049 126.873 81.049ZM137.224 76.6403L135.973 76.8619C135.921 76.7018 135.837 76.5495 135.724 76.4048C135.613 76.2602 135.462 76.1417 135.271 76.0494C135.08 75.957 134.842 75.9109 134.556 75.9109C134.165 75.9109 133.838 75.9986 133.577 76.174C133.315 76.3464 133.184 76.5695 133.184 76.8434C133.184 77.0804 133.272 77.2712 133.448 77.4158C133.623 77.5605 133.906 77.679 134.297 77.7713L135.423 78.0298C136.076 78.1806 136.562 78.413 136.882 78.7269C137.202 79.0408 137.362 79.4486 137.362 79.9503C137.362 80.375 137.239 80.7536 136.993 81.0859C136.75 81.4152 136.41 81.6738 135.973 81.8615C135.539 82.0492 135.036 82.1431 134.463 82.1431C133.669 82.1431 133.021 81.9738 132.52 81.6353C132.018 81.2937 131.71 80.8089 131.596 80.1811L132.931 79.978C133.014 80.3258 133.184 80.5889 133.443 80.7674C133.702 80.9428 134.039 81.0305 134.454 81.0305C134.906 81.0305 135.268 80.9367 135.539 80.7489C135.81 80.5581 135.945 80.3258 135.945 80.0518C135.945 79.8303 135.862 79.6441 135.696 79.4933C135.533 79.3424 135.282 79.2286 134.943 79.1516L133.743 78.8885C133.081 78.7377 132.592 78.4976 132.275 78.1683C131.961 77.839 131.804 77.422 131.804 76.9173C131.804 76.4987 131.921 76.1325 132.155 75.8185C132.389 75.5046 132.712 75.2599 133.124 75.0845C133.537 74.906 134.009 74.8168 134.542 74.8168C135.308 74.8168 135.911 74.983 136.351 75.3153C136.791 75.6446 137.082 76.0863 137.224 76.6403ZM145.377 82.1431C144.678 82.1431 144.076 81.9938 143.572 81.6953C143.07 81.3937 142.682 80.9705 142.408 80.4258C142.137 79.878 142.002 79.2363 142.002 78.5007C142.002 77.7744 142.137 77.1342 142.408 76.5803C142.682 76.0263 143.064 75.5939 143.553 75.283C144.046 74.9722 144.621 74.8168 145.28 74.8168C145.68 74.8168 146.068 74.8829 146.443 75.0153C146.818 75.1476 147.155 75.3554 147.454 75.6385C147.753 75.9216 147.988 76.2894 148.16 76.7418C148.333 77.1912 148.419 77.7375 148.419 78.3807V78.87H142.782V77.8359H147.066C147.066 77.4728 146.992 77.1512 146.845 76.8711C146.697 76.5879 146.489 76.3648 146.221 76.2017C145.957 76.0386 145.646 75.957 145.289 75.957C144.901 75.957 144.563 76.0524 144.273 76.2433C143.987 76.431 143.765 76.6772 143.608 76.9819C143.455 77.2835 143.378 77.6113 143.378 77.9652V78.7731C143.378 79.247 143.461 79.6502 143.627 79.9826C143.796 80.315 144.032 80.5689 144.333 80.7443C144.635 80.9167 144.987 81.0028 145.39 81.0028C145.652 81.0028 145.891 80.9659 146.106 80.892C146.321 80.8151 146.508 80.7012 146.665 80.5504C146.822 80.3996 146.942 80.2134 147.025 79.9918L148.331 80.2273C148.227 80.612 148.039 80.949 147.768 81.2383C147.5 81.5245 147.163 81.7476 146.757 81.9077C146.354 82.0646 145.894 82.1431 145.377 82.1431ZM149.95 82V74.9091H151.275V76.0632H151.363C151.511 75.6723 151.752 75.3677 152.088 75.1491C152.423 74.9276 152.825 74.8168 153.293 74.8168C153.767 74.8168 154.164 74.9276 154.484 75.1491C154.807 75.3707 155.045 75.6754 155.199 76.0632H155.273C155.442 75.6847 155.712 75.383 156.081 75.1584C156.45 74.9306 156.89 74.8168 157.401 74.8168C158.045 74.8168 158.569 75.0183 158.976 75.4215C159.385 75.8247 159.59 76.4325 159.59 77.245V82H158.209V77.3743C158.209 76.8942 158.078 76.5464 157.817 76.331C157.555 76.1155 157.243 76.0078 156.88 76.0078C156.43 76.0078 156.081 76.1463 155.832 76.4233C155.582 76.6972 155.458 77.0496 155.458 77.4805V82H154.082V77.2866C154.082 76.9019 153.962 76.5926 153.722 76.3587C153.482 76.1248 153.17 76.0078 152.785 76.0078C152.523 76.0078 152.282 76.0771 152.06 76.2156C151.842 76.351 151.665 76.5402 151.529 76.7834C151.397 77.0265 151.331 77.3081 151.331 77.6282V82H149.95ZM20.9279 98V90.9091H22.2528V92.0632H22.3406C22.4883 91.6723 22.7299 91.3677 23.0653 91.1491C23.4008 90.9276 23.8024 90.8168 24.2702 90.8168C24.7442 90.8168 25.1412 90.9276 25.4613 91.1491C25.7844 91.3707 26.023 91.6754 26.1768 92.0632H26.2507C26.42 91.6847 26.6893 91.383 27.0586 91.1584C27.4279 90.9306 27.868 90.8168 28.3789 90.8168C29.0221 90.8168 29.5469 91.0183 29.9531 91.4215C30.3625 91.8247 30.5671 92.4325 30.5671 93.245V98H29.1868V93.3743C29.1868 92.8942 29.056 92.5464 28.7944 92.331C28.5328 92.1155 28.2204 92.0078 27.8572 92.0078C27.4079 92.0078 27.0586 92.1463 26.8093 92.4233C26.56 92.6972 26.4354 93.0496 26.4354 93.4805V98H25.0597V93.2866C25.0597 92.9019 24.9396 92.5926 24.6996 92.3587C24.4595 92.1248 24.1471 92.0078 23.7624 92.0078C23.5008 92.0078 23.2592 92.0771 23.0376 92.2156C22.8191 92.351 22.6422 92.5402 22.5067 92.7834C22.3744 93.0265 22.3082 93.3081 22.3082 93.6282V98H20.9279ZM35.4733 98.1431C34.7747 98.1431 34.173 97.9938 33.6682 97.6953C33.1666 97.3937 32.7788 96.9705 32.5049 96.4258C32.234 95.878 32.0986 95.2363 32.0986 94.5007C32.0986 93.7744 32.234 93.1342 32.5049 92.5803C32.7788 92.0263 33.1604 91.5939 33.6498 91.283C34.1422 90.9722 34.7177 90.8168 35.3763 90.8168C35.7764 90.8168 36.1642 90.8829 36.5397 91.0153C36.9152 91.1476 37.2522 91.3554 37.5507 91.6385C37.8492 91.9216 38.0847 92.2894 38.257 92.7418C38.4294 93.1912 38.5155 93.7375 38.5155 94.3807V94.87H32.8788V93.8359H37.1629C37.1629 93.4728 37.089 93.1512 36.9413 92.8711C36.7936 92.5879 36.5858 92.3648 36.3181 92.2017C36.0534 92.0386 35.7426 91.957 35.3856 91.957C34.9978 91.957 34.6592 92.0524 34.3699 92.2433C34.0837 92.431 33.8621 92.6772 33.7052 92.9819C33.5513 93.2835 33.4743 93.6113 33.4743 93.9652V94.7731C33.4743 95.247 33.5574 95.6502 33.7236 95.9826C33.8929 96.315 34.1283 96.5689 34.43 96.7443C34.7316 96.9167 35.084 97.0028 35.4871 97.0028C35.7487 97.0028 35.9872 96.9659 36.2027 96.892C36.4181 96.8151 36.6043 96.7012 36.7613 96.5504C36.9182 96.3996 37.0383 96.2134 37.1214 95.9918L38.4278 96.2273C38.3232 96.612 38.1354 96.949 37.8646 97.2383C37.5969 97.5245 37.2599 97.7476 36.8536 97.9077C36.4504 98.0646 35.9903 98.1431 35.4733 98.1431ZM40.0471 98V90.9091H41.3812V92.0355H41.4551C41.5843 91.6539 41.8121 91.3538 42.1383 91.1353C42.4676 90.9137 42.84 90.8029 43.2555 90.8029C43.3417 90.8029 43.4432 90.806 43.5602 90.8121C43.6802 90.8183 43.7741 90.826 43.8418 90.8352V92.1555C43.7864 92.1402 43.6879 92.1232 43.5463 92.1048C43.4048 92.0832 43.2632 92.0724 43.1216 92.0724C42.7954 92.0724 42.5046 92.1417 42.2491 92.2802C41.9967 92.4156 41.7967 92.6049 41.649 92.848C41.5012 93.0881 41.4274 93.362 41.4274 93.6697V98H40.0471ZM47.7693 98.1431C47.0829 98.1431 46.492 97.9877 45.9965 97.6768C45.5041 97.3629 45.1256 96.9305 44.8609 96.3796C44.5962 95.8287 44.4639 95.1978 44.4639 94.4869C44.4639 93.7667 44.5993 93.1312 44.8701 92.5803C45.141 92.0263 45.5226 91.5939 46.015 91.283C46.5074 90.9722 47.0876 90.8168 47.7554 90.8168C48.294 90.8168 48.7741 90.9168 49.1958 91.1168C49.6174 91.3138 49.9575 91.5908 50.216 91.9478C50.4776 92.3048 50.633 92.7218 50.6823 93.1989H49.3389C49.265 92.8665 49.0957 92.5803 48.8311 92.3402C48.5695 92.1001 48.2186 91.9801 47.7785 91.9801C47.3938 91.9801 47.0568 92.0817 46.7675 92.2848C46.4813 92.4848 46.2581 92.7711 46.0981 93.1435C45.9381 93.5128 45.858 93.9498 45.858 94.4545C45.858 94.9716 45.9365 95.4179 46.0935 95.7933C46.2504 96.1688 46.472 96.4596 46.7583 96.6658C47.0476 96.872 47.3876 96.9751 47.7785 96.9751C48.0401 96.9751 48.2771 96.9274 48.4894 96.832C48.7049 96.7335 48.8849 96.5935 49.0296 96.4119C49.1773 96.2304 49.2804 96.0118 49.3389 95.7564H50.6823C50.633 96.215 50.4838 96.6243 50.2345 96.9844C49.9852 97.3445 49.6512 97.6276 49.2327 97.8338C48.8172 98.04 48.3294 98.1431 47.7693 98.1431ZM54.2219 98.157C53.7726 98.157 53.3664 98.0739 53.0032 97.9077C52.64 97.7384 52.3523 97.4937 52.1399 97.1737C51.9306 96.8536 51.826 96.4612 51.826 95.9964C51.826 95.5964 51.9029 95.267 52.0568 95.0085C52.2107 94.75 52.4184 94.5453 52.68 94.3945C52.9416 94.2437 53.234 94.1299 53.5572 94.0529C53.8803 93.976 54.2096 93.9175 54.5451 93.8775C54.9698 93.8282 55.3145 93.7882 55.5792 93.7575C55.8439 93.7236 56.0362 93.6697 56.1562 93.5959C56.2763 93.522 56.3363 93.402 56.3363 93.2358V93.2035C56.3363 92.8003 56.2224 92.4879 55.9947 92.2663C55.77 92.0447 55.4345 91.9339 54.9883 91.9339C54.5236 91.9339 54.1573 92.037 53.8896 92.2433C53.6249 92.4464 53.4418 92.6726 53.3402 92.9219L52.043 92.6264C52.1969 92.1955 52.4215 91.8478 52.717 91.5831C53.0155 91.3153 53.3587 91.1214 53.7464 91.0014C54.1342 90.8783 54.542 90.8168 54.9698 90.8168C55.253 90.8168 55.553 90.8506 55.87 90.9183C56.1901 90.983 56.4886 91.103 56.7656 91.2784C57.0457 91.4538 57.275 91.7047 57.4535 92.0309C57.632 92.354 57.7212 92.7741 57.7212 93.2912V98H56.3732V97.0305H56.3178C56.2286 97.209 56.0947 97.3845 55.9162 97.5568C55.7377 97.7292 55.5084 97.8723 55.2283 97.9862C54.9483 98.1 54.6128 98.157 54.2219 98.157ZM54.522 97.049C54.9036 97.049 55.2299 96.9736 55.5007 96.8228C55.7746 96.672 55.9824 96.475 56.1239 96.2319C56.2686 95.9857 56.3409 95.7225 56.3409 95.4425V94.5284C56.2917 94.5777 56.1963 94.6238 56.0547 94.6669C55.9162 94.7069 55.7577 94.7423 55.5792 94.7731C55.4007 94.8008 55.2268 94.8269 55.0575 94.8516C54.8883 94.8731 54.7467 94.8916 54.6328 94.907C54.3651 94.9408 54.1204 94.9978 53.8988 95.0778C53.6803 95.1578 53.5049 95.2732 53.3725 95.424C53.2433 95.5717 53.1786 95.7687 53.1786 96.0149C53.1786 96.3565 53.3048 96.6151 53.5572 96.7905C53.8095 96.9628 54.1312 97.049 54.522 97.049ZM62.2142 98.1385C61.6418 98.1385 61.1309 97.9923 60.6816 97.6999C60.2353 97.4045 59.8844 96.9844 59.629 96.4396C59.3766 95.8918 59.2504 95.2347 59.2504 94.4684C59.2504 93.7021 59.3782 93.0465 59.6336 92.5018C59.8921 91.957 60.2461 91.54 60.6954 91.2507C61.1447 90.9614 61.6541 90.8168 62.2235 90.8168C62.6636 90.8168 63.0175 90.8906 63.2852 91.0384C63.5561 91.183 63.7654 91.3523 63.9131 91.5462C64.0639 91.7401 64.1808 91.9109 64.2639 92.0586H64.347V88.5455H65.7274V98H64.3794V96.8967H64.2639C64.1808 97.0475 64.0608 97.2198 63.9039 97.4137C63.75 97.6076 63.5376 97.7769 63.2668 97.9215C62.9959 98.0662 62.6451 98.1385 62.2142 98.1385ZM62.5189 96.9613C62.9159 96.9613 63.2514 96.8567 63.5253 96.6474C63.8023 96.435 64.0116 96.1411 64.1531 95.7656C64.2978 95.3902 64.3701 94.9531 64.3701 94.4545C64.3701 93.9621 64.2993 93.5312 64.1578 93.1619C64.0162 92.7926 63.8084 92.5049 63.5345 92.2987C63.2606 92.0924 62.9221 91.9893 62.5189 91.9893C62.1034 91.9893 61.7572 92.0971 61.4802 92.3125C61.2032 92.5279 60.9939 92.8219 60.8524 93.1942C60.7139 93.5666 60.6446 93.9867 60.6446 94.4545C60.6446 94.9285 60.7154 95.3548 60.857 95.7333C60.9985 96.1119 61.2078 96.4119 61.4848 96.6335C61.7649 96.852 62.1096 96.9613 62.5189 96.9613ZM70.6843 98.1431C70.0195 98.1431 69.4394 97.9908 68.9439 97.6861C68.4484 97.3814 68.0637 96.9551 67.7898 96.4073C67.5159 95.8595 67.3789 95.2193 67.3789 94.4869C67.3789 93.7513 67.5159 93.1081 67.7898 92.5572C68.0637 92.0063 68.4484 91.5785 68.9439 91.2738C69.4394 90.9691 70.0195 90.8168 70.6843 90.8168C71.3491 90.8168 71.9292 90.9691 72.4247 91.2738C72.9202 91.5785 73.3049 92.0063 73.5788 92.5572C73.8527 93.1081 73.9897 93.7513 73.9897 94.4869C73.9897 95.2193 73.8527 95.8595 73.5788 96.4073C73.3049 96.9551 72.9202 97.3814 72.4247 97.6861C71.9292 97.9908 71.3491 98.1431 70.6843 98.1431ZM70.6889 96.9844C71.1198 96.9844 71.4768 96.8705 71.7599 96.6428C72.0431 96.415 72.2524 96.1119 72.3878 95.7333C72.5263 95.3548 72.5955 94.9377 72.5955 94.4822C72.5955 94.0298 72.5263 93.6143 72.3878 93.2358C72.2524 92.8542 72.0431 92.5479 71.7599 92.3171C71.4768 92.0863 71.1198 91.9709 70.6889 91.9709C70.255 91.9709 69.8949 92.0863 69.6087 92.3171C69.3255 92.5479 69.1147 92.8542 68.9762 93.2358C68.8408 93.6143 68.7731 94.0298 68.7731 94.4822C68.7731 94.9377 68.8408 95.3548 68.9762 95.7333C69.1147 96.1119 69.3255 96.415 69.6087 96.6428C69.8949 96.8705 70.255 96.9844 70.6889 96.9844ZM80.844 92.6403L79.593 92.8619C79.5406 92.7018 79.4575 92.5495 79.3437 92.4048C79.2329 92.2602 79.0821 92.1417 78.8912 92.0494C78.7004 91.957 78.4619 91.9109 78.1757 91.9109C77.7848 91.9109 77.4586 91.9986 77.197 92.174C76.9354 92.3464 76.8046 92.5695 76.8046 92.8434C76.8046 93.0804 76.8923 93.2712 77.0677 93.4158C77.2432 93.5605 77.5263 93.679 77.9172 93.7713L79.0436 94.0298C79.6961 94.1806 80.1823 94.413 80.5024 94.7269C80.8225 95.0408 80.9825 95.4486 80.9825 95.9503C80.9825 96.375 80.8594 96.7536 80.6132 97.0859C80.3701 97.4152 80.03 97.6738 79.593 97.8615C79.159 98.0492 78.6558 98.1431 78.0834 98.1431C77.2893 98.1431 76.6415 97.9738 76.1398 97.6353C75.6382 97.2937 75.3304 96.8089 75.2165 96.1811L76.5507 95.978C76.6338 96.3258 76.8046 96.5889 77.0631 96.7674C77.3216 96.9428 77.6586 97.0305 78.0741 97.0305C78.5265 97.0305 78.8882 96.9367 79.159 96.7489C79.4298 96.5581 79.5653 96.3258 79.5653 96.0518C79.5653 95.8303 79.4822 95.6441 79.316 95.4933C79.1528 95.3424 78.902 95.2286 78.5635 95.1516L77.3632 94.8885C76.7015 94.7377 76.2122 94.4976 75.8952 94.1683C75.5812 93.839 75.4243 93.422 75.4243 92.9173C75.4243 92.4987 75.5412 92.1325 75.7751 91.8185C76.009 91.5046 76.3322 91.2599 76.7446 91.0845C77.157 90.906 77.6294 90.8168 78.1618 90.8168C78.9282 90.8168 79.5314 90.983 79.9715 91.3153C80.4116 91.6446 80.7024 92.0863 80.844 92.6403ZM84.296 96.7074L84.2267 97.2106C84.1806 97.5799 84.1021 97.9646 83.9913 98.3647C83.8836 98.7679 83.7712 99.1418 83.6543 99.4865C83.5404 99.8312 83.4466 100.105 83.3727 100.308H82.394C82.434 100.117 82.4894 99.8589 82.5602 99.5327C82.631 99.2095 82.7002 98.8479 82.7679 98.4478C82.8356 98.0477 82.8864 97.6399 82.9203 97.2244L82.9664 96.7074H84.296ZM89.5334 100.659V90.9091H90.8814V92.0586H90.9968C91.0768 91.9109 91.1922 91.7401 91.343 91.5462C91.4938 91.3523 91.7031 91.183 91.9709 91.0384C92.2386 90.8906 92.5926 90.8168 93.0327 90.8168C93.6051 90.8168 94.116 90.9614 94.5653 91.2507C95.0147 91.54 95.3671 91.957 95.6225 92.5018C95.881 93.0465 96.0103 93.7021 96.0103 94.4684C96.0103 95.2347 95.8826 95.8918 95.6271 96.4396C95.3717 96.9844 95.0208 97.4045 94.5746 97.6999C94.1283 97.9923 93.619 98.1385 93.0465 98.1385C92.6156 98.1385 92.2633 98.0662 91.9893 97.9215C91.7185 97.7769 91.5062 97.6076 91.3523 97.4137C91.1984 97.2198 91.0799 97.0475 90.9968 96.8967H90.9137V100.659H89.5334ZM90.886 94.4545C90.886 94.9531 90.9583 95.3902 91.103 95.7656C91.2476 96.1411 91.4569 96.435 91.7308 96.6474C92.0047 96.8567 92.3402 96.9613 92.7372 96.9613C93.1496 96.9613 93.4943 96.852 93.7713 96.6335C94.0483 96.4119 94.2576 96.1119 94.3991 95.7333C94.5438 95.3548 94.6161 94.9285 94.6161 94.4545C94.6161 93.9867 94.5453 93.5666 94.4038 93.1942C94.2653 92.8219 94.056 92.5279 93.7759 92.3125C93.4989 92.0971 93.1527 91.9893 92.7372 91.9893C92.3371 91.9893 91.9986 92.0924 91.7216 92.2987C91.4477 92.5049 91.2399 92.7926 91.0984 93.1619C90.9568 93.5312 90.886 93.9621 90.886 94.4545ZM100.613 98.1431C99.9143 98.1431 99.3126 97.9938 98.8079 97.6953C98.3062 97.3937 97.9184 96.9705 97.6445 96.4258C97.3737 95.878 97.2383 95.2363 97.2383 94.5007C97.2383 93.7744 97.3737 93.1342 97.6445 92.5803C97.9184 92.0263 98.3001 91.5939 98.7894 91.283C99.2818 90.9722 99.8574 90.8168 100.516 90.8168C100.916 90.8168 101.304 90.8829 101.679 91.0153C102.055 91.1476 102.392 91.3554 102.69 91.6385C102.989 91.9216 103.224 92.2894 103.397 92.7418C103.569 93.1912 103.655 93.7375 103.655 94.3807V94.87H98.0185V93.8359H102.303C102.303 93.4728 102.229 93.1512 102.081 92.8711C101.933 92.5879 101.725 92.3648 101.458 92.2017C101.193 92.0386 100.882 91.957 100.525 91.957C100.137 91.957 99.7989 92.0524 99.5096 92.2433C99.2234 92.431 99.0018 92.6772 98.8448 92.9819C98.6909 93.2835 98.614 93.6113 98.614 93.9652V94.7731C98.614 95.247 98.6971 95.6502 98.8633 95.9826C99.0326 96.315 99.268 96.5689 99.5696 96.7443C99.8712 96.9167 100.224 97.0028 100.627 97.0028C100.888 97.0028 101.127 96.9659 101.342 96.892C101.558 96.8151 101.744 96.7012 101.901 96.5504C102.058 96.3996 102.178 96.2134 102.261 95.9918L103.567 96.2273C103.463 96.612 103.275 96.949 103.004 97.2383C102.737 97.5245 102.4 97.7476 101.993 97.9077C101.59 98.0646 101.13 98.1431 100.613 98.1431ZM108.497 90.9091V92.017H104.623V90.9091H108.497ZM105.662 89.2102H107.043V95.918C107.043 96.1857 107.083 96.3873 107.163 96.5227C107.243 96.6551 107.346 96.7459 107.472 96.7951C107.601 96.8413 107.741 96.8643 107.892 96.8643C108.003 96.8643 108.1 96.8567 108.183 96.8413C108.266 96.8259 108.331 96.8136 108.377 96.8043L108.626 97.9446C108.546 97.9754 108.432 98.0062 108.284 98.0369C108.137 98.0708 107.952 98.0893 107.73 98.0923C107.367 98.0985 107.029 98.0339 106.715 97.8984C106.401 97.763 106.147 97.5537 105.953 97.2706C105.759 96.9875 105.662 96.632 105.662 96.2042V89.2102ZM115.223 92.6403L113.972 92.8619C113.92 92.7018 113.836 92.5495 113.723 92.4048C113.612 92.2602 113.461 92.1417 113.27 92.0494C113.079 91.957 112.841 91.9109 112.555 91.9109C112.164 91.9109 111.838 91.9986 111.576 92.174C111.314 92.3464 111.184 92.5695 111.184 92.8434C111.184 93.0804 111.271 93.2712 111.447 93.4158C111.622 93.5605 111.905 93.679 112.296 93.7713L113.422 94.0298C114.075 94.1806 114.561 94.413 114.881 94.7269C115.201 95.0408 115.361 95.4486 115.361 95.9503C115.361 96.375 115.238 96.7536 114.992 97.0859C114.749 97.4152 114.409 97.6738 113.972 97.8615C113.538 98.0492 113.035 98.1431 112.462 98.1431C111.668 98.1431 111.02 97.9738 110.519 97.6353C110.017 97.2937 109.709 96.8089 109.595 96.1811L110.93 95.978C111.013 96.3258 111.184 96.5889 111.442 96.7674C111.701 96.9428 112.038 97.0305 112.453 97.0305C112.905 97.0305 113.267 96.9367 113.538 96.7489C113.809 96.5581 113.944 96.3258 113.944 96.0518C113.944 95.8303 113.861 95.6441 113.695 95.4933C113.532 95.3424 113.281 95.2286 112.942 95.1516L111.742 94.8885C111.08 94.7377 110.591 94.4976 110.274 94.1683C109.96 93.839 109.803 93.422 109.803 92.9173C109.803 92.4987 109.92 92.1325 110.154 91.8185C110.388 91.5046 110.711 91.2599 111.123 91.0845C111.536 90.906 112.008 90.8168 112.541 90.8168C113.307 90.8168 113.91 90.983 114.35 91.3153C114.791 91.6446 115.081 92.0863 115.223 92.6403ZM118.259 93.7898V98H116.879V88.5455H118.241V92.0632H118.329C118.495 91.6816 118.749 91.3784 119.09 91.1538C119.432 90.9291 119.878 90.8168 120.429 90.8168C120.915 90.8168 121.34 90.9168 121.703 91.1168C122.07 91.3169 122.353 91.6154 122.553 92.0124C122.756 92.4064 122.857 92.8988 122.857 93.4897V98H121.477V93.6559C121.477 93.1358 121.343 92.7326 121.075 92.4464C120.808 92.1571 120.435 92.0124 119.958 92.0124C119.632 92.0124 119.34 92.0817 119.081 92.2202C118.826 92.3587 118.624 92.5618 118.476 92.8295C118.332 93.0942 118.259 93.4143 118.259 93.7898ZM127.686 98.1431C127.021 98.1431 126.441 97.9908 125.946 97.6861C125.45 97.3814 125.066 96.9551 124.792 96.4073C124.518 95.8595 124.381 95.2193 124.381 94.4869C124.381 93.7513 124.518 93.1081 124.792 92.5572C125.066 92.0063 125.45 91.5785 125.946 91.2738C126.441 90.9691 127.021 90.8168 127.686 90.8168C128.351 90.8168 128.931 90.9691 129.427 91.2738C129.922 91.5785 130.307 92.0063 130.581 92.5572C130.855 93.1081 130.992 93.7513 130.992 94.4869C130.992 95.2193 130.855 95.8595 130.581 96.4073C130.307 96.9551 129.922 97.3814 129.427 97.6861C128.931 97.9908 128.351 98.1431 127.686 98.1431ZM127.691 96.9844C128.122 96.9844 128.479 96.8705 128.762 96.6428C129.045 96.415 129.254 96.1119 129.39 95.7333C129.528 95.3548 129.597 94.9377 129.597 94.4822C129.597 94.0298 129.528 93.6143 129.39 93.2358C129.254 92.8542 129.045 92.5479 128.762 92.3171C128.479 92.0863 128.122 91.9709 127.691 91.9709C127.257 91.9709 126.897 92.0863 126.611 92.3171C126.327 92.5479 126.117 92.8542 125.978 93.2358C125.843 93.6143 125.775 94.0298 125.775 94.4822C125.775 94.9377 125.843 95.3548 125.978 95.7333C126.117 96.1119 126.327 96.415 126.611 96.6428C126.897 96.8705 127.257 96.9844 127.691 96.9844ZM132.532 100.659V90.9091H133.88V92.0586H133.996C134.076 91.9109 134.191 91.7401 134.342 91.5462C134.493 91.3523 134.702 91.183 134.97 91.0384C135.238 90.8906 135.592 90.8168 136.032 90.8168C136.604 90.8168 137.115 90.9614 137.564 91.2507C138.014 91.54 138.366 91.957 138.622 92.5018C138.88 93.0465 139.009 93.7021 139.009 94.4684C139.009 95.2347 138.882 95.8918 138.626 96.4396C138.371 96.9844 138.02 97.4045 137.574 97.6999C137.127 97.9923 136.618 98.1385 136.046 98.1385C135.615 98.1385 135.262 98.0662 134.988 97.9215C134.718 97.7769 134.505 97.6076 134.351 97.4137C134.197 97.2198 134.079 97.0475 133.996 96.8967H133.913V100.659H132.532ZM133.885 94.4545C133.885 94.9531 133.957 95.3902 134.102 95.7656C134.247 96.1411 134.456 96.435 134.73 96.6474C135.004 96.8567 135.339 96.9613 135.736 96.9613C136.149 96.9613 136.493 96.852 136.77 96.6335C137.047 96.4119 137.257 96.1119 137.398 95.7333C137.543 95.3548 137.615 94.9285 137.615 94.4545C137.615 93.9867 137.544 93.5666 137.403 93.1942C137.264 92.8219 137.055 92.5279 136.775 92.3125C136.498 92.0971 136.152 91.9893 135.736 91.9893C135.336 91.9893 134.998 92.0924 134.721 92.2987C134.447 92.5049 134.239 92.7926 134.097 93.1619C133.956 93.5312 133.885 93.9621 133.885 94.4545ZM145.869 92.6403L144.618 92.8619C144.566 92.7018 144.483 92.5495 144.369 92.4048C144.258 92.2602 144.107 92.1417 143.917 92.0494C143.726 91.957 143.487 91.9109 143.201 91.9109C142.81 91.9109 142.484 91.9986 142.222 92.174C141.961 92.3464 141.83 92.5695 141.83 92.8434C141.83 93.0804 141.918 93.2712 142.093 93.4158C142.269 93.5605 142.552 93.679 142.943 93.7713L144.069 94.0298C144.721 94.1806 145.208 94.413 145.528 94.7269C145.848 95.0408 146.008 95.4486 146.008 95.9503C146.008 96.375 145.885 96.7536 145.639 97.0859C145.395 97.4152 145.055 97.6738 144.618 97.8615C144.184 98.0492 143.681 98.1431 143.109 98.1431C142.315 98.1431 141.667 97.9738 141.165 97.6353C140.664 97.2937 140.356 96.8089 140.242 96.1811L141.576 95.978C141.659 96.3258 141.83 96.5889 142.089 96.7674C142.347 96.9428 142.684 97.0305 143.1 97.0305C143.552 97.0305 143.914 96.9367 144.184 96.7489C144.455 96.5581 144.591 96.3258 144.591 96.0518C144.591 95.8303 144.508 95.6441 144.341 95.4933C144.178 95.3424 143.927 95.2286 143.589 95.1516L142.389 94.8885C141.727 94.7377 141.238 94.4976 140.921 94.1683C140.607 93.839 140.45 93.422 140.45 92.9173C140.45 92.4987 140.567 92.1325 140.801 91.8185C141.034 91.5046 141.358 91.2599 141.77 91.0845C142.182 90.906 142.655 90.8168 143.187 90.8168C143.954 90.8168 144.557 90.983 144.997 91.3153C145.437 91.6446 145.728 92.0863 145.869 92.6403ZM149.321 96.7074L149.252 97.2106C149.206 97.5799 149.127 97.9646 149.017 98.3647C148.909 98.7679 148.797 99.1418 148.68 99.4865C148.566 99.8312 148.472 100.105 148.398 100.308H147.419C147.459 100.117 147.515 99.8589 147.586 99.5327C147.656 99.2095 147.726 98.8479 147.793 98.4478C147.861 98.0477 147.912 97.6399 147.946 97.2244L147.992 96.7074H149.321ZM20.9279 114V106.909H22.2621V108.036H22.3359C22.4652 107.654 22.6929 107.354 23.0192 107.135C23.3485 106.914 23.7209 106.803 24.1364 106.803C24.2225 106.803 24.3241 106.806 24.4411 106.812C24.5611 106.818 24.6549 106.826 24.7227 106.835V108.156C24.6673 108.14 24.5688 108.123 24.4272 108.105C24.2856 108.083 24.1441 108.072 24.0025 108.072C23.6763 108.072 23.3854 108.142 23.13 108.28C22.8776 108.416 22.6776 108.605 22.5298 108.848C22.3821 109.088 22.3082 109.362 22.3082 109.67V114H20.9279ZM28.7194 114.143C28.0207 114.143 27.4191 113.994 26.9143 113.695C26.4127 113.394 26.0249 112.971 25.751 112.426C25.4801 111.878 25.3447 111.236 25.3447 110.501C25.3447 109.774 25.4801 109.134 25.751 108.58C26.0249 108.026 26.4065 107.594 26.8959 107.283C27.3883 106.972 27.9638 106.817 28.6224 106.817C29.0225 106.817 29.4103 106.883 29.7858 107.015C30.1613 107.148 30.4983 107.355 30.7968 107.638C31.0953 107.922 31.3308 108.289 31.5031 108.742C31.6755 109.191 31.7616 109.737 31.7616 110.381V110.87H26.1249V109.836H30.409C30.409 109.473 30.3351 109.151 30.1874 108.871C30.0397 108.588 29.8319 108.365 29.5642 108.202C29.2995 108.039 28.9887 107.957 28.6317 107.957C28.2439 107.957 27.9053 108.052 27.616 108.243C27.3298 108.431 27.1082 108.677 26.9513 108.982C26.7974 109.283 26.7204 109.611 26.7204 109.965V110.773C26.7204 111.247 26.8035 111.65 26.9697 111.983C27.139 112.315 27.3744 112.569 27.676 112.744C27.9777 112.917 28.33 113.003 28.7332 113.003C28.9948 113.003 29.2333 112.966 29.4488 112.892C29.6642 112.815 29.8504 112.701 30.0074 112.55C30.1643 112.4 30.2844 112.213 30.3675 111.992L31.6739 112.227C31.5693 112.612 31.3815 112.949 31.1107 113.238C30.843 113.525 30.5059 113.748 30.0997 113.908C29.6965 114.065 29.2364 114.143 28.7194 114.143ZM38.6067 108.64L37.3556 108.862C37.3033 108.702 37.2202 108.549 37.1064 108.405C36.9956 108.26 36.8448 108.142 36.6539 108.049C36.4631 107.957 36.2246 107.911 35.9384 107.911C35.5475 107.911 35.2213 107.999 34.9597 108.174C34.6981 108.346 34.5673 108.569 34.5673 108.843C34.5673 109.08 34.655 109.271 34.8304 109.416C35.0059 109.56 35.289 109.679 35.6799 109.771L36.8063 110.03C37.4587 110.181 37.945 110.413 38.2651 110.727C38.5852 111.041 38.7452 111.449 38.7452 111.95C38.7452 112.375 38.6221 112.754 38.3759 113.086C38.1328 113.415 37.7927 113.674 37.3556 113.862C36.9217 114.049 36.4185 114.143 35.8461 114.143C35.052 114.143 34.4042 113.974 33.9025 113.635C33.4009 113.294 33.0931 112.809 32.9792 112.181L34.3134 111.978C34.3965 112.326 34.5673 112.589 34.8258 112.767C35.0843 112.943 35.4213 113.031 35.8368 113.031C36.2892 113.031 36.6509 112.937 36.9217 112.749C37.1925 112.558 37.3279 112.326 37.3279 112.052C37.3279 111.83 37.2449 111.644 37.0787 111.493C36.9155 111.342 36.6647 111.229 36.3262 111.152L35.1259 110.888C34.4642 110.738 33.9748 110.498 33.6578 110.168C33.3439 109.839 33.187 109.422 33.187 108.917C33.187 108.499 33.3039 108.132 33.5378 107.819C33.7717 107.505 34.0949 107.26 34.5073 107.085C34.9197 106.906 35.3921 106.817 35.9245 106.817C36.6909 106.817 37.2941 106.983 37.7342 107.315C38.1743 107.645 38.4651 108.086 38.6067 108.64ZM43.5729 106.909V108.017H39.6997V106.909H43.5729ZM40.7384 105.21H42.1187V111.918C42.1187 112.186 42.1587 112.387 42.2387 112.523C42.3187 112.655 42.4218 112.746 42.548 112.795C42.6773 112.841 42.8173 112.864 42.9681 112.864C43.0789 112.864 43.1759 112.857 43.259 112.841C43.3421 112.826 43.4067 112.814 43.4529 112.804L43.7021 113.945C43.6221 113.975 43.5083 114.006 43.3605 114.037C43.2128 114.071 43.0281 114.089 42.8066 114.092C42.4434 114.098 42.1048 114.034 41.7909 113.898C41.477 113.763 41.2231 113.554 41.0292 113.271C40.8353 112.987 40.7384 112.632 40.7384 112.204V105.21ZM47.1634 114.157C46.714 114.157 46.3078 114.074 45.9446 113.908C45.5814 113.738 45.2937 113.494 45.0813 113.174C44.872 112.854 44.7674 112.461 44.7674 111.996C44.7674 111.596 44.8443 111.267 44.9982 111.009C45.1521 110.75 45.3598 110.545 45.6214 110.395C45.883 110.244 46.1754 110.13 46.4986 110.053C46.8217 109.976 47.151 109.917 47.4865 109.877C47.9112 109.828 48.2559 109.788 48.5206 109.757C48.7853 109.724 48.9776 109.67 49.0977 109.596C49.2177 109.522 49.2777 109.402 49.2777 109.236V109.203C49.2777 108.8 49.1638 108.488 48.9361 108.266C48.7114 108.045 48.3759 107.934 47.9297 107.934C47.465 107.934 47.0987 108.037 46.831 108.243C46.5663 108.446 46.3832 108.673 46.2816 108.922L44.9844 108.626C45.1383 108.196 45.3629 107.848 45.6584 107.583C45.9569 107.315 46.3001 107.121 46.6879 107.001C47.0756 106.878 47.4834 106.817 47.9112 106.817C48.1944 106.817 48.4944 106.851 48.8114 106.918C49.1315 106.983 49.43 107.103 49.707 107.278C49.9871 107.454 50.2164 107.705 50.3949 108.031C50.5734 108.354 50.6626 108.774 50.6626 109.291V114H49.3146V113.031H49.2592C49.17 113.209 49.0361 113.384 48.8576 113.557C48.6791 113.729 48.4498 113.872 48.1697 113.986C47.8897 114.1 47.5542 114.157 47.1634 114.157ZM47.4634 113.049C47.8451 113.049 48.1713 112.974 48.4421 112.823C48.716 112.672 48.9238 112.475 49.0653 112.232C49.21 111.986 49.2823 111.723 49.2823 111.442V110.528C49.2331 110.578 49.1377 110.624 48.9961 110.667C48.8576 110.707 48.6991 110.742 48.5206 110.773C48.3421 110.801 48.1682 110.827 47.9989 110.852C47.8297 110.873 47.6881 110.892 47.5742 110.907C47.3065 110.941 47.0618 110.998 46.8402 111.078C46.6217 111.158 46.4463 111.273 46.3139 111.424C46.1847 111.572 46.12 111.769 46.12 112.015C46.12 112.357 46.2462 112.615 46.4986 112.79C46.7509 112.963 47.0726 113.049 47.4634 113.049ZM56.993 111.059V106.909H58.3779V114H57.0207V112.772H56.9468C56.7837 113.151 56.5221 113.466 56.162 113.718C55.805 113.968 55.3603 114.092 54.8279 114.092C54.3724 114.092 53.9692 113.992 53.6183 113.792C53.2706 113.589 52.9967 113.289 52.7966 112.892C52.5996 112.495 52.5012 112.004 52.5012 111.419V106.909H53.8815V111.253C53.8815 111.736 54.0154 112.121 54.2831 112.407C54.5509 112.694 54.8986 112.837 55.3264 112.837C55.585 112.837 55.8419 112.772 56.0974 112.643C56.3559 112.513 56.5698 112.318 56.7391 112.056C56.9114 111.795 56.9961 111.462 56.993 111.059ZM60.2326 114V106.909H61.5668V108.036H61.6406C61.7699 107.654 61.9976 107.354 62.3239 107.135C62.6532 106.914 63.0256 106.803 63.4411 106.803C63.5272 106.803 63.6288 106.806 63.7457 106.812C63.8658 106.818 63.9596 106.826 64.0273 106.835V108.156C63.9719 108.14 63.8735 108.123 63.7319 108.105C63.5903 108.083 63.4487 108.072 63.3072 108.072C62.9809 108.072 62.6901 108.142 62.4347 108.28C62.1823 108.416 61.9822 108.605 61.8345 108.848C61.6868 109.088 61.6129 109.362 61.6129 109.67V114H60.2326ZM67.2219 114.157C66.7726 114.157 66.3664 114.074 66.0032 113.908C65.64 113.738 65.3523 113.494 65.1399 113.174C64.9306 112.854 64.826 112.461 64.826 111.996C64.826 111.596 64.9029 111.267 65.0568 111.009C65.2107 110.75 65.4184 110.545 65.68 110.395C65.9416 110.244 66.234 110.13 66.5572 110.053C66.8803 109.976 67.2096 109.917 67.5451 109.877C67.9698 109.828 68.3145 109.788 68.5792 109.757C68.8439 109.724 69.0362 109.67 69.1562 109.596C69.2763 109.522 69.3363 109.402 69.3363 109.236V109.203C69.3363 108.8 69.2224 108.488 68.9947 108.266C68.77 108.045 68.4345 107.934 67.9883 107.934C67.5236 107.934 67.1573 108.037 66.8896 108.243C66.6249 108.446 66.4418 108.673 66.3402 108.922L65.043 108.626C65.1969 108.196 65.4215 107.848 65.717 107.583C66.0155 107.315 66.3587 107.121 66.7464 107.001C67.1342 106.878 67.542 106.817 67.9698 106.817C68.253 106.817 68.553 106.851 68.87 106.918C69.1901 106.983 69.4886 107.103 69.7656 107.278C70.0457 107.454 70.275 107.705 70.4535 108.031C70.632 108.354 70.7212 108.774 70.7212 109.291V114H69.3732V113.031H69.3178C69.2286 113.209 69.0947 113.384 68.9162 113.557C68.7377 113.729 68.5084 113.872 68.2283 113.986C67.9483 114.1 67.6128 114.157 67.2219 114.157ZM67.522 113.049C67.9036 113.049 68.2299 112.974 68.5007 112.823C68.7746 112.672 68.9824 112.475 69.1239 112.232C69.2686 111.986 69.3409 111.723 69.3409 111.442V110.528C69.2917 110.578 69.1963 110.624 69.0547 110.667C68.9162 110.707 68.7577 110.742 68.5792 110.773C68.4007 110.801 68.2268 110.827 68.0575 110.852C67.8883 110.873 67.7467 110.892 67.6328 110.907C67.3651 110.941 67.1204 110.998 66.8988 111.078C66.6803 111.158 66.5049 111.273 66.3725 111.424C66.2433 111.572 66.1786 111.769 66.1786 112.015C66.1786 112.357 66.3048 112.615 66.5572 112.79C66.8095 112.963 67.1312 113.049 67.522 113.049ZM73.9401 109.79V114H72.5597V106.909H73.8847V108.063H73.9724C74.1355 107.688 74.391 107.386 74.7387 107.158C75.0896 106.931 75.5312 106.817 76.0637 106.817C76.5468 106.817 76.97 106.918 77.3332 107.121C77.6963 107.321 77.978 107.62 78.178 108.017C78.378 108.414 78.4781 108.905 78.4781 109.49V114H77.0977V109.656C77.0977 109.142 76.9639 108.74 76.6961 108.451C76.4284 108.159 76.0606 108.012 75.5928 108.012C75.2727 108.012 74.988 108.082 74.7387 108.22C74.4925 108.359 74.2971 108.562 74.1524 108.83C74.0109 109.094 73.9401 109.414 73.9401 109.79ZM83.6393 106.909V108.017H79.7661V106.909H83.6393ZM80.8048 105.21H82.1851V111.918C82.1851 112.186 82.2251 112.387 82.3051 112.523C82.3852 112.655 82.4883 112.746 82.6144 112.795C82.7437 112.841 82.8837 112.864 83.0345 112.864C83.1453 112.864 83.2423 112.857 83.3254 112.841C83.4085 112.826 83.4731 112.814 83.5193 112.804L83.7686 113.945C83.6885 113.975 83.5747 114.006 83.4269 114.037C83.2792 114.071 83.0945 114.089 82.873 114.092C82.5098 114.098 82.1713 114.034 81.8573 113.898C81.5434 113.763 81.2895 113.554 81.0956 113.271C80.9017 112.987 80.8048 112.632 80.8048 112.204V105.21ZM88.1461 114.143C87.4475 114.143 86.8458 113.994 86.3411 113.695C85.8394 113.394 85.4516 112.971 85.1777 112.426C84.9069 111.878 84.7715 111.236 84.7715 110.501C84.7715 109.774 84.9069 109.134 85.1777 108.58C85.4516 108.026 85.8333 107.594 86.3226 107.283C86.815 106.972 87.3906 106.817 88.0492 106.817C88.4493 106.817 88.8371 106.883 89.2125 107.015C89.588 107.148 89.925 107.355 90.2235 107.638C90.5221 107.922 90.7575 108.289 90.9299 108.742C91.1022 109.191 91.1884 109.737 91.1884 110.381V110.87H85.5517V109.836H89.8358C89.8358 109.473 89.7619 109.151 89.6142 108.871C89.4664 108.588 89.2587 108.365 88.9909 108.202C88.7263 108.039 88.4154 107.957 88.0584 107.957C87.6706 107.957 87.3321 108.052 87.0428 108.243C86.7566 108.431 86.535 108.677 86.378 108.982C86.2241 109.283 86.1472 109.611 86.1472 109.965V110.773C86.1472 111.247 86.2303 111.65 86.3965 111.983C86.5658 112.315 86.8012 112.569 87.1028 112.744C87.4044 112.917 87.7568 113.003 88.16 113.003C88.4216 113.003 88.6601 112.966 88.8755 112.892C89.091 112.815 89.2772 112.701 89.4341 112.55C89.5911 112.4 89.7111 112.213 89.7942 111.992L91.1007 112.227C90.996 112.612 90.8083 112.949 90.5375 113.238C90.2697 113.525 89.9327 113.748 89.5265 113.908C89.1233 114.065 88.6632 114.143 88.1461 114.143ZM98.0335 108.64L96.7824 108.862C96.7301 108.702 96.647 108.549 96.5331 108.405C96.4223 108.26 96.2715 108.142 96.0807 108.049C95.8899 107.957 95.6514 107.911 95.3651 107.911C94.9743 107.911 94.6481 107.999 94.3865 108.174C94.1249 108.346 93.9941 108.569 93.9941 108.843C93.9941 109.08 94.0818 109.271 94.2572 109.416C94.4326 109.56 94.7158 109.679 95.1066 109.771L96.233 110.03C96.8855 110.181 97.3718 110.413 97.6919 110.727C98.0119 111.041 98.172 111.449 98.172 111.95C98.172 112.375 98.0489 112.754 97.8026 113.086C97.5595 113.415 97.2194 113.674 96.7824 113.862C96.3485 114.049 95.8453 114.143 95.2728 114.143C94.4788 114.143 93.8309 113.974 93.3293 113.635C92.8276 113.294 92.5199 112.809 92.406 112.181L93.7401 111.978C93.8232 112.326 93.9941 112.589 94.2526 112.767C94.5111 112.943 94.8481 113.031 95.2636 113.031C95.716 113.031 96.0776 112.937 96.3485 112.749C96.6193 112.558 96.7547 112.326 96.7547 112.052C96.7547 111.83 96.6716 111.644 96.5054 111.493C96.3423 111.342 96.0915 111.229 95.7529 111.152L94.5526 110.888C93.891 110.738 93.4016 110.498 93.0846 110.168C92.7707 109.839 92.6137 109.422 92.6137 108.917C92.6137 108.499 92.7307 108.132 92.9646 107.819C93.1985 107.505 93.5216 107.26 93.934 107.085C94.3464 106.906 94.8189 106.817 95.3513 106.817C96.1176 106.817 96.7209 106.983 97.161 107.315C97.6011 107.645 97.8919 108.086 98.0335 108.64ZM106.186 114.143C105.488 114.143 104.886 113.994 104.381 113.695C103.879 113.394 103.492 112.971 103.218 112.426C102.947 111.878 102.812 111.236 102.812 110.501C102.812 109.774 102.947 109.134 103.218 108.58C103.492 108.026 103.873 107.594 104.363 107.283C104.855 106.972 105.431 106.817 106.089 106.817C106.489 106.817 106.877 106.883 107.253 107.015C107.628 107.148 107.965 107.355 108.264 107.638C108.562 107.922 108.798 108.289 108.97 108.742C109.142 109.191 109.228 109.737 109.228 110.381V110.87H103.592V109.836H107.876C107.876 109.473 107.802 109.151 107.654 108.871C107.506 108.588 107.299 108.365 107.031 108.202C106.766 108.039 106.455 107.957 106.098 107.957C105.711 107.957 105.372 108.052 105.083 108.243C104.797 108.431 104.575 108.677 104.418 108.982C104.264 109.283 104.187 109.611 104.187 109.965V110.773C104.187 111.247 104.27 111.65 104.437 111.983C104.606 112.315 104.841 112.569 105.143 112.744C105.444 112.917 105.797 113.003 106.2 113.003C106.462 113.003 106.7 112.966 106.916 112.892C107.131 112.815 107.317 112.701 107.474 112.55C107.631 112.4 107.751 112.213 107.834 111.992L109.141 112.227C109.036 112.612 108.848 112.949 108.578 113.238C108.31 113.525 107.973 113.748 107.566 113.908C107.163 114.065 106.703 114.143 106.186 114.143ZM115.581 104.545V114H114.2V104.545H115.581ZM120.425 114.143C119.76 114.143 119.18 113.991 118.684 113.686C118.189 113.381 117.804 112.955 117.53 112.407C117.256 111.859 117.119 111.219 117.119 110.487C117.119 109.751 117.256 109.108 117.53 108.557C117.804 108.006 118.189 107.578 118.684 107.274C119.18 106.969 119.76 106.817 120.425 106.817C121.089 106.817 121.669 106.969 122.165 107.274C122.66 107.578 123.045 108.006 123.319 108.557C123.593 109.108 123.73 109.751 123.73 110.487C123.73 111.219 123.593 111.859 123.319 112.407C123.045 112.955 122.66 113.381 122.165 113.686C121.669 113.991 121.089 114.143 120.425 114.143ZM120.429 112.984C120.86 112.984 121.217 112.871 121.5 112.643C121.783 112.415 121.993 112.112 122.128 111.733C122.267 111.355 122.336 110.938 122.336 110.482C122.336 110.03 122.267 109.614 122.128 109.236C121.993 108.854 121.783 108.548 121.5 108.317C121.217 108.086 120.86 107.971 120.429 107.971C119.995 107.971 119.635 108.086 119.349 108.317C119.066 108.548 118.855 108.854 118.716 109.236C118.581 109.614 118.513 110.03 118.513 110.482C118.513 110.938 118.581 111.355 118.716 111.733C118.855 112.112 119.066 112.415 119.349 112.643C119.635 112.871 119.995 112.984 120.429 112.984ZM125.271 106.909H126.651V114.462C126.651 114.936 126.565 115.336 126.392 115.662C126.223 115.988 125.971 116.236 125.635 116.405C125.303 116.574 124.892 116.659 124.403 116.659C124.354 116.659 124.307 116.659 124.264 116.659C124.218 116.659 124.17 116.658 124.121 116.654V115.468C124.164 115.468 124.203 115.468 124.237 115.468C124.267 115.468 124.303 115.468 124.343 115.468C124.669 115.468 124.904 115.38 125.049 115.205C125.197 115.033 125.271 114.782 125.271 114.452V106.909ZM125.954 105.815C125.714 105.815 125.508 105.735 125.335 105.575C125.166 105.412 125.081 105.218 125.081 104.993C125.081 104.766 125.166 104.572 125.335 104.412C125.508 104.248 125.714 104.167 125.954 104.167C126.194 104.167 126.399 104.248 126.568 104.412C126.74 104.572 126.826 104.766 126.826 104.993C126.826 105.218 126.74 105.412 126.568 105.575C126.399 105.735 126.194 105.815 125.954 105.815ZM130.572 114.157C130.122 114.157 129.716 114.074 129.353 113.908C128.99 113.738 128.702 113.494 128.49 113.174C128.28 112.854 128.176 112.461 128.176 111.996C128.176 111.596 128.253 111.267 128.406 111.009C128.56 110.75 128.768 110.545 129.03 110.395C129.291 110.244 129.584 110.13 129.907 110.053C130.23 109.976 130.559 109.917 130.895 109.877C131.319 109.828 131.664 109.788 131.929 109.757C132.193 109.724 132.386 109.67 132.506 109.596C132.626 109.522 132.686 109.402 132.686 109.236V109.203C132.686 108.8 132.572 108.488 132.344 108.266C132.12 108.045 131.784 107.934 131.338 107.934C130.873 107.934 130.507 108.037 130.239 108.243C129.974 108.446 129.791 108.673 129.69 108.922L128.393 108.626C128.546 108.196 128.771 107.848 129.067 107.583C129.365 107.315 129.708 107.121 130.096 107.001C130.484 106.878 130.892 106.817 131.319 106.817C131.603 106.817 131.903 106.851 132.22 106.918C132.54 106.983 132.838 107.103 133.115 107.278C133.395 107.454 133.625 107.705 133.803 108.031C133.982 108.354 134.071 108.774 134.071 109.291V114H132.723V113.031H132.667C132.578 113.209 132.444 113.384 132.266 113.557C132.087 113.729 131.858 113.872 131.578 113.986C131.298 114.1 130.962 114.157 130.572 114.157ZM130.872 113.049C131.253 113.049 131.579 112.974 131.85 112.823C132.124 112.672 132.332 112.475 132.474 112.232C132.618 111.986 132.691 111.723 132.691 111.442V110.528C132.641 110.578 132.546 110.624 132.404 110.667C132.266 110.707 132.107 110.742 131.929 110.773C131.75 110.801 131.576 110.827 131.407 110.852C131.238 110.873 131.096 110.892 130.982 110.907C130.715 110.941 130.47 110.998 130.248 111.078C130.03 111.158 129.854 111.273 129.722 111.424C129.593 111.572 129.528 111.769 129.528 112.015C129.528 112.357 129.654 112.615 129.907 112.79C130.159 112.963 130.481 113.049 130.872 113.049ZM141.223 108.64L139.972 108.862C139.92 108.702 139.836 108.549 139.723 108.405C139.612 108.26 139.461 108.142 139.27 108.049C139.079 107.957 138.841 107.911 138.555 107.911C138.164 107.911 137.838 107.999 137.576 108.174C137.314 108.346 137.184 108.569 137.184 108.843C137.184 109.08 137.271 109.271 137.447 109.416C137.622 109.56 137.905 109.679 138.296 109.771L139.422 110.03C140.075 110.181 140.561 110.413 140.881 110.727C141.201 111.041 141.361 111.449 141.361 111.95C141.361 112.375 141.238 112.754 140.992 113.086C140.749 113.415 140.409 113.674 139.972 113.862C139.538 114.049 139.035 114.143 138.462 114.143C137.668 114.143 137.02 113.974 136.519 113.635C136.017 113.294 135.709 112.809 135.595 112.181L136.93 111.978C137.013 112.326 137.184 112.589 137.442 112.767C137.701 112.943 138.038 113.031 138.453 113.031C138.905 113.031 139.267 112.937 139.538 112.749C139.809 112.558 139.944 112.326 139.944 112.052C139.944 111.83 139.861 111.644 139.695 111.493C139.532 111.342 139.281 111.229 138.942 111.152L137.742 110.888C137.08 110.738 136.591 110.498 136.274 110.168C135.96 109.839 135.803 109.422 135.803 108.917C135.803 108.499 135.92 108.132 136.154 107.819C136.388 107.505 136.711 107.26 137.123 107.085C137.536 106.906 138.008 106.817 138.541 106.817C139.307 106.817 139.91 106.983 140.35 107.315C140.791 107.645 141.081 108.086 141.223 108.64ZM148.974 114.138C148.402 114.138 147.891 113.992 147.441 113.7C146.995 113.404 146.644 112.984 146.389 112.44C146.136 111.892 146.01 111.235 146.01 110.468C146.01 109.702 146.138 109.047 146.393 108.502C146.652 107.957 147.006 107.54 147.455 107.251C147.905 106.961 148.414 106.817 148.983 106.817C149.423 106.817 149.777 106.891 150.045 107.038C150.316 107.183 150.525 107.352 150.673 107.546C150.824 107.74 150.941 107.911 151.024 108.059H151.107V104.545H152.487V114H151.139V112.897H151.024C150.941 113.047 150.821 113.22 150.664 113.414C150.51 113.608 150.297 113.777 150.027 113.922C149.756 114.066 149.405 114.138 148.974 114.138ZM149.279 112.961C149.676 112.961 150.011 112.857 150.285 112.647C150.562 112.435 150.771 112.141 150.913 111.766C151.058 111.39 151.13 110.953 151.13 110.455C151.13 109.962 151.059 109.531 150.918 109.162C150.776 108.793 150.568 108.505 150.294 108.299C150.02 108.092 149.682 107.989 149.279 107.989C148.863 107.989 148.517 108.097 148.24 108.312C147.963 108.528 147.754 108.822 147.612 109.194C147.474 109.567 147.404 109.987 147.404 110.455C147.404 110.929 147.475 111.355 147.617 111.733C147.758 112.112 147.968 112.412 148.245 112.634C148.525 112.852 148.869 112.961 149.279 112.961ZM157.513 114.143C156.815 114.143 156.213 113.994 155.708 113.695C155.207 113.394 154.819 112.971 154.545 112.426C154.274 111.878 154.139 111.236 154.139 110.501C154.139 109.774 154.274 109.134 154.545 108.58C154.819 108.026 155.2 107.594 155.69 107.283C156.182 106.972 156.758 106.817 157.416 106.817C157.816 106.817 158.204 106.883 158.58 107.015C158.955 107.148 159.292 107.355 159.591 107.638C159.889 107.922 160.125 108.289 160.297 108.742C160.469 109.191 160.556 109.737 160.556 110.381V110.87H154.919V109.836H159.203C159.203 109.473 159.129 109.151 158.981 108.871C158.834 108.588 158.626 108.365 158.358 108.202C158.093 108.039 157.783 107.957 157.426 107.957C157.038 107.957 156.699 108.052 156.41 108.243C156.124 108.431 155.902 108.677 155.745 108.982C155.591 109.283 155.514 109.611 155.514 109.965V110.773C155.514 111.247 155.597 111.65 155.764 111.983C155.933 112.315 156.168 112.569 156.47 112.744C156.772 112.917 157.124 113.003 157.527 113.003C157.789 113.003 158.027 112.966 158.243 112.892C158.458 112.815 158.644 112.701 158.801 112.55C158.958 112.4 159.078 112.213 159.161 111.992L160.468 112.227C160.363 112.612 160.175 112.949 159.905 113.238C159.637 113.525 159.3 113.748 158.894 113.908C158.49 114.065 158.03 114.143 157.513 114.143ZM21.0387 130V120.545H22.419V124.059H22.5021C22.5821 123.911 22.6976 123.74 22.8484 123.546C22.9992 123.352 23.2085 123.183 23.4762 123.038C23.744 122.891 24.0979 122.817 24.538 122.817C25.1104 122.817 25.6213 122.961 26.0707 123.251C26.52 123.54 26.8724 123.957 27.1278 124.502C27.3864 125.047 27.5156 125.702 27.5156 126.468C27.5156 127.235 27.3879 127.892 27.1325 128.44C26.877 128.984 26.5262 129.404 26.0799 129.7C25.6336 129.992 25.1243 130.138 24.5518 130.138C24.121 130.138 23.7686 130.066 23.4947 129.922C23.2238 129.777 23.0115 129.608 22.8576 129.414C22.7037 129.22 22.5852 129.047 22.5021 128.897H22.3867V130H21.0387ZM22.3913 126.455C22.3913 126.953 22.4637 127.39 22.6083 127.766C22.753 128.141 22.9622 128.435 23.2362 128.647C23.5101 128.857 23.8455 128.961 24.2425 128.961C24.6549 128.961 24.9996 128.852 25.2766 128.634C25.5536 128.412 25.7629 128.112 25.9045 127.733C26.0491 127.355 26.1214 126.929 26.1214 126.455C26.1214 125.987 26.0507 125.567 25.9091 125.194C25.7706 124.822 25.5613 124.528 25.2812 124.312C25.0043 124.097 24.658 123.989 24.2425 123.989C23.8424 123.989 23.5039 124.092 23.2269 124.299C22.953 124.505 22.7453 124.793 22.6037 125.162C22.4621 125.531 22.3913 125.962 22.3913 126.455ZM32.1217 130.143C31.4231 130.143 30.8214 129.994 30.3167 129.695C29.815 129.394 29.4272 128.971 29.1533 128.426C28.8825 127.878 28.7471 127.236 28.7471 126.501C28.7471 125.774 28.8825 125.134 29.1533 124.58C29.4272 124.026 29.8089 123.594 30.2982 123.283C30.7906 122.972 31.3662 122.817 32.0248 122.817C32.4249 122.817 32.8126 122.883 33.1881 123.015C33.5636 123.148 33.9006 123.355 34.1991 123.638C34.4977 123.922 34.7331 124.289 34.9055 124.742C35.0778 125.191 35.164 125.737 35.164 126.381V126.87H29.5273V125.836H33.8113C33.8113 125.473 33.7375 125.151 33.5898 124.871C33.442 124.588 33.2343 124.365 32.9665 124.202C32.7019 124.039 32.391 123.957 32.034 123.957C31.6462 123.957 31.3077 124.052 31.0184 124.243C30.7322 124.431 30.5106 124.677 30.3536 124.982C30.1997 125.283 30.1228 125.611 30.1228 125.965V126.773C30.1228 127.247 30.2059 127.65 30.3721 127.983C30.5413 128.315 30.7768 128.569 31.0784 128.744C31.38 128.917 31.7324 129.003 32.1356 129.003C32.3972 129.003 32.6357 128.966 32.8511 128.892C33.0666 128.815 33.2528 128.701 33.4097 128.55C33.5667 128.4 33.6867 128.213 33.7698 127.992L35.0763 128.227C34.9716 128.612 34.7839 128.949 34.5131 129.238C34.2453 129.525 33.9083 129.748 33.502 129.908C33.0989 130.065 32.6388 130.143 32.1217 130.143ZM36.8063 130V120.545H38.1866V124.059H38.2697C38.3497 123.911 38.4651 123.74 38.6159 123.546C38.7667 123.352 38.976 123.183 39.2438 123.038C39.5115 122.891 39.8655 122.817 40.3056 122.817C40.878 122.817 41.3889 122.961 41.8382 123.251C42.2876 123.54 42.64 123.957 42.8954 124.502C43.1539 125.047 43.2832 125.702 43.2832 126.468C43.2832 127.235 43.1555 127.892 42.9 128.44C42.6446 128.984 42.2937 129.404 41.8475 129.7C41.4012 129.992 40.8919 130.138 40.3194 130.138C39.8886 130.138 39.5362 130.066 39.2623 129.922C38.9914 129.777 38.7791 129.608 38.6252 129.414C38.4713 129.22 38.3528 129.047 38.2697 128.897H38.1543V130H36.8063ZM38.1589 126.455C38.1589 126.953 38.2312 127.39 38.3759 127.766C38.5205 128.141 38.7298 128.435 39.0037 128.647C39.2776 128.857 39.6131 128.961 40.0101 128.961C40.4225 128.961 40.7672 128.852 41.0442 128.634C41.3212 128.412 41.5305 128.112 41.6721 127.733C41.8167 127.355 41.889 126.929 41.889 126.455C41.889 125.987 41.8182 125.567 41.6767 125.194C41.5382 124.822 41.3289 124.528 41.0488 124.312C40.7718 124.097 40.4256 123.989 40.0101 123.989C39.61 123.989 39.2715 124.092 38.9945 124.299C38.7206 124.505 38.5128 124.793 38.3713 125.162C38.2297 125.531 38.1589 125.962 38.1589 126.455ZM44.8332 130V122.909H46.2135V130H44.8332ZM45.5303 121.815C45.2902 121.815 45.084 121.735 44.9117 121.575C44.7424 121.412 44.6578 121.218 44.6578 120.993C44.6578 120.766 44.7424 120.572 44.9117 120.412C45.084 120.248 45.2902 120.167 45.5303 120.167C45.7703 120.167 45.975 120.248 46.1443 120.412C46.3166 120.572 46.4028 120.766 46.4028 120.993C46.4028 121.218 46.3166 121.412 46.1443 121.575C45.975 121.735 45.7703 121.815 45.5303 121.815ZM50.725 130.138C50.1525 130.138 49.6416 129.992 49.1923 129.7C48.746 129.404 48.3952 128.984 48.1397 128.44C47.8874 127.892 47.7612 127.235 47.7612 126.468C47.7612 125.702 47.8889 125.047 48.1444 124.502C48.4029 123.957 48.7568 123.54 49.2061 123.251C49.6555 122.961 50.1648 122.817 50.7342 122.817C51.1743 122.817 51.5282 122.891 51.796 123.038C52.0668 123.183 52.2761 123.352 52.4238 123.546C52.5746 123.74 52.6916 123.911 52.7747 124.059H52.8578V120.545H54.2381V130H52.8901V128.897H52.7747C52.6916 129.047 52.5716 129.22 52.4146 129.414C52.2607 129.608 52.0484 129.777 51.7775 129.922C51.5067 130.066 51.1558 130.138 50.725 130.138ZM51.0297 128.961C51.4267 128.961 51.7621 128.857 52.036 128.647C52.313 128.435 52.5223 128.141 52.6639 127.766C52.8085 127.39 52.8809 126.953 52.8809 126.455C52.8809 125.962 52.8101 125.531 52.6685 125.162C52.5269 124.793 52.3192 124.505 52.0453 124.299C51.7714 124.092 51.4328 123.989 51.0297 123.989C50.6142 123.989 50.2679 124.097 49.9909 124.312C49.714 124.528 49.5047 124.822 49.3631 125.194C49.2246 125.567 49.1554 125.987 49.1554 126.455C49.1554 126.929 49.2261 127.355 49.3677 127.733C49.5093 128.112 49.7186 128.412 49.9956 128.634C50.2756 128.852 50.6203 128.961 51.0297 128.961ZM58.2718 130.157C57.8224 130.157 57.4162 130.074 57.053 129.908C56.6898 129.738 56.4021 129.494 56.1897 129.174C55.9804 128.854 55.8758 128.461 55.8758 127.996C55.8758 127.596 55.9527 127.267 56.1066 127.009C56.2605 126.75 56.4682 126.545 56.7298 126.395C56.9914 126.244 57.2838 126.13 57.607 126.053C57.9301 125.976 58.2594 125.917 58.5949 125.877C59.0196 125.828 59.3643 125.788 59.629 125.757C59.8937 125.724 60.086 125.67 60.2061 125.596C60.3261 125.522 60.3861 125.402 60.3861 125.236V125.203C60.3861 124.8 60.2722 124.488 60.0445 124.266C59.8198 124.045 59.4843 123.934 59.0381 123.934C58.5734 123.934 58.2071 124.037 57.9394 124.243C57.6747 124.446 57.4916 124.673 57.39 124.922L56.0928 124.626C56.2467 124.196 56.4713 123.848 56.7668 123.583C57.0653 123.315 57.4085 123.121 57.7963 123.001C58.184 122.878 58.5918 122.817 59.0196 122.817C59.3028 122.817 59.6028 122.851 59.9198 122.918C60.2399 122.983 60.5384 123.103 60.8154 123.278C61.0955 123.454 61.3248 123.705 61.5033 124.031C61.6818 124.354 61.771 124.774 61.771 125.291V130H60.423V129.031H60.3676C60.2784 129.209 60.1445 129.384 59.966 129.557C59.7875 129.729 59.5582 129.872 59.2781 129.986C58.9981 130.1 58.6626 130.157 58.2718 130.157ZM58.5718 129.049C58.9535 129.049 59.2797 128.974 59.5505 128.823C59.8244 128.672 60.0322 128.475 60.1737 128.232C60.3184 127.986 60.3907 127.723 60.3907 127.442V126.528C60.3415 126.578 60.2461 126.624 60.1045 126.667C59.966 126.707 59.8075 126.742 59.629 126.773C59.4505 126.801 59.2766 126.827 59.1073 126.852C58.9381 126.873 58.7965 126.892 58.6826 126.907C58.4149 126.941 58.1702 126.998 57.9486 127.078C57.7301 127.158 57.5547 127.273 57.4223 127.424C57.2931 127.572 57.2284 127.769 57.2284 128.015C57.2284 128.357 57.3546 128.615 57.607 128.79C57.8593 128.963 58.181 129.049 58.5718 129.049ZM68.9231 124.64L67.6721 124.862C67.6197 124.702 67.5366 124.549 67.4228 124.405C67.312 124.26 67.1612 124.142 66.9703 124.049C66.7795 123.957 66.541 123.911 66.2548 123.911C65.8639 123.911 65.5377 123.999 65.2761 124.174C65.0145 124.346 64.8837 124.569 64.8837 124.843C64.8837 125.08 64.9714 125.271 65.1468 125.416C65.3223 125.56 65.6054 125.679 65.9963 125.771L67.1227 126.03C67.7752 126.181 68.2614 126.413 68.5815 126.727C68.9016 127.041 69.0616 127.449 69.0616 127.95C69.0616 128.375 68.9385 128.754 68.6923 129.086C68.4492 129.415 68.1091 129.674 67.6721 129.862C67.2381 130.049 66.7349 130.143 66.1625 130.143C65.3684 130.143 64.7206 129.974 64.2189 129.635C63.7173 129.294 63.4095 128.809 63.2956 128.181L64.6298 127.978C64.7129 128.326 64.8837 128.589 65.1422 128.767C65.4007 128.943 65.7377 129.031 66.1532 129.031C66.6056 129.031 66.9673 128.937 67.2381 128.749C67.5089 128.558 67.6444 128.326 67.6444 128.052C67.6444 127.83 67.5613 127.644 67.3951 127.493C67.2319 127.342 66.9811 127.229 66.6426 127.152L65.4423 126.888C64.7806 126.738 64.2913 126.498 63.9743 126.168C63.6603 125.839 63.5034 125.422 63.5034 124.917C63.5034 124.499 63.6203 124.132 63.8542 123.819C64.0881 123.505 64.4113 123.26 64.8237 123.085C65.2361 122.906 65.7085 122.817 66.2409 122.817C67.0073 122.817 67.6105 122.983 68.0506 123.315C68.4907 123.645 68.7815 124.086 68.9231 124.64ZM71.4887 130.088C71.2364 130.088 71.0194 129.998 70.8378 129.82C70.6562 129.638 70.5654 129.42 70.5654 129.164C70.5654 128.912 70.6562 128.697 70.8378 128.518C71.0194 128.337 71.2364 128.246 71.4887 128.246C71.7411 128.246 71.9581 128.337 72.1396 128.518C72.3212 128.697 72.412 128.912 72.412 129.164C72.412 129.334 72.3689 129.489 72.2828 129.631C72.1997 129.769 72.0889 129.88 71.9504 129.963C71.8119 130.046 71.658 130.088 71.4887 130.088Z" fill="white"/>
<path d="M21.5413 56V35.6364H35.4419V39.6335H26.4632V43.8097H34.5569V47.8168H26.4632V56H21.5413ZM37.6194 56V40.7273H42.3424V43.5114H42.5015C42.7799 42.5038 43.234 41.7547 43.8637 41.2642C44.4935 40.767 45.226 40.5185 46.0612 40.5185C46.2866 40.5185 46.5186 40.535 46.7572 40.5682C46.9958 40.5947 47.2179 40.6378 47.4234 40.6974V44.9233C47.1914 44.8437 46.8865 44.7808 46.5086 44.7344C46.1374 44.688 45.806 44.6648 45.5143 44.6648C44.9376 44.6648 44.4172 44.794 43.9532 45.0526C43.4958 45.3045 43.1346 45.6591 42.8694 46.1165C42.6109 46.5672 42.4816 47.0975 42.4816 47.7074V56H37.6194ZM55.7508 56.2884C54.1533 56.2884 52.7745 55.9735 51.6144 55.3438C50.461 54.7074 49.5728 53.8026 48.9497 52.6293C48.3332 51.4493 48.025 50.0473 48.025 48.4233C48.025 46.8456 48.3365 45.4669 48.9596 44.2869C49.5827 43.1004 50.461 42.179 51.5946 41.5227C52.7281 40.8598 54.0638 40.5284 55.6017 40.5284C56.6888 40.5284 57.6831 40.6974 58.5846 41.0355C59.4861 41.3736 60.265 41.8741 60.9213 42.5369C61.5775 43.1998 62.0879 44.0185 62.4525 44.9929C62.8171 45.9607 62.9994 47.071 62.9994 48.3239V49.5369H49.7252V46.7131H58.4752C58.4686 46.196 58.346 45.7353 58.1073 45.331C57.8687 44.9266 57.5406 44.6117 57.123 44.3864C56.712 44.1544 56.238 44.0384 55.7011 44.0384C55.1575 44.0384 54.6703 44.161 54.2394 44.4062C53.8086 44.6449 53.4672 44.973 53.2153 45.3906C52.9634 45.8016 52.8308 46.2689 52.8176 46.7926V49.6662C52.8176 50.2893 52.9402 50.8362 53.1855 51.3068C53.4307 51.7708 53.7787 52.1321 54.2295 52.3906C54.6803 52.6491 55.2172 52.7784 55.8403 52.7784C56.2712 52.7784 56.6623 52.7187 57.0136 52.5994C57.3649 52.4801 57.6665 52.3045 57.9184 52.0724C58.1703 51.8404 58.3592 51.5554 58.4852 51.2173L62.9497 51.3466C62.7641 52.3475 62.3564 53.2192 61.7267 53.9616C61.1036 54.6974 60.2849 55.2708 59.2707 55.6818C58.2565 56.0862 57.0832 56.2884 55.7508 56.2884ZM74.1034 40.7273V44.3068H64.4685V40.7273H74.1034ZM66.487 37.0682H71.3492V51.1974C71.3492 51.4957 71.3956 51.7377 71.4884 51.9233C71.5878 52.1023 71.7303 52.2315 71.9159 52.3111C72.1015 52.384 72.3236 52.4205 72.5821 52.4205C72.7677 52.4205 72.9633 52.4039 73.1688 52.3707C73.3809 52.331 73.54 52.2978 73.6461 52.2713L74.3818 55.7812C74.1498 55.8475 73.8217 55.9304 73.3975 56.0298C72.9799 56.1293 72.4794 56.1922 71.8961 56.2188C70.7559 56.2718 69.7782 56.1392 68.9628 55.821C68.1541 55.4962 67.5343 54.9924 67.1034 54.3097C66.6792 53.6269 66.4737 52.7685 66.487 51.7344V37.0682ZM83.5594 56.2884C81.9619 56.2884 80.5831 55.9735 79.423 55.3438C78.2696 54.7074 77.3814 53.8026 76.7583 52.6293C76.1418 51.4493 75.8336 50.0473 75.8336 48.4233C75.8336 46.8456 76.1451 45.4669 76.7682 44.2869C77.3913 43.1004 78.2696 42.179 79.4032 41.5227C80.5367 40.8598 81.8724 40.5284 83.4103 40.5284C84.4974 40.5284 85.4917 40.6974 86.3932 41.0355C87.2947 41.3736 88.0736 41.8741 88.7299 42.5369C89.3861 43.1998 89.8965 44.0185 90.2611 44.9929C90.6257 45.9607 90.808 47.071 90.808 48.3239V49.5369H77.5338V46.7131H86.2838C86.2772 46.196 86.1546 45.7353 85.9159 45.331C85.6773 44.9266 85.3492 44.6117 84.9316 44.3864C84.5206 44.1544 84.0466 44.0384 83.5097 44.0384C82.9661 44.0384 82.4789 44.161 82.048 44.4062C81.6172 44.6449 81.2758 44.973 81.0239 45.3906C80.772 45.8016 80.6394 46.2689 80.6262 46.7926V49.6662C80.6262 50.2893 80.7488 50.8362 80.9941 51.3068C81.2393 51.7708 81.5873 52.1321 82.0381 52.3906C82.4889 52.6491 83.0258 52.7784 83.6489 52.7784C84.0798 52.7784 84.4709 52.7187 84.8222 52.5994C85.1735 52.4801 85.4751 52.3045 85.727 52.0724C85.9789 51.8404 86.1678 51.5554 86.2938 51.2173L90.7583 51.3466C90.5727 52.3475 90.165 53.2192 89.5353 53.9616C88.9122 54.6974 88.0935 55.2708 87.0793 55.6818C86.0651 56.0862 84.8918 56.2884 83.5594 56.2884ZM106.426 62.0455C104.974 62.0455 103.732 61.8433 102.697 61.4389C101.663 61.0346 100.851 60.4811 100.261 59.7784C99.6715 59.0758 99.3169 58.2803 99.1975 57.392L103.801 57.1335C103.887 57.4451 104.046 57.7169 104.278 57.9489C104.517 58.1809 104.825 58.3598 105.203 58.4858C105.588 58.6117 106.038 58.6747 106.555 58.6747C107.371 58.6747 108.044 58.4759 108.574 58.0781C109.111 57.687 109.379 57.0009 109.379 56.0199V53.3352H109.21C109.018 53.8059 108.726 54.2268 108.335 54.598C107.944 54.9692 107.457 55.2609 106.874 55.473C106.297 55.6851 105.634 55.7912 104.885 55.7912C103.771 55.7912 102.75 55.5327 101.822 55.0156C100.901 54.492 100.162 53.6832 99.6052 52.5895C99.055 51.4891 98.7799 50.0739 98.7799 48.3438C98.7799 46.5606 99.065 45.0923 99.635 43.9389C100.205 42.7789 100.951 41.9205 101.872 41.3636C102.8 40.8068 103.798 40.5284 104.865 40.5284C105.667 40.5284 106.353 40.6676 106.923 40.946C107.5 41.2178 107.974 41.5691 108.345 42C108.716 42.4309 108.998 42.8783 109.19 43.3423H109.33V40.7273H114.172V56.0597C114.172 57.3523 113.847 58.4427 113.197 59.331C112.548 60.2192 111.64 60.892 110.473 61.3494C109.306 61.8134 107.957 62.0455 106.426 62.0455ZM106.575 52.2514C107.165 52.2514 107.669 52.0956 108.087 51.7841C108.504 51.4725 108.826 51.0251 109.051 50.4418C109.277 49.8584 109.389 49.1591 109.389 48.3438C109.389 47.5152 109.277 46.8026 109.051 46.206C108.832 45.6027 108.511 45.1387 108.087 44.8139C107.669 44.4891 107.165 44.3267 106.575 44.3267C105.972 44.3267 105.462 44.4924 105.044 44.8239C104.626 45.1553 104.308 45.6226 104.089 46.2259C103.877 46.8224 103.771 47.5284 103.771 48.3438C103.771 49.1591 103.881 49.8584 104.099 50.4418C104.318 51.0251 104.633 51.4725 105.044 51.7841C105.462 52.0956 105.972 52.2514 106.575 52.2514ZM117.272 56V40.7273H121.995V43.5114H122.154C122.432 42.5038 122.886 41.7547 123.516 41.2642C124.146 40.767 124.878 40.5185 125.713 40.5185C125.939 40.5185 126.171 40.535 126.409 40.5682C126.648 40.5947 126.87 40.6378 127.076 40.6974V44.9233C126.844 44.8437 126.539 44.7808 126.161 44.7344C125.79 44.688 125.458 44.6648 125.167 44.6648C124.59 44.6648 124.069 44.794 123.605 45.0526C123.148 45.3045 122.787 45.6591 122.522 46.1165C122.263 46.5672 122.134 47.0975 122.134 47.7074V56H117.272ZM132.788 56.2585C131.814 56.2585 130.949 56.0961 130.193 55.7713C129.444 55.4399 128.85 54.9427 128.413 54.2798C127.982 53.6103 127.767 52.7718 127.767 51.7642C127.767 50.9157 127.916 50.1998 128.214 49.6165C128.512 49.0331 128.923 48.5592 129.447 48.1946C129.971 47.83 130.574 47.5549 131.257 47.3693C131.94 47.1771 132.669 47.0478 133.444 46.9815C134.313 46.902 135.012 46.8191 135.542 46.733C136.073 46.6402 136.457 46.5109 136.696 46.3452C136.941 46.1728 137.064 45.9309 137.064 45.6193V45.5696C137.064 45.0592 136.888 44.6648 136.537 44.3864C136.185 44.108 135.711 43.9688 135.115 43.9688C134.472 43.9688 133.955 44.108 133.564 44.3864C133.172 44.6648 132.924 45.0492 132.818 45.5398L128.333 45.3807C128.466 44.4527 128.807 43.6241 129.358 42.8949C129.914 42.1591 130.677 41.5824 131.645 41.1648C132.619 40.7405 133.789 40.5284 135.154 40.5284C136.129 40.5284 137.027 40.6444 137.849 40.8764C138.671 41.1018 139.387 41.4332 139.997 41.8707C140.607 42.3016 141.077 42.8319 141.409 43.4616C141.747 44.0914 141.916 44.8106 141.916 45.6193V56H137.342V53.8722H137.223C136.951 54.3892 136.603 54.8267 136.179 55.1847C135.761 55.5426 135.267 55.8111 134.697 55.9901C134.134 56.169 133.497 56.2585 132.788 56.2585ZM134.289 53.0767C134.813 53.0767 135.284 52.9706 135.701 52.7585C136.126 52.5464 136.464 52.2547 136.716 51.8835C136.967 51.5057 137.093 51.0682 137.093 50.571V49.1193C136.954 49.1922 136.785 49.2585 136.586 49.3182C136.394 49.3778 136.182 49.4342 135.95 49.4872C135.718 49.5402 135.479 49.5866 135.234 49.6264C134.989 49.6662 134.753 49.7027 134.528 49.7358C134.071 49.8087 133.68 49.9214 133.355 50.0739C133.037 50.2263 132.791 50.4252 132.619 50.6705C132.453 50.9091 132.37 51.1941 132.37 51.5256C132.37 52.0294 132.549 52.4138 132.907 52.679C133.272 52.9441 133.733 53.0767 134.289 53.0767ZM133.643 38.7884L135.652 34.304H139.957L136.954 38.7884H133.643ZM153.51 40.7273V44.3068H143.875V40.7273H153.51ZM145.893 37.0682H150.755V51.1974C150.755 51.4957 150.802 51.7377 150.895 51.9233C150.994 52.1023 151.136 52.2315 151.322 52.3111C151.508 52.384 151.73 52.4205 151.988 52.4205C152.174 52.4205 152.369 52.4039 152.575 52.3707C152.787 52.331 152.946 52.2978 153.052 52.2713L153.788 55.7812C153.556 55.8475 153.228 55.9304 152.804 56.0298C152.386 56.1293 151.886 56.1922 151.302 56.2188C150.162 56.2718 149.184 56.1392 148.369 55.821C147.56 55.4962 146.94 54.9924 146.51 54.3097C146.085 53.6269 145.88 52.7685 145.893 51.7344V37.0682ZM155.99 56V40.7273H160.853V56H155.99ZM158.426 38.9474C157.744 38.9474 157.157 38.7221 156.667 38.2713C156.176 37.8139 155.931 37.2637 155.931 36.6207C155.931 35.9844 156.176 35.4408 156.667 34.9901C157.157 34.5327 157.744 34.304 158.426 34.304C159.116 34.304 159.703 34.5327 160.186 34.9901C160.677 35.4408 160.922 35.9844 160.922 36.6207C160.922 37.2637 160.677 37.8139 160.186 38.2713C159.703 38.7221 159.116 38.9474 158.426 38.9474ZM177.281 45.3906L172.817 45.5099C172.77 45.1918 172.644 44.91 172.439 44.6648C172.233 44.4129 171.965 44.2173 171.634 44.0781C171.309 43.9323 170.931 43.8594 170.5 43.8594C169.937 43.8594 169.456 43.9721 169.058 44.1974C168.667 44.4228 168.475 44.7277 168.482 45.1122C168.475 45.4105 168.594 45.669 168.839 45.8878C169.091 46.1065 169.539 46.2822 170.182 46.4148L173.125 46.9716C174.65 47.2633 175.783 47.7472 176.526 48.4233C177.275 49.0994 177.652 49.9943 177.659 51.108C177.652 52.1553 177.341 53.0668 176.724 53.8423C176.115 54.6179 175.279 55.2211 174.219 55.652C173.158 56.0762 171.945 56.2884 170.58 56.2884C168.399 56.2884 166.679 55.8409 165.419 54.946C164.166 54.0445 163.45 52.8381 163.271 51.3267L168.074 51.2074C168.18 51.7642 168.455 52.1884 168.899 52.4801C169.343 52.7718 169.91 52.9176 170.599 52.9176C171.223 52.9176 171.73 52.8016 172.121 52.5696C172.512 52.3376 172.711 52.0294 172.717 51.6449C172.711 51.3002 172.558 51.0251 172.26 50.8196C171.962 50.6075 171.494 50.4418 170.858 50.3224L168.193 49.8153C166.662 49.5369 165.522 49.0232 164.773 48.2741C164.024 47.5185 163.652 46.5573 163.659 45.3906C163.652 44.3698 163.924 43.4981 164.474 42.7756C165.025 42.0464 165.807 41.4896 166.821 41.1051C167.835 40.7206 169.032 40.5284 170.411 40.5284C172.479 40.5284 174.109 40.9626 175.303 41.831C176.496 42.6927 177.155 43.8793 177.281 45.3906Z" fill="white"/>
</g>
</svg>
