<svg width="39" height="26" viewBox="0 0 39 26" fill="none" xmlns="http://www.w3.org/2000/svg">
<path d="M2 0.871094H37C38.1046 0.871094 39 1.76654 39 2.87109V23.8711C39 24.9757 38.1046 25.8711 37 25.8711H2C0.89545 25.8711 0 24.9757 0 23.8711V2.87109C0 1.76654 0.89545 0.871094 2 0.871094Z" fill="#2557D6"/>
<path d="M0.0129453 12.6547H1.885L2.3071 11.6792H3.2521L3.6731 12.6547H7.35649V11.909L7.6853 12.658H9.59745L9.92625 11.8979V12.6548H19.0802L19.076 11.0535H19.2531C19.377 11.0576 19.4133 11.0686 19.4133 11.2648V12.6548H24.1477V12.282C24.5297 12.478 25.1236 12.6548 25.9051 12.6548H27.8969L28.3232 11.6793H29.2682L29.685 12.6548H33.5233V11.7282L34.1046 12.6548H37.1803V6.5293H34.1363V7.2527L33.7102 6.5293H30.5867V7.2527L30.1953 6.5293H25.9763C25.2701 6.5293 24.6493 6.62375 24.1478 6.88695V6.5293H21.2364V6.88695C20.9172 6.61565 20.4824 6.5293 19.9989 6.5293H9.3619L8.6482 8.11135L7.91525 6.5293H4.565V7.2527L4.1969 6.5293H1.33965L0.0126953 9.4416V12.6546H0.0128453L0.0129453 12.6547ZM11.8299 11.7712H10.7067L10.7026 8.33155L9.11384 11.7712H8.15185L6.55895 8.3285V11.7712H4.33045L3.90945 10.7916H1.6281L1.20285 11.7712H0.0127953L1.97485 7.37935H3.6028L5.46625 11.5375V7.37935H7.25455L8.68845 10.3587L10.0056 7.37935H11.8299L11.8299 11.7712ZM3.53495 9.8801L2.78505 8.12925L2.0393 9.8801H3.53495ZM16.2999 11.7711H12.6398V7.3793H16.2999V8.29385H13.7355V9.0855H16.2385V9.98575H13.7354V10.8628H16.2999L16.2999 11.7711ZM21.4579 8.56215C21.4579 9.26235 20.9702 9.62415 20.686 9.73275C20.9257 9.82015 21.1305 9.97465 21.228 10.1026C21.3827 10.321 21.4094 10.5161 21.4094 10.9084V11.7711H20.3042L20.3 11.2173C20.3 10.953 20.3264 10.573 20.1271 10.3617C19.967 10.2072 19.723 10.1737 19.3285 10.1737H18.1523V11.7712H17.0566V7.3793H19.5767C20.1366 7.3793 20.5492 7.39345 20.9034 7.58965C21.2501 7.78585 21.4579 8.07225 21.4579 8.56215ZM20.073 9.21425C19.9223 9.30185 19.7443 9.30475 19.5309 9.30475H18.1999V8.32925H19.549C19.7399 8.32925 19.9392 8.33745 20.0687 8.40845C20.2108 8.47245 20.2987 8.6086 20.2987 8.7967C20.2987 8.9887 20.215 9.14315 20.073 9.21425ZM23.2152 11.7711H22.0973V7.3793H23.2152V11.7711ZM36.1932 11.7711H34.6405L32.5638 8.4748V11.7711H30.3324L29.906 10.7915H27.63L27.2164 11.7711H25.934C25.4016 11.7711 24.7271 11.6583 24.3454 11.2854C23.9603 10.9125 23.76 10.4074 23.76 9.60875C23.76 8.9574 23.8797 8.36195 24.3506 7.8914C24.7048 7.5409 25.2596 7.3793 26.0146 7.3793H27.0753V8.32035H26.0368C25.6369 8.32035 25.4111 8.37735 25.1937 8.5805C25.0069 8.76545 24.8788 9.115 24.8788 9.57535C24.8788 10.0458 24.9763 10.3851 25.1799 10.6067C25.3486 10.7805 25.6552 10.8332 25.9435 10.8332H26.4356L27.9798 7.37945H29.6216L31.4767 11.5335V7.3795H33.145L35.0709 10.4382V7.3795H36.1932V11.7711ZM29.5332 9.88015L28.7749 8.1293L28.0209 9.88015H29.5332ZM38.9852 18.7841C38.7191 19.157 38.2005 19.346 37.4984 19.346H35.3824V18.404H37.4898C37.6988 18.404 37.8451 18.3777 37.9332 18.2953C38.0164 18.2216 38.0634 18.1176 38.0627 18.0088C38.0627 17.8808 38.0095 17.7792 37.9289 17.7183C37.8494 17.6512 37.7337 17.6208 37.5428 17.6208C36.5141 17.5873 35.2306 17.6512 35.2306 16.2611C35.2306 15.624 35.6527 14.9533 36.8025 14.9533H38.985V14.0793H36.9571C36.3453 14.0793 35.9007 14.2198 35.5859 14.438V14.0793H32.5866C32.1069 14.0793 31.5439 14.1932 31.2777 14.438V14.0793H25.9217V14.438C25.4955 14.1434 24.7763 14.0793 24.4442 14.0793H20.9114V14.438C20.5742 14.1251 19.8243 14.0793 19.3671 14.0793H15.4133L14.5086 15.0175L13.6611 14.0793H7.75465V20.2088H13.5496L14.4819 19.2557L15.3602 20.2088L18.9323 20.2118V18.7699H19.2833C19.7573 18.7769 20.3163 18.7585 20.8095 18.5543V20.2086H23.7559V18.611H23.898C24.0794 18.611 24.0972 18.6182 24.0972 18.7917V20.2084H33.0477C33.6159 20.2084 34.2099 20.0691 34.5389 19.8161V20.2084H37.3779C37.9687 20.2084 38.5456 20.129 38.9846 19.9259L38.9847 18.7839L38.9852 18.7841ZM21.2382 16.4264C21.2382 17.6467 20.2879 17.8986 19.3302 17.8986H17.9631V19.3721H15.8335L14.4843 17.9178L13.0822 19.3721H8.74215V14.9791H13.1489L14.4969 16.4191L15.8907 14.9791H19.3917C20.2612 14.9791 21.2382 15.2098 21.2382 16.4264ZM12.5272 18.4481H9.8333V17.5741H12.2388V16.6778H9.8333V15.8791H12.5802L13.7787 17.1593L12.5272 18.4481ZM16.8677 18.9511L15.1855 17.1616L16.8677 15.4291V18.9511ZM19.3555 16.9978H17.9396V15.8791H19.3682C19.7638 15.8791 20.0384 16.0336 20.0384 16.4177C20.0384 16.7976 19.7765 16.9978 19.3555 16.9978ZM26.7735 14.9791H30.4304V15.8876H27.8647V16.6863H30.3678V17.5826H27.8647V18.4566L30.4304 18.4606V19.3721H26.7734L26.7735 14.9791ZM25.3676 17.3306C25.6115 17.4168 25.8108 17.5714 25.9043 17.6993C26.059 17.9139 26.0814 18.114 26.0858 18.5012V19.3721H24.9857V18.8225C24.9857 18.5582 25.0123 18.1669 24.8086 17.9626C24.6486 17.8052 24.4045 17.7676 24.0048 17.7676H22.8338V19.3721H21.7328V14.9792H24.2625C24.8172 14.9792 25.2212 15.0027 25.5808 15.1865C25.9266 15.3867 26.1441 15.6608 26.1441 16.162C26.1441 16.8631 25.6559 17.2209 25.3676 17.3306ZM24.7483 16.7752C24.6017 16.8586 24.4205 16.8658 24.2074 16.8658H22.8763V15.8792H24.2254C24.4205 15.8792 24.6158 15.8832 24.7483 15.9585C24.8903 16.0297 24.9752 16.1658 24.9752 16.3537C24.9752 16.5416 24.8903 16.693 24.7483 16.7752ZM34.6393 17.0551C34.8528 17.2665 34.967 17.5336 34.967 17.9857C34.967 18.9307 34.3509 19.3719 33.2458 19.3719H31.1118V18.4299H33.2373C33.4451 18.4299 33.5925 18.4036 33.6848 18.3211C33.7602 18.2532 33.8142 18.1545 33.8142 18.0347C33.8142 17.9066 33.7557 17.8051 33.6805 17.7441C33.5967 17.6771 33.4812 17.6467 33.2903 17.6467C32.2657 17.6132 30.9825 17.6771 30.9825 16.2871C30.9825 15.6499 31.4002 14.9792 32.549 14.9792H34.7456V15.9142H32.7357C32.5365 15.9142 32.4069 15.9214 32.2967 15.9935C32.1767 16.0646 32.1322 16.1702 32.1322 16.3095C32.1322 16.4752 32.2341 16.588 32.372 16.6368C32.4875 16.6753 32.6117 16.6865 32.7983 16.6865L33.3881 16.7018C33.9829 16.7156 34.3912 16.8142 34.6393 17.0551ZM38.9871 15.8791H36.9902C36.7909 15.8791 36.6583 15.8863 36.5468 15.9584C36.4312 16.0296 36.3867 16.1351 36.3867 16.2745C36.3867 16.4402 36.4843 16.5529 36.6263 16.6017C36.7419 16.6403 36.866 16.6515 37.0485 16.6515L37.6424 16.6667C38.2415 16.6809 38.6415 16.7796 38.8854 17.0203C38.9299 17.0538 38.9565 17.0914 38.987 17.1291V15.8791H38.9871Z" fill="white"/>
</svg>
