<svg width="39" height="31" viewBox="0 0 39 31" fill="none" xmlns="http://www.w3.org/2000/svg">
<g clip-path="url(#clip0_770_414)">
<path d="M24.7732 21.8444H14.2275V2.89258H24.7732V21.8444Z" fill="#2271CE"/>
<path d="M14.8966 12.369C14.8966 8.52449 16.6966 5.09996 19.4997 2.89305C17.4499 1.27925 14.8629 0.316034 12.0514 0.316034C5.39542 0.316034 0 5.71222 0 12.369C0 19.0257 5.39542 24.4219 12.0514 24.4219C14.8629 24.4219 17.4499 23.4587 19.4997 21.8449C16.6966 19.6379 14.8966 16.2134 14.8966 12.369Z" fill="#005EB6"/>
<path d="M38.9997 12.369C38.9997 19.0257 33.6043 24.4219 26.9483 24.4219C24.1368 24.4219 21.5498 23.4587 19.5 21.8449C22.3031 19.6379 24.1031 16.2134 24.1031 12.369C24.1031 8.52449 22.3031 5.09996 19.5 2.89305C21.5498 1.27925 24.1368 0.316034 26.9483 0.316034C33.6043 0.316034 38.9997 5.71222 38.9997 12.369Z" fill="#0099DF"/>
<path d="M27.6808 27.5317C27.346 27.311 26.8839 27.1969 26.3758 27.1969C25.5651 27.1969 25.0433 27.5854 25.0433 28.2214C25.0433 28.7432 25.4318 29.0643 26.1475 29.1654L26.4762 29.2122C26.8571 29.2658 27.0379 29.3662 27.0379 29.5463C27.0379 29.7946 26.7835 29.9348 26.3084 29.9348C25.8264 29.9348 25.4785 29.7808 25.244 29.5999L24.9161 30.1425C25.2977 30.4237 25.7797 30.5578 26.3015 30.5578C27.2256 30.5578 27.7613 30.1225 27.7613 29.5133C27.7613 28.9509 27.3398 28.6566 26.6433 28.5555L26.3153 28.5087C26.0142 28.4689 25.7728 28.4084 25.7728 28.1946C25.7728 27.9601 26.0004 27.8198 26.382 27.8198C26.7904 27.8198 27.1858 27.9739 27.3797 28.0942L27.6808 27.5317ZM11.2393 28.8772C11.2393 29.8481 11.9151 30.5576 12.9465 30.5576C13.4285 30.5576 13.7496 30.4504 14.0975 30.176L13.7626 29.6136C13.5021 29.8013 13.2278 29.9017 12.9259 29.9017C12.3703 29.8948 11.9626 29.4933 11.9626 28.8772C11.9626 28.2611 12.3703 27.8595 12.9259 27.8526C13.2278 27.8526 13.5021 27.953 13.7626 28.1408L14.0975 27.5783C13.7496 27.304 13.4285 27.1967 12.9465 27.1967C11.9151 27.1967 11.2393 27.9063 11.2393 28.8772ZM17.9507 27.1969C17.5492 27.1969 17.2879 27.3847 17.107 27.6659V27.2774H16.4181V30.4774H17.1139V28.6828C17.1139 28.154 17.3415 27.8598 17.7967 27.8598C17.9377 27.8598 18.0848 27.8797 18.2319 27.9402L18.4457 27.2843C18.2925 27.2237 18.0909 27.1969 17.9507 27.1969ZM20.5363 27.1969C20.1348 27.1969 19.8735 27.3847 19.6927 27.6659V27.2774H19.0038V30.4774H19.6996V28.6828C19.6996 28.154 19.9271 27.8598 20.3823 27.8598C20.5233 27.8598 20.6704 27.8797 20.8176 27.9402L21.0314 27.2843C20.8781 27.2237 20.6766 27.1969 20.5363 27.1969ZM15.6584 30.476H14.958V27.2805H15.6584V30.476ZM15.3044 25.6836C15.3733 25.6836 15.4377 25.6959 15.4982 25.7219C15.5583 25.7472 15.6101 25.7824 15.6545 25.8269C15.6987 25.8713 15.7342 25.9234 15.7596 25.9832C15.7859 26.0437 15.7976 26.1081 15.7976 26.1771C15.7976 26.246 15.7853 26.3104 15.7596 26.3702C15.7344 26.4307 15.6989 26.4821 15.6545 26.5257C15.6104 26.5687 15.558 26.6031 15.4982 26.6269C15.4375 26.6514 15.3733 26.6637 15.3044 26.6637C15.2354 26.6637 15.171 26.6514 15.1113 26.6269C15.0506 26.6032 14.9994 26.5687 14.9557 26.5257C14.9128 26.4821 14.8791 26.4307 14.8545 26.3702C14.83 26.3104 14.8178 26.246 14.8178 26.1771C14.8178 26.1081 14.83 26.0437 14.8545 25.9832C14.8791 25.9234 14.9128 25.8713 14.9557 25.8269C14.9992 25.7824 15.0507 25.7472 15.1113 25.7219C15.1714 25.6959 15.2354 25.6836 15.3044 25.6836ZM24.4849 29.1221C24.4849 29.3757 24.4427 29.5933 24.36 29.7757C24.2764 29.9581 24.1668 30.1068 24.0305 30.2225C23.8941 30.3382 23.7385 30.4232 23.563 30.4776C23.3868 30.532 23.2067 30.5596 23.0228 30.5596C22.8381 30.5596 22.658 30.532 22.4826 30.4776C22.3063 30.4232 22.15 30.3382 22.0128 30.2225C21.8757 30.1068 21.7661 29.9581 21.6833 29.7757C21.6013 29.5933 21.5599 29.3757 21.5599 29.1221V27.2807H22.2519V29.0585C22.2519 29.2117 22.2718 29.3428 22.3109 29.4508C22.3507 29.5581 22.4052 29.6454 22.4741 29.7121C22.5431 29.7788 22.6251 29.8278 22.7193 29.8577C22.8136 29.8876 22.9147 29.9029 23.0228 29.9029C23.1301 29.9029 23.2312 29.8876 23.3255 29.8577C23.4197 29.8278 23.5017 29.7788 23.5707 29.7121C23.6404 29.6454 23.694 29.5581 23.7339 29.4508C23.7737 29.3428 23.7929 29.2117 23.7929 29.0585V27.2807H24.4849V29.1221Z" fill="#231F20"/>
</g>
<defs>
<clipPath id="clip0_770_414">
<rect width="39" height="30.3164" fill="white" transform="translate(0 0.316406)"/>
</clipPath>
</defs>
</svg>
