<svg width="39" height="26" viewBox="0 0 39 26" fill="none" xmlns="http://www.w3.org/2000/svg">
<path d="M36.25 0H2.75C1.23365 0 0 1.23365 0 2.75V22.3C0 23.8163 1.23365 25.05 2.75 25.05H36.25C37.7663 25.05 39 23.8163 39 22.3V2.75C39 1.23365 37.7663 0 36.25 0Z" fill="white"/>
<path d="M16.6781 19.9851L2.35156 19.9903V19.9558C2.35156 19.9368 2.37441 19.8139 2.40231 19.6825C2.43026 19.5512 2.47366 19.3423 2.49886 19.2184C2.52396 19.0944 2.56696 18.8838 2.59431 18.7502C2.66161 18.4238 2.72811 18.0973 2.79376 17.7706C2.81961 17.6418 2.86266 17.4311 2.88956 17.3024C2.92386 17.1378 2.95776 16.973 2.99141 16.8082C3.02051 16.6652 3.06476 16.4467 3.08976 16.3227C3.11476 16.1987 3.15446 16.0075 3.17801 15.8979C3.20151 15.7883 3.23156 15.64 3.24466 15.5684C3.25781 15.4969 3.30036 15.2862 3.33921 15.1003C3.37191 14.9444 3.40371 14.7884 3.43446 14.6321C3.44801 14.5606 3.49106 14.3499 3.53016 14.164C3.56921 13.9781 3.61211 13.7674 3.62551 13.6958C3.63891 13.6243 3.68206 13.4136 3.72136 13.2277C3.76076 13.0417 3.80326 12.835 3.81576 12.7682C3.82836 12.7015 3.86276 12.5298 3.89226 12.3868C3.92171 12.2437 3.97751 11.9745 4.01621 11.7886C4.05496 11.6026 4.12116 11.2788 4.16331 11.0689C4.20556 10.8591 4.25601 10.6095 4.27546 10.5141C4.33261 10.2337 4.39026 9.95335 4.44851 9.6732C4.47721 9.5348 4.52386 9.30855 4.55221 9.17025C4.58061 9.03195 4.62431 8.8174 4.64936 8.69345C4.67441 8.5695 4.71716 8.36275 4.74436 8.23395C4.77156 8.10525 4.81836 7.8789 4.84836 7.7311C4.87836 7.58325 4.92861 7.357 4.96001 7.22825C4.99141 7.0995 5.03581 6.94345 5.05871 6.8815C5.08156 6.81945 5.14471 6.68515 5.19901 6.58285L5.29776 6.397L5.38751 6.2794C5.43681 6.2148 5.52496 6.11265 5.58331 6.05245C5.64166 5.99225 5.74006 5.90165 5.80211 5.85115C5.86406 5.8006 5.95381 5.7324 6.00146 5.6996C6.04916 5.6668 6.14281 5.60935 6.20956 5.57195C6.27631 5.53455 6.37001 5.4856 6.41766 5.46315C6.46536 5.4407 6.56291 5.39965 6.63441 5.372C6.70591 5.3444 6.84246 5.29805 6.93781 5.2691C7.03316 5.2401 7.21221 5.1964 7.33566 5.17205C7.45911 5.14765 7.65411 5.11505 7.76916 5.0996L7.97821 5.0715L22.3137 5.0661L36.6492 5.06055V5.09505C36.6492 5.114 36.6262 5.23695 36.5982 5.36825C36.5627 5.5344 36.5279 5.70065 36.4938 5.8671C36.4644 6.01015 36.4217 6.21695 36.3987 6.3266C36.3662 6.4826 36.334 6.63865 36.3021 6.79475C36.2719 6.9426 36.2255 7.1689 36.1989 7.2976C36.1724 7.42635 36.1293 7.63705 36.1033 7.76575C36.0773 7.89455 36.034 8.1052 36.0072 8.2339C35.9759 8.3841 35.945 8.5344 35.9145 8.6848C35.8904 8.804 35.8468 9.01855 35.8177 9.1616C35.7885 9.3046 35.7416 9.53095 35.7135 9.66445C35.6854 9.79795 35.6426 10.0047 35.6184 10.1239C35.5942 10.2431 35.5506 10.4577 35.5215 10.6007C35.4924 10.7437 35.4457 10.9701 35.4176 11.1036C35.3895 11.2371 35.3477 11.44 35.3245 11.5544C35.2604 11.8724 35.1958 12.1903 35.1308 12.5081C35.1073 12.6225 35.0655 12.8254 35.0378 12.9589C35.0024 13.1293 34.9673 13.2998 34.9324 13.4704C34.9022 13.6183 34.8589 13.8289 34.8363 13.9386C34.8136 14.0482 34.7712 14.255 34.742 14.398C34.7078 14.5657 34.6735 14.7333 34.6389 14.9009C34.6113 15.0344 34.5681 15.2451 34.5428 15.3691C34.5176 15.4931 34.4737 15.7077 34.4453 15.8459C34.4169 15.9842 34.3705 16.2104 34.3422 16.3487C34.3139 16.487 34.2715 16.6938 34.248 16.8083C34.2159 16.9642 34.1841 17.1203 34.1524 17.2764C34.1182 17.4435 34.0832 17.6105 34.0473 17.7773L33.9951 18.0182L33.9329 18.1848C33.8987 18.2764 33.8472 18.3982 33.8185 18.4555C33.79 18.5127 33.7316 18.6136 33.6889 18.6798C33.6462 18.7459 33.5867 18.8307 33.5567 18.8682C33.5267 18.9056 33.4364 19.0023 33.3558 19.0831L33.2097 19.2299L33.069 19.3299C32.9916 19.3849 32.9081 19.4409 32.8837 19.4542C32.8592 19.4676 32.766 19.5152 32.6764 19.5599C32.587 19.6047 32.4606 19.6618 32.3956 19.6866C32.3306 19.7116 32.2018 19.7539 32.1095 19.7808C32.0171 19.8077 31.9181 19.8342 31.8896 19.8397C31.8609 19.8452 31.7616 19.8657 31.6689 19.8854C31.5761 19.9051 31.3888 19.9344 31.2528 19.9506L31.0053 19.9801L16.6788 19.9851H16.6781ZM11.5811 16.2793H11.9539L11.9644 16.2519C11.9702 16.2368 11.9749 16.2013 11.9749 16.1731C11.9749 16.1448 11.9872 16.0421 12.0023 15.9448C12.0173 15.8474 12.0525 15.6235 12.0806 15.4471C12.1086 15.2706 12.1506 15.0053 12.1739 14.8575C12.1961 14.7175 12.2171 14.5773 12.2372 14.437C12.2486 14.3536 12.2626 14.2853 12.2682 14.2853C12.2738 14.2853 12.2979 14.3222 12.3218 14.3673L12.3651 14.4492L12.4612 14.5461L12.5573 14.643L12.6756 14.6904L12.794 14.7377L12.935 14.756L13.076 14.7742L13.255 14.7633L13.434 14.7522L13.6278 14.7021L13.8216 14.6519L13.9256 14.6045C13.9829 14.5784 14.0843 14.5214 14.151 14.4779L14.2724 14.3989L14.3856 14.2857C14.4478 14.2236 14.5356 14.1238 14.5806 14.064C14.6257 14.0044 14.6626 13.9511 14.6626 13.9458C14.6626 13.9405 14.6847 13.9035 14.7118 13.8636C14.7388 13.8238 14.7941 13.713 14.8347 13.6177C14.8754 13.5224 14.9388 13.3507 14.9758 13.2363L15.043 13.0282L15.0777 12.848C15.0968 12.7489 15.1214 12.585 15.1324 12.4838L15.1522 12.2999L15.1407 12.1439L15.1293 11.9878L15.093 11.8318L15.0569 11.6757L14.9983 11.5589L14.9397 11.442L14.8266 11.3221L14.7135 11.2022L14.5796 11.133L14.4458 11.0639L14.2984 11.0285L14.151 10.9933L14.0036 10.9825L13.8562 10.9716L13.6921 10.9905L13.5278 11.0094L13.3939 11.0436L13.2599 11.0778L13.1434 11.1317C13.0794 11.1613 12.9862 11.2117 12.9364 11.2435C12.8866 11.2755 12.8351 11.3121 12.8221 11.325C12.8092 11.338 12.778 11.362 12.753 11.3783L12.7075 11.4082L12.7393 11.2558C12.7568 11.1721 12.7714 11.0938 12.7718 11.0818L12.7725 11.0602H12.1367L12.081 11.4113C12.0503 11.6044 12.0019 11.9029 11.9734 12.0746C11.9106 12.4533 11.847 12.8318 11.7826 13.2103C11.7543 13.3771 11.7074 13.6425 11.6785 13.7998C11.6495 13.9572 11.6072 14.1874 11.5843 14.3114C11.5614 14.4353 11.5183 14.6694 11.4886 14.8315C11.4536 15.0223 11.4182 15.213 11.3824 15.4037C11.3486 15.583 11.314 15.7621 11.2787 15.9412C11.2503 16.0842 11.2229 16.2189 11.2177 16.2402L11.2082 16.2793H11.5811V16.2793ZM13.1861 14.2746L13.0413 14.2833L12.9467 14.2665L12.8521 14.2498L12.756 14.206L12.6598 14.1621L12.5927 14.098L12.5256 14.0339L12.4868 13.9472C12.4655 13.8995 12.4381 13.8185 12.426 13.7671L12.4039 13.6739L12.4127 13.5244L12.4216 13.3751L12.4663 13.1409C12.5 12.962 12.5327 12.7828 12.5643 12.6034C12.5936 12.4365 12.6381 12.192 12.6631 12.06L12.7084 11.82L12.8078 11.7373C12.8625 11.6919 12.9491 11.6308 13.0003 11.6018L13.0933 11.549L13.2147 11.5115L13.3361 11.4739L13.4921 11.4647L13.6482 11.4555L13.7753 11.4826L13.9023 11.5097L13.992 11.551L14.0817 11.5923L14.1569 11.6679L14.2321 11.7435L14.2726 11.8236C14.295 11.8676 14.3263 11.9538 14.3423 12.0151L14.3713 12.1265L14.3624 12.456L14.3535 12.7855L14.309 12.9803C14.2845 13.0874 14.2379 13.2512 14.2054 13.3443L14.1464 13.5138L14.074 13.6509C14.0342 13.7263 13.9728 13.8282 13.9376 13.8773C13.9024 13.9264 13.8463 13.9902 13.8129 14.0188C13.7724 14.0532 13.731 14.0864 13.6887 14.1184L13.6251 14.1658L13.478 14.2159L13.3308 14.2659L13.1861 14.2746ZM16.7866 14.7513L16.9774 14.7535L17.168 14.7361C17.273 14.7265 17.4446 14.7066 17.5495 14.6917C17.6545 14.677 17.8357 14.6439 17.9523 14.6183L18.1642 14.5716L18.1748 14.4934C18.1806 14.4505 18.2044 14.3226 18.2277 14.2092L18.2701 14.0029L18.2607 13.9936L18.2513 13.9843L18.1865 14.0155C18.1509 14.0327 18.0398 14.0738 17.9398 14.1068L17.7579 14.1666L17.567 14.2037L17.3761 14.2406L17.0727 14.2413L16.7693 14.2418L16.6652 14.2086C16.608 14.1904 16.5239 14.157 16.4782 14.1343L16.3953 14.0933L16.3268 14.0314L16.2583 13.9695L16.2049 13.8762L16.1514 13.7827L16.1179 13.6656L16.0844 13.5484L16.0842 13.3316L16.084 13.1148L16.1137 12.9215L16.1435 12.728L16.4044 12.7158L16.6653 12.7036L17.6299 12.7099L18.5944 12.716L18.6235 12.5925C18.6395 12.5246 18.664 12.3841 18.6779 12.2804L18.7032 12.0918L18.7038 11.9332L18.7044 11.7746L18.6769 11.6562L18.6494 11.5377L18.604 11.4594C18.5791 11.4163 18.535 11.3538 18.5062 11.3205C18.4774 11.2872 18.426 11.2403 18.3919 11.2163C18.3578 11.1923 18.2909 11.1518 18.2432 11.1264L18.1566 11.0803L18.0051 11.0438L17.8536 11.0074L17.6671 10.9895L17.4804 10.9717L17.307 10.983L17.1336 10.9943L16.9255 11.0343L16.7175 11.0743L16.5874 11.1262C16.5158 11.1547 16.4066 11.207 16.3447 11.2421C16.2827 11.2773 16.1969 11.3345 16.154 11.3692C16.111 11.404 16.0367 11.4716 15.9888 11.5195C15.9409 11.5673 15.87 11.6533 15.8314 11.7105C15.7927 11.7678 15.7334 11.8692 15.6995 11.9359C15.6657 12.0027 15.6217 12.0963 15.6016 12.144C15.5817 12.1916 15.5452 12.2892 15.5208 12.3607C15.4963 12.4323 15.4578 12.5688 15.4353 12.6642C15.4088 12.7797 15.3859 12.896 15.3667 13.013L15.339 13.1885L15.3393 13.4465L15.3396 13.7045L15.3659 13.8172C15.3803 13.8792 15.4081 13.9729 15.4274 14.0253C15.4467 14.0778 15.4826 14.1558 15.5071 14.1987C15.5315 14.2417 15.5837 14.3107 15.623 14.3523C15.6622 14.3938 15.7335 14.4569 15.7812 14.4923C15.8288 14.5278 15.9137 14.5778 15.9697 14.6033L16.0717 14.6497L16.2138 14.6841C16.292 14.703 16.41 14.7254 16.476 14.7339C16.5419 14.7421 16.6817 14.7501 16.7866 14.7513ZM17.1132 12.3086C16.6332 12.3086 16.2404 12.3052 16.2404 12.301C16.2404 12.2968 16.2609 12.2363 16.286 12.1666C16.311 12.0969 16.355 11.9932 16.3836 11.9361L16.4359 11.8323L16.5505 11.7182L16.6652 11.6041L16.778 11.5502C16.8399 11.5206 16.9219 11.4883 16.96 11.4785C16.9982 11.4687 17.1074 11.4557 17.2027 11.4496L17.3762 11.4385L17.5094 11.4556L17.6425 11.4727L17.7393 11.517L17.8361 11.5614L17.8892 11.6186C17.9183 11.6501 17.9531 11.6965 17.9665 11.7216L17.9906 11.7674L18.0066 11.869L18.0227 11.9706L18.0043 12.1396L17.986 12.3088H17.1132V12.3086ZM22.3007 14.7514L22.4915 14.7535L22.7081 14.7278C22.8273 14.7137 22.9859 14.6903 23.0606 14.6757C23.1509 14.6576 23.2406 14.6363 23.3294 14.612C23.4025 14.5913 23.4686 14.5689 23.4763 14.5623C23.4841 14.5557 23.5047 14.477 23.5222 14.3875C23.5398 14.2979 23.5618 14.1779 23.5713 14.1206C23.5807 14.0634 23.5856 14.0135 23.5821 14.0098C23.5786 14.006 23.5659 14.0109 23.5537 14.0205C23.5416 14.0302 23.4565 14.066 23.3647 14.1001L23.1977 14.1621L22.9599 14.2081L22.7221 14.2542L22.52 14.2473L22.3179 14.2404L22.203 14.2005L22.0882 14.1607L21.9995 14.0831L21.9108 14.0055L21.8519 13.8982L21.7931 13.7911L21.765 13.6476L21.7369 13.5043L21.7372 13.3182L21.7373 13.1322L21.7714 12.9068L21.8055 12.6813L21.8415 12.5599C21.8613 12.4931 21.8838 12.4151 21.8914 12.3865C21.899 12.3579 21.9307 12.276 21.962 12.2044C21.9933 12.1329 22.0491 12.0223 22.086 11.9588L22.1531 11.8432L22.2355 11.7577L22.3179 11.6723L22.4052 11.6182L22.4925 11.564L22.6046 11.5295C22.6663 11.5105 22.7753 11.4858 22.8468 11.4748L22.9769 11.4545L23.1675 11.464L23.3583 11.4736L23.5837 11.5187L23.8091 11.5637L23.9008 11.598C23.9512 11.6167 23.9946 11.6322 23.9974 11.6322C24.0001 11.6322 24.0122 11.5678 24.0242 11.4891C24.0363 11.4105 24.0578 11.281 24.072 11.2015C24.0863 11.1219 24.0945 11.0534 24.0902 11.0493C24.0861 11.0451 24.0183 11.0343 23.9397 11.0253C23.8611 11.0164 23.6473 11.0005 23.4648 10.99L23.1329 10.9709L22.8987 10.9888L22.6647 11.0068L22.4912 11.0432L22.3178 11.0797L22.2062 11.1243C22.1447 11.1489 22.0548 11.1932 22.0063 11.2229C21.9597 11.2512 21.914 11.2807 21.869 11.3114C21.842 11.3305 21.7602 11.4049 21.6871 11.4768L21.5544 11.6075L21.4802 11.7161C21.4395 11.7758 21.3689 11.9004 21.3235 11.9929L21.2409 12.1611L21.1775 12.3431C21.1427 12.4432 21.0941 12.6071 21.0695 12.7072L21.0248 12.8893L21.0085 13.0541L20.9923 13.2188L20.9925 13.4355L20.9927 13.6522L21.009 13.7783L21.0254 13.9044L21.0773 14.0341L21.1292 14.1638L21.1893 14.2576L21.2492 14.3513L21.3445 14.4452L21.44 14.5391L21.5408 14.5925L21.6418 14.6457L21.7743 14.6826C21.8472 14.7028 21.9525 14.726 22.0084 14.7342C22.0643 14.7423 22.1958 14.75 22.3008 14.7511H22.3007V14.7514ZM25.1529 14.745L25.3869 14.7382L25.5343 14.7005L25.6817 14.6627L25.7771 14.6177C25.8296 14.593 25.9154 14.544 25.9678 14.5089C26.0203 14.4739 26.1015 14.4073 26.1482 14.361C26.195 14.3146 26.2643 14.2355 26.3023 14.1851C26.3403 14.1348 26.3737 14.0959 26.3765 14.0987C26.3794 14.1015 26.3706 14.1816 26.357 14.2768C26.3436 14.3721 26.3324 14.4987 26.3322 14.5584L26.3319 14.6667H26.9683L26.978 14.4197L26.9877 14.1726L27.0331 13.8518C27.0581 13.6753 27.0985 13.4139 27.1228 13.2709C27.1471 13.1279 27.1894 12.8861 27.2168 12.7334C27.2441 12.5808 27.2875 12.3428 27.313 12.2045L27.3596 11.9532L27.3612 11.736L27.3627 11.5188L27.3137 11.4184L27.2646 11.318L27.198 11.2541L27.1314 11.1902L27.0221 11.1349L26.9127 11.0795L26.7498 11.0432L26.5868 11.0069L26.3625 10.9899L26.1382 10.9728L25.8493 10.9907C25.6902 11.0005 25.4667 11.0199 25.3522 11.0338L25.1441 11.059L25.0023 11.0596L24.8605 11.0601L24.8399 11.1599C24.8285 11.2147 24.797 11.3449 24.7698 11.4494C24.7426 11.5538 24.7229 11.6417 24.726 11.6448C24.729 11.6478 24.8049 11.6306 24.8945 11.6065C24.9841 11.5824 25.1745 11.5428 25.3176 11.5183L25.5776 11.474L25.8117 11.4644L26.0458 11.4548L26.1966 11.4812L26.3475 11.5076L26.4481 11.5573L26.5487 11.607L26.6051 11.691L26.6615 11.775L26.6607 11.9073L26.6598 12.0398L26.6299 12.185L26.6 12.3304L25.9761 12.3326L25.3522 12.3348L25.148 12.3908C25.0357 12.4216 24.9114 12.4625 24.8717 12.4816C24.832 12.5009 24.7923 12.5166 24.7834 12.5166C24.7746 12.5166 24.7078 12.5535 24.635 12.5989L24.5026 12.6811L24.3983 12.7852C24.3409 12.8425 24.2677 12.9283 24.2355 12.976C24.2032 13.0237 24.1509 13.1233 24.1192 13.1974L24.0615 13.332L24.0351 13.4834L24.0086 13.6348V13.9526L24.0338 14.0849L24.0592 14.2172L24.1061 14.3034C24.1319 14.3508 24.1794 14.4204 24.2114 14.4579L24.2698 14.5261L24.3734 14.5891L24.4771 14.6521L24.5959 14.6856C24.6612 14.7041 24.7605 14.7265 24.8167 14.7354L24.9188 14.7515L25.1529 14.7448H25.1529V14.745ZM25.3696 14.26L25.2309 14.2673L25.139 14.2439C25.0885 14.231 25.0118 14.2024 24.9687 14.1802L24.8902 14.1398L24.8473 14.0888C24.8238 14.0607 24.7878 14.0058 24.7673 13.9665L24.7302 13.8951L24.7229 13.7285L24.7156 13.5618L24.745 13.4607C24.7611 13.4051 24.7991 13.3085 24.8293 13.2462L24.8842 13.1329L24.9894 13.0285L25.0945 12.9241L25.2061 12.8704L25.3177 12.8167L25.4564 12.7837L25.5951 12.7507H26.4621L26.4895 12.7621L26.5169 12.7734L26.4939 12.9096C26.4812 12.9844 26.4509 13.1197 26.4265 13.2103C26.4023 13.301 26.3593 13.4341 26.3312 13.5063C26.3031 13.5785 26.28 13.6423 26.28 13.6481C26.28 13.6539 26.2515 13.7065 26.2167 13.765L26.1533 13.8713L26.0494 13.9744C25.9922 14.031 25.9391 14.0773 25.9314 14.0773C25.9238 14.0773 25.8887 14.0969 25.8535 14.1207L25.7897 14.164L25.649 14.2086L25.5084 14.253L25.3696 14.26ZM31.0136 14.7511L31.1783 14.7532L31.3344 14.7279C31.4203 14.714 31.5295 14.6915 31.5772 14.678C31.6248 14.6645 31.7107 14.6295 31.7678 14.6002L31.8719 14.5469L31.9614 14.4681L32.0509 14.3893L32.1452 14.2637C32.197 14.1945 32.244 14.1263 32.2495 14.1119L32.2595 14.0859L32.2508 14.1726C32.2446 14.2306 32.2366 14.2884 32.2268 14.346C32.2184 14.3937 32.2065 14.4854 32.2002 14.5497L32.1887 14.6667H32.869V14.4327L32.9208 13.9905C32.9492 13.7473 32.9914 13.4235 33.0144 13.2709C33.0374 13.1182 33.073 12.8999 33.0934 12.7854C33.1137 12.671 33.1499 12.4641 33.1736 12.3259C33.1974 12.1877 33.2403 11.9457 33.269 11.7884C33.2977 11.631 33.3436 11.3813 33.3711 11.2336C33.3985 11.0857 33.4411 10.8555 33.4658 10.722C33.4905 10.5886 33.5347 10.3544 33.564 10.2019C33.5948 10.0427 33.6265 9.88375 33.6593 9.72505C33.6824 9.61545 33.7013 9.5198 33.7012 9.51265V9.4996H32.959L32.9481 9.608C32.9421 9.6676 32.9136 9.8646 32.885 10.0458C32.8509 10.2598 32.8163 10.4736 32.781 10.6873C32.7604 10.8106 32.7401 10.9339 32.72 11.0573L32.7107 11.115L32.6814 11.1026C32.6653 11.0958 32.578 11.0715 32.4874 11.0488L32.3227 11.0074L32.0973 10.9898L31.8718 10.9723L31.6811 10.99L31.4904 11.0078L31.317 11.0516L31.1436 11.0954L30.9789 11.1758L30.8141 11.2561L30.6927 11.3459L30.5714 11.4357L30.4665 11.5482C30.4089 11.61 30.3256 11.7123 30.2814 11.7754L30.2012 11.8902L30.1069 12.0863C30.0551 12.1942 29.992 12.3371 29.9668 12.4038C29.9415 12.4706 29.897 12.6186 29.8677 12.7327L29.8147 12.9402L29.7885 13.2096L29.7624 13.4789L29.782 13.6956L29.8018 13.9124L29.8249 13.9904C29.8378 14.0333 29.8646 14.1098 29.8847 14.1603L29.9213 14.2523L29.9881 14.3426L30.0549 14.433L30.1311 14.4954L30.2072 14.5578L30.3113 14.6095C30.3686 14.6378 30.4645 14.6746 30.5246 14.6911C30.5846 14.7075 30.6822 14.7273 30.7414 14.735C30.8005 14.7428 30.923 14.75 31.0136 14.7511ZM31.3093 14.2593L31.1783 14.2661L31.09 14.2503C31.0414 14.2415 30.9637 14.218 30.9172 14.1981L30.8327 14.162L30.7616 14.1037L30.6906 14.0455L30.6378 13.9443L30.5849 13.8432L30.5608 13.7305L30.5368 13.6178L30.5389 13.3924L30.5409 13.167L30.5689 12.9675L30.5968 12.7682L30.6403 12.6295C30.6642 12.5532 30.6839 12.4812 30.684 12.4695C30.6842 12.4579 30.7077 12.3955 30.7364 12.3309C30.77 12.2561 30.8055 12.1822 30.8429 12.1093C30.8729 12.0521 30.9288 11.9629 30.9671 11.9111C31.0055 11.8593 31.074 11.7813 31.1192 11.7376C31.1644 11.6942 31.2362 11.6369 31.279 11.6107L31.3566 11.5629L31.4929 11.5158L31.6293 11.4686L31.9154 11.4684H32.2015L32.3662 11.5142C32.4568 11.5393 32.553 11.5684 32.58 11.5789L32.629 11.598L32.6195 11.6456C32.6143 11.6718 32.5936 11.7868 32.5737 11.9012C32.5538 12.0157 32.5145 12.2342 32.4864 12.3868C32.4584 12.5394 32.4153 12.7696 32.3906 12.8983C32.366 13.027 32.3304 13.1909 32.3114 13.2623C32.2919 13.3358 32.2721 13.4092 32.2519 13.4825C32.2382 13.532 32.2054 13.6179 32.1792 13.6732C32.153 13.7285 32.107 13.809 32.0771 13.8518C32.0472 13.8947 31.9967 13.9543 31.9648 13.984C31.9329 14.0138 31.8638 14.0666 31.8114 14.1014L31.7161 14.1649L31.5782 14.2086L31.4404 14.2524L31.3093 14.2593ZM5.79026 14.6667H6.21151L6.24176 14.4804C6.25836 14.3778 6.29086 14.1808 6.31391 14.0425L6.40926 13.4703C6.43866 13.2939 6.48276 13.0325 6.50721 12.8895C6.53166 12.7464 6.57056 12.5245 6.59356 12.3964C6.61661 12.2682 6.63986 12.1589 6.64516 12.1536L6.65491 12.1439H8.92056L8.93316 12.1565L8.94576 12.1691L8.92606 12.2692C8.91531 12.3243 8.88336 12.4941 8.85511 12.6468C8.82686 12.7994 8.77936 13.0568 8.74951 13.219C8.71816 13.3896 8.68626 13.5601 8.65381 13.7305C8.63091 13.8497 8.58461 14.0993 8.55091 14.2853C8.51726 14.4713 8.48976 14.6332 8.48986 14.6451L8.49006 14.6668H9.33611L9.35481 14.5585C9.36516 14.4989 9.38166 14.3916 9.39166 14.32C9.40156 14.2485 9.42561 14.0962 9.44496 13.9819C9.46431 13.8675 9.50296 13.6411 9.53091 13.479C9.55881 13.3169 9.60561 13.0399 9.63481 12.8634C9.66401 12.687 9.70731 12.4295 9.73111 12.2913C9.76121 12.1177 9.79256 11.9443 9.82511 11.7711C9.85306 11.6233 9.89966 11.3736 9.92866 11.2162C9.95766 11.0589 10.001 10.8209 10.0251 10.6873C10.0492 10.5538 10.0931 10.3119 10.1227 10.1498C10.1523 9.98775 10.1897 9.7986 10.2057 9.72935L10.2349 9.60365H9.37826L9.36661 9.68605C9.36026 9.73125 9.33956 9.8581 9.32066 9.9678C9.30171 10.0774 9.26741 10.2725 9.24431 10.4012C9.22121 10.53 9.17901 10.7758 9.15051 10.9475C9.12256 11.1156 9.09566 11.2839 9.06981 11.4525L9.04091 11.6453L8.41216 11.658L7.78336 11.6707L7.25676 11.6582C6.96711 11.6514 6.72851 11.6444 6.72651 11.6427C6.72456 11.641 6.73441 11.5737 6.74841 11.493C6.76686 11.3889 6.78651 11.2851 6.80736 11.1815C6.83396 11.0487 6.85981 10.9158 6.88486 10.7826C6.90911 10.6539 6.93651 10.494 6.94586 10.4272C6.95516 10.3605 6.97471 10.2493 6.98926 10.1801C7.00381 10.111 7.03141 9.9654 7.05061 9.85655C7.06976 9.74765 7.09021 9.6462 7.09606 9.63115L7.10656 9.6036H6.25681L6.22966 9.75535C6.21466 9.8388 6.19471 9.95775 6.18531 10.0197C6.17586 10.0817 6.14421 10.2807 6.11496 10.4619C6.08571 10.6431 6.04251 10.9123 6.01896 11.0601L5.92381 11.6583C5.89036 11.8667 5.85506 12.0747 5.81801 12.2825C5.78716 12.4531 5.75571 12.6236 5.72366 12.794C5.70111 12.9132 5.65816 13.1395 5.62816 13.2969C5.59671 13.4618 5.56426 13.6265 5.53091 13.7911C5.50741 13.9055 5.48146 14.0381 5.47326 14.0858C5.46496 14.1335 5.43816 14.2711 5.41356 14.3915C5.38901 14.5118 5.36891 14.623 5.36891 14.6385V14.6666H5.79026V14.6667ZM10.4542 14.6667H10.8271L10.8376 14.6393C10.8435 14.6242 10.8482 14.5846 10.8482 14.5514C10.8482 14.5181 10.8717 14.3451 10.9003 14.167C10.9657 13.7611 11.0328 13.3555 11.1015 12.9501C11.1309 12.7793 11.1619 12.6088 11.1944 12.4386C11.222 12.2956 11.2644 12.0732 11.2886 11.9445C11.3128 11.8158 11.3604 11.5708 11.3943 11.4001C11.4283 11.2295 11.4603 11.0831 11.4654 11.0747L11.4749 11.0595L11.0977 11.0641L10.7206 11.0688L10.6891 11.2943C10.6719 11.4182 10.6341 11.6641 10.6052 11.8404C10.5763 12.0168 10.5326 12.2861 10.5081 12.4386C10.4784 12.621 10.4467 12.8031 10.4131 12.9849C10.3853 13.1327 10.3428 13.3589 10.3186 13.4877C10.2944 13.6165 10.2509 13.8428 10.222 13.9906C10.1931 14.1384 10.1544 14.3335 10.1359 14.4241C10.1173 14.5147 10.0975 14.6064 10.0917 14.6278L10.0812 14.6668H10.4542V14.6667ZM19.1772 14.6667H19.5473L19.5585 14.5101C19.5646 14.424 19.5855 14.2503 19.605 14.1243C19.6245 13.9982 19.6645 13.7469 19.6937 13.5657C19.7307 13.3417 19.771 13.1183 19.8146 12.8954C19.8519 12.708 19.894 12.5217 19.9082 12.4815C19.9224 12.4412 19.934 12.3976 19.934 12.3846C19.934 12.3714 19.9619 12.3002 19.9959 12.2263C20.0299 12.1524 20.0932 12.0392 20.1367 11.9747L20.2158 11.8575L20.3215 11.7595L20.4273 11.6616L20.5577 11.5993L20.6882 11.537L20.8876 11.538L21.0869 11.5391L21.185 11.5683C21.2389 11.5844 21.2877 11.5976 21.2933 11.5976C21.299 11.5976 21.3037 11.5792 21.3037 11.5567C21.3037 11.5342 21.3232 11.42 21.347 11.3029C21.3709 11.1859 21.3904 11.0852 21.3904 11.0791C21.3904 11.0731 21.3338 11.0509 21.2647 11.0299C21.1955 11.0089 21.0999 10.9869 21.0523 10.981L20.9656 10.9703L20.8529 10.9902C20.7909 11.0012 20.6987 11.0253 20.6481 11.044C20.5973 11.0626 20.5137 11.1048 20.4621 11.1378C20.4106 11.1708 20.3303 11.2351 20.2839 11.2807C20.2373 11.3263 20.1591 11.4182 20.11 11.485C20.0718 11.5368 20.0338 11.5889 19.996 11.641L19.9712 11.6757L19.9863 11.6063C19.9946 11.5681 20.0177 11.4433 20.0376 11.3289C20.0574 11.2144 20.078 11.1071 20.083 11.0905L20.0923 11.0601H19.431V11.1019C19.431 11.1249 19.4114 11.2634 19.3877 11.4096C19.3638 11.556 19.3244 11.8004 19.3003 11.9531C19.2761 12.1057 19.233 12.3709 19.2048 12.5426C19.1746 12.7249 19.1428 12.907 19.1092 13.0888C19.044 13.4359 18.9772 13.7827 18.909 14.1292C18.8798 14.277 18.8448 14.4515 18.8314 14.5172C18.8178 14.5827 18.8068 14.6431 18.8068 14.6515V14.6667H19.1772ZM27.9652 14.6667H28.3437V14.435L28.3872 14.1477C28.4113 13.9898 28.4508 13.7395 28.4753 13.5917C28.4996 13.4439 28.53 13.2567 28.5428 13.1755C28.5556 13.0945 28.5894 12.919 28.6179 12.7855C28.6466 12.6519 28.6822 12.5076 28.6973 12.4647C28.7124 12.4218 28.7247 12.3767 28.7249 12.3646C28.7251 12.3525 28.7573 12.2746 28.7966 12.1915L28.8681 12.0404L28.9624 11.9151L29.0567 11.7899L29.1598 11.7123C29.2165 11.6696 29.3077 11.6131 29.3626 11.5865L29.4621 11.5383L29.6788 11.5397L29.8956 11.5413L29.9809 11.5686L30.0662 11.5961L30.0806 11.5871L30.095 11.5782L30.0958 11.5229C30.0962 11.4925 30.1147 11.3793 30.137 11.2713L30.1776 11.075L30.132 11.0572C30.0883 11.041 30.0442 11.026 29.9997 11.0121L29.913 10.9847L29.757 10.9852L29.6009 10.9856L29.4737 11.0304L29.3465 11.0751L29.251 11.1327L29.1556 11.1903L29.0314 11.3203L28.9073 11.4504L28.8406 11.5513C28.8039 11.6067 28.7716 11.6497 28.7688 11.6466C28.766 11.6436 28.786 11.528 28.8131 11.3897C28.8403 11.2514 28.8629 11.1207 28.8633 11.0992L28.864 11.0602H28.2225V11.0713C28.2225 11.0773 28.2065 11.1886 28.1869 11.3183C28.1674 11.4482 28.1281 11.6987 28.0997 11.8752C28.0656 12.0862 28.0311 12.2972 27.9961 12.5081C27.9657 12.6904 27.9338 12.8725 27.9004 13.0543C27.8763 13.183 27.8336 13.4093 27.8054 13.5571C27.7772 13.705 27.7309 13.943 27.7025 14.086L27.6188 14.5064L27.5868 14.6668H27.9652V14.6667ZM11.1877 10.4356L11.2929 10.436L11.3766 10.4075L11.4603 10.379L11.5344 10.3038L11.6085 10.2287L11.6474 10.1286L11.6865 10.0285L11.6878 9.8811L11.6892 9.7338L11.6546 9.67625L11.6199 9.6187L11.5595 9.5814L11.4991 9.544H11.2384L11.1497 9.58375L11.0609 9.6234L11.0094 9.6786L10.9579 9.7338L10.9174 9.8292L10.877 9.9245L10.8693 10.073L10.8617 10.2216L10.8993 10.2955L10.937 10.3693L11.0097 10.4023L11.0824 10.4352L11.1877 10.4356Z" fill="#B3131B"/>
</svg>
